<svg width="41" height="41" viewBox="0 0 41 41" fill="none" xmlns="http://www.w3.org/2000/svg">
<path d="M20.1052 40.3838C31.209 40.3838 40.2104 31.3435 40.2104 20.1919C40.2104 9.04021 31.209 0 20.1052 0C9.00141 0 0 9.04021 0 20.1919C0 31.3435 9.00141 40.3838 20.1052 40.3838Z" fill="white"/>
<path d="M36.2399 28.7909C35.8926 29.5136 35.5033 30.1999 35.076 30.8487C35.2356 30.7432 35.3598 30.6214 35.4498 30.4847C35.8395 29.8383 36.3442 28.9666 36.6899 28.2952C37.9936 25.2774 38.4661 23.5547 38.5203 19.8957C38.5386 20.2996 38.3764 20.6294 38.0162 20.8683C38.0279 23.5516 37.458 26.2572 36.2399 28.7909Z" fill="url(#paint0_radial_222_29)"/>
<path d="M2.01897 23.7506C2.18592 24.473 2.43192 25.4312 2.64658 26.1408C3.04484 27.2461 4.64653 28.8161 7.08997 30.504C6.84696 28.3311 7.18714 25.6936 8.14785 22.8204C4.15876 20.0644 1.86203 17.5464 2.15238 16.1232C1.86882 17.6303 1.34116 20.4354 2.01897 23.7506Z" fill="url(#paint1_radial_222_29)"/>
<path d="M37.1395 15.2752C34.2516 20.0338 10.5882 6.64069 12.5998 3.38074C11.7758 3.74609 10.8863 4.21512 9.94744 4.8331C8.55457 5.83588 8.26473 6.04464 7.02704 7.23535C5.75005 8.63525 5.70044 8.68991 5.08737 9.55379C4.03307 11.1837 3.99201 11.2473 3.51922 12.2245C3.21769 12.9227 2.83155 13.8614 2.57766 14.5786C1.95904 16.6077 6.98839 21.0532 14.8377 25.2031C23.6721 29.8739 32.7334 32.4014 35.0761 30.8485C35.5034 30.1997 35.8926 29.5134 36.24 28.7907C38.3197 24.4642 38.5103 19.6374 37.1395 15.2752Z" fill="url(#paint2_radial_222_29)"/>
<path d="M37.9023 19.3934C38.2776 19.1447 38.5012 18.7928 38.4494 18.3589C38.3813 17.8815 38.3028 17.2429 38.2142 16.769C37.7171 14.6178 37.3523 13.3627 36.1572 11.1555L35.554 10.1589C35.9853 10.8095 35.9501 11.3218 35.509 11.6142C36.8531 14.0099 37.633 16.6489 37.9753 19.3934" fill="url(#paint3_radial_222_29)"/>
<path d="M4.97232 13.6615C4.31475 13.6615 3.50734 13.6531 3.08365 13.9338C2.82237 14.107 2.65557 14.3237 2.57776 14.5786C2.84064 13.8647 3.2088 12.9188 3.51917 12.2245C4.45533 10.4626 4.4733 10.4289 5.08732 9.55381C6.26904 8.01361 6.2914 7.98411 7.02707 7.23536C7.24567 7.03078 7.43388 6.85468 7.60258 6.69846C7.60258 6.69838 4.97232 10.5407 4.97232 13.6615Z" fill="url(#paint4_radial_222_29)"/>
<path d="M24.8306 33.5506C23.2254 32.1702 20.8685 30.6048 18.0075 29.0921C11.4404 25.62 4.70495 23.7409 2.96328 24.8956C2.5439 25.1735 2.45228 25.6018 2.64648 26.1404C2.43686 25.4295 2.18085 24.4738 2.01887 23.7504C1.74006 21.9304 1.39286 19.6656 2.15228 16.123C2.21219 15.8272 2.38477 15.5786 2.67658 15.3851C4.98566 13.8546 13.9155 16.3456 22.6221 20.9488C26.4147 22.9541 29.5399 25.0293 31.668 26.86C29.785 29.5748 27.4111 31.8625 24.8306 33.5506Z" fill="url(#paint5_radial_222_29)"/>
<path d="M26.7448 37.4692C27.5974 36.9041 27.0953 35.7169 25.5899 34.2449C28.2914 32.6671 30.7521 30.4588 32.6749 27.78C34.4472 29.5136 35.1704 30.9491 34.5182 31.7734C33.9665 32.4166 33.2005 33.2484 32.6013 33.8469C31.1604 35.0813 31.1329 35.105 30.2617 35.6866C29.1594 36.417 27.9787 37.0138 26.7448 37.4692ZM17.5335 38.2379C20.1984 38.7337 22.8827 38.6021 25.3937 37.9051C27.0021 36.8394 23.3896 33.3756 17.3252 30.1694C14.0668 28.4467 10.7637 27.1489 8.1554 26.4817C8.36772 28.9837 8.96449 31.2895 9.93404 33.2019C11.084 33.496 12.5402 34.0682 13.9765 34.8275C16.65 36.2411 18.2425 37.7679 17.5335 38.2379Z" fill="url(#paint6_radial_222_29)"/>
<path d="M16.1621 4.93505C17.8571 3.48738 19.6654 2.56825 21.4455 2.24289C23.5856 2.79014 26.2953 3.85493 28.9681 5.26811C32.2799 7.01897 34.7001 8.8634 35.5592 10.1589L36.1623 11.1555C37.0841 12.9407 37.6826 14.2094 38.2196 16.769C38.2926 17.2456 38.4022 17.8796 38.4545 18.3589C38.2248 16.439 34.029 12.9124 27.7683 9.60239C23.6443 7.42197 19.4637 5.77933 16.1621 4.93505Z" fill="url(#paint7_linear_222_29)"/>
<path d="M23.9546 19.9133C24.3181 19.2018 24.6744 18.483 25.0217 17.7604C26.2398 15.2265 27.2149 12.919 27.9244 10.9451C34.2623 14.3748 38.4348 17.9708 38.5218 19.8923C38.458 23.3406 38.0646 25.1461 36.6913 28.2917C36.3371 28.9584 35.8497 29.8402 35.4514 30.4811C36.657 28.6561 31.8181 24.1686 23.9546 19.9133Z" fill="url(#paint8_linear_222_29)"/>
<path d="M7.30397 7.71321C6.59613 9.00679 6.17273 10.4025 6.04648 11.8616C5.68708 16.0104 7.80225 19.9871 11.4354 21.9928C14.5538 23.7143 18.1732 23.6667 21.1425 22.1879L22.0145 23.7778C21.7795 24.1691 21.752 24.6715 21.9871 25.1006L26.4304 33.2027C26.7813 33.8434 27.5831 34.0765 28.2207 33.7236C28.6213 33.5021 28.8615 33.1029 28.8983 32.6772C28.9207 32.4252 28.8705 32.1636 28.7399 31.9253L24.2964 23.8229C24.0611 23.394 23.6236 23.1489 23.1691 23.1392L22.2843 21.5262C23.6453 20.6183 24.8135 19.3784 25.6534 17.8438C26.3617 16.5503 26.7846 15.1546 26.9108 13.6956C27.2704 9.54663 25.155 5.57014 21.5218 3.56443C16.4632 0.771309 10.0849 2.63254 7.30397 7.71321Z" fill="url(#paint9_radial_222_29)"/>
<path d="M22.7174 6.05437C25.3687 8.53549 26.3137 12.3608 25.1246 15.7997C24.7067 17.0078 24.0506 18.0997 23.1747 19.044C19.7347 22.7519 13.9324 22.9577 10.2407 19.5028C7.58926 17.0219 6.64434 13.1966 7.83359 9.7576C8.25151 8.54892 8.90746 7.4575 9.78356 6.51313C13.2234 2.80535 19.0254 2.59982 22.7174 6.05437Z" fill="url(#paint10_radial_222_29)"/>
<path d="M18.0756 9.69869C20.0408 9.41736 21.8612 10.7894 22.1413 12.7632C22.4215 14.737 21.0554 16.5652 19.0903 16.8465C17.1248 17.128 15.3044 15.756 15.0242 13.7822C14.744 11.8084 16.1101 9.98016 18.0756 9.69869Z" fill="#5598E5"/>
<path d="M15.6664 16.8033C15.0567 16.4432 13.873 15.7418 13.2084 14.6724C12.303 13.2428 11.5244 10.9557 12.1704 9.1085C12.385 8.49528 12.0641 7.82336 11.4531 7.60771C10.8421 7.39227 10.1731 7.71476 9.95876 8.32835C9.01975 11.0118 10.0074 14.2724 11.4761 16.3221C12.06 17.6269 12.4288 19.4144 12.7841 21.1862C15.8621 22.5473 19.5221 22.1148 22.2101 19.9437C20.675 18.1488 17.8726 18.1064 15.6664 16.8033Z" fill="#5598E5"/>
<defs>
<radialGradient id="paint0_radial_222_29" cx="0" cy="0" r="1" gradientUnits="userSpaceOnUse" gradientTransform="translate(22.2239 14.8066) scale(32.476 32.616)">
<stop stop-color="#D18E38"/>
<stop offset="1" stop-color="#BD4927"/>
</radialGradient>
<radialGradient id="paint1_radial_222_29" cx="0" cy="0" r="1" gradientUnits="userSpaceOnUse" gradientTransform="translate(23.0373 14.8019) scale(31.9857 32.1236)">
<stop stop-color="#D53924"/>
<stop offset="1" stop-color="#C30011"/>
</radialGradient>
<radialGradient id="paint2_radial_222_29" cx="0" cy="0" r="1" gradientUnits="userSpaceOnUse" gradientTransform="translate(21.7055 15.6463) scale(33.4707 33.615)">
<stop stop-color="#6A9DB6"/>
<stop offset="1" stop-color="#2E55AF"/>
</radialGradient>
<radialGradient id="paint3_radial_222_29" cx="0" cy="0" r="1" gradientUnits="userSpaceOnUse" gradientTransform="translate(38.7364 14.336) scale(16.2857 16.3559)">
<stop stop-color="#9CAD4C"/>
<stop offset="1" stop-color="#73633D"/>
</radialGradient>
<radialGradient id="paint4_radial_222_29" cx="0" cy="0" r="1" gradientUnits="userSpaceOnUse" gradientTransform="translate(21.31 14.4541) scale(33.4224 33.5664)">
<stop stop-color="#71BEE6"/>
<stop offset="1" stop-color="#3871E4"/>
</radialGradient>
<radialGradient id="paint5_radial_222_29" cx="0" cy="0" r="1" gradientUnits="userSpaceOnUse" gradientTransform="translate(23.4019 14.7033) scale(31.0365 31.1703)">
<stop stop-color="#FF3924"/>
<stop offset="1" stop-color="#FF0011"/>
</radialGradient>
<radialGradient id="paint6_radial_222_29" cx="0" cy="0" r="1" gradientUnits="userSpaceOnUse" gradientTransform="translate(21.1628 22.3465) scale(21.4331 21.5255)">
<stop stop-color="#FDF240"/>
<stop offset="0.2407" stop-color="#FDDB3C"/>
<stop offset="0.7444" stop-color="#FCAF33"/>
<stop offset="1" stop-color="#FC9E30"/>
</radialGradient>
<linearGradient id="paint7_linear_222_29" x1="22.9154" y1="12.2457" x2="51.1346" y2="4.43602" gradientUnits="userSpaceOnUse">
<stop stop-color="#B2D25A"/>
<stop offset="0.2455" stop-color="#ACC457"/>
<stop offset="0.7116" stop-color="#9D9E51"/>
<stop offset="1" stop-color="#93834C"/>
</linearGradient>
<linearGradient id="paint8_linear_222_29" x1="22.3101" y1="14.3518" x2="48.8679" y2="31.8085" gradientUnits="userSpaceOnUse">
<stop stop-color="#F9AB3E"/>
<stop offset="1" stop-color="#F7612D"/>
</linearGradient>
<radialGradient id="paint9_radial_222_29" cx="0" cy="0" r="1" gradientUnits="userSpaceOnUse" gradientTransform="translate(25.9834 27.5403) scale(49.1573 49.3692)">
<stop stop-color="#563924"/>
<stop offset="1" stop-color="#110011"/>
</radialGradient>
<radialGradient id="paint10_radial_222_29" cx="0" cy="0" r="1" gradientUnits="userSpaceOnUse" gradientTransform="translate(21.6102 15.1105) rotate(-64.6656) scale(47.8534 47.7234)">
<stop stop-color="#EDF7FB"/>
<stop offset="0.1904" stop-color="#EDF2FB"/>
<stop offset="0.4306" stop-color="#ECE2FB"/>
<stop offset="0.6976" stop-color="#EAC8FB"/>
<stop offset="0.9822" stop-color="#E7A4FB"/>
<stop offset="1" stop-color="#E7A2FB"/>
</radialGradient>
</defs>
</svg>
