<svg width="197" height="41" viewBox="0 0 197 41" fill="none" xmlns="http://www.w3.org/2000/svg">
<path d="M20.1052 40.3838C31.209 40.3838 40.2104 31.3435 40.2104 20.1919C40.2104 9.04021 31.209 0 20.1052 0C9.00141 0 0 9.04021 0 20.1919C0 31.3435 9.00141 40.3838 20.1052 40.3838Z" fill="white"/>
<path d="M36.2399 28.7909C35.8926 29.5136 35.5033 30.1999 35.076 30.8487C35.2356 30.7432 35.3598 30.6214 35.4498 30.4847C35.8395 29.8383 36.3442 28.9666 36.6899 28.2952C37.9936 25.2774 38.4661 23.5547 38.5203 19.8957C38.5386 20.2996 38.3764 20.6294 38.0162 20.8683C38.0279 23.5516 37.458 26.2572 36.2399 28.7909Z" fill="url(#paint0_radial_222_28)"/>
<path d="M2.01897 23.7506C2.18592 24.473 2.43192 25.4312 2.64658 26.1408C3.04484 27.2461 4.64653 28.8161 7.08997 30.504C6.84696 28.3311 7.18714 25.6936 8.14785 22.8204C4.15876 20.0644 1.86203 17.5464 2.15238 16.1232C1.86882 17.6303 1.34116 20.4354 2.01897 23.7506Z" fill="url(#paint1_radial_222_28)"/>
<path d="M37.1395 15.2752C34.2516 20.0338 10.5882 6.64069 12.5998 3.38074C11.7758 3.74609 10.8863 4.21512 9.94744 4.8331C8.55457 5.83588 8.26473 6.04464 7.02704 7.23535C5.75005 8.63525 5.70044 8.68991 5.08737 9.55379C4.03307 11.1837 3.99201 11.2473 3.51922 12.2245C3.21769 12.9227 2.83155 13.8614 2.57766 14.5786C1.95904 16.6077 6.98839 21.0532 14.8377 25.2031C23.6721 29.8739 32.7334 32.4014 35.0761 30.8485C35.5034 30.1997 35.8926 29.5134 36.24 28.7907C38.3197 24.4642 38.5103 19.6374 37.1395 15.2752Z" fill="url(#paint2_radial_222_28)"/>
<path d="M37.9023 19.3934C38.2776 19.1447 38.5012 18.7928 38.4494 18.3589C38.3813 17.8816 38.3028 17.2429 38.2142 16.769C37.7171 14.6178 37.3523 13.3627 36.1572 11.1555L35.554 10.1589C35.9853 10.8095 35.9501 11.3218 35.509 11.6142C36.8531 14.0099 37.633 16.6489 37.9753 19.3934" fill="url(#paint3_radial_222_28)"/>
<path d="M4.97232 13.6615C4.31476 13.6615 3.50734 13.6531 3.08365 13.9338C2.82237 14.107 2.65557 14.3237 2.57776 14.5786C2.84064 13.8647 3.2088 12.9188 3.51917 12.2245C4.45533 10.4626 4.4733 10.4289 5.08732 9.55381C6.26904 8.01361 6.2914 7.98411 7.02707 7.23536C7.24567 7.03078 7.43388 6.85468 7.60258 6.69846C7.60258 6.69838 4.97232 10.5407 4.97232 13.6615Z" fill="url(#paint4_radial_222_28)"/>
<path d="M24.8306 33.5506C23.2254 32.1702 20.8685 30.6048 18.0075 29.0921C11.4404 25.62 4.70495 23.7409 2.96328 24.8956C2.5439 25.1735 2.45228 25.6018 2.64648 26.1404C2.43686 25.4295 2.18085 24.4738 2.01887 23.7504C1.74006 21.9304 1.39286 19.6656 2.15228 16.123C2.21219 15.8272 2.38477 15.5786 2.67658 15.3851C4.98566 13.8546 13.9155 16.3456 22.6221 20.9488C26.4147 22.9541 29.5399 25.0293 31.668 26.86C29.785 29.5748 27.4111 31.8625 24.8306 33.5506Z" fill="url(#paint5_radial_222_28)"/>
<path d="M26.7448 37.4692C27.5974 36.9041 27.0953 35.7169 25.5899 34.2449C28.2914 32.6671 30.7521 30.4588 32.6749 27.78C34.4472 29.5136 35.1704 30.9491 34.5182 31.7734C33.9665 32.4166 33.2005 33.2484 32.6013 33.8469C31.1604 35.0813 31.1329 35.105 30.2617 35.6866C29.1594 36.417 27.9787 37.0138 26.7448 37.4692ZM17.5335 38.2379C20.1984 38.7337 22.8827 38.6021 25.3937 37.9051C27.0021 36.8394 23.3896 33.3756 17.3252 30.1694C14.0668 28.4467 10.7637 27.1489 8.1554 26.4817C8.36772 28.9837 8.96449 31.2895 9.93404 33.2019C11.084 33.496 12.5402 34.0682 13.9765 34.8275C16.65 36.2411 18.2425 37.7679 17.5335 38.2379Z" fill="url(#paint6_radial_222_28)"/>
<path d="M16.1621 4.93505C17.8571 3.48738 19.6654 2.56825 21.4455 2.24289C23.5856 2.79014 26.2953 3.85493 28.9681 5.26811C32.2799 7.01897 34.7001 8.8634 35.5592 10.1589L36.1623 11.1555C37.0841 12.9407 37.6826 14.2094 38.2196 16.769C38.2926 17.2456 38.4022 17.8796 38.4545 18.3589C38.2248 16.439 34.029 12.9124 27.7683 9.60239C23.6443 7.42197 19.4637 5.77933 16.1621 4.93505Z" fill="url(#paint7_linear_222_28)"/>
<path d="M23.9546 19.9133C24.3181 19.2018 24.6744 18.483 25.0217 17.7604C26.2398 15.2265 27.2149 12.919 27.9244 10.9451C34.2623 14.3748 38.4348 17.9708 38.5218 19.8923C38.458 23.3406 38.0646 25.1461 36.6913 28.2917C36.3371 28.9584 35.8497 29.8402 35.4514 30.4811C36.657 28.6561 31.8181 24.1686 23.9546 19.9133Z" fill="url(#paint8_linear_222_28)"/>
<path d="M7.30397 7.71321C6.59613 9.00679 6.17273 10.4025 6.04648 11.8616C5.68708 16.0104 7.80225 19.9871 11.4354 21.9928C14.5538 23.7143 18.1732 23.6667 21.1425 22.1879L22.0145 23.7778C21.7795 24.1691 21.752 24.6715 21.9871 25.1006L26.4304 33.2027C26.7813 33.8434 27.5831 34.0765 28.2207 33.7236C28.6213 33.5021 28.8615 33.1029 28.8983 32.6772C28.9207 32.4252 28.8705 32.1636 28.7399 31.9253L24.2964 23.8229C24.0611 23.394 23.6236 23.1489 23.1691 23.1392L22.2843 21.5262C23.6453 20.6183 24.8135 19.3784 25.6534 17.8437C26.3617 16.5503 26.7846 15.1546 26.9108 13.6956C27.2704 9.54663 25.155 5.57014 21.5218 3.56443C16.4632 0.771309 10.0849 2.63254 7.30397 7.71321Z" fill="url(#paint9_radial_222_28)"/>
<path d="M22.7174 6.05437C25.3687 8.53549 26.3137 12.3608 25.1246 15.7997C24.7067 17.0078 24.0506 18.0997 23.1747 19.044C19.7347 22.7519 13.9324 22.9577 10.2407 19.5028C7.58926 17.0219 6.64434 13.1966 7.83359 9.7576C8.25151 8.54892 8.90746 7.4575 9.78356 6.51313C13.2234 2.80535 19.0254 2.59982 22.7174 6.05437Z" fill="url(#paint10_radial_222_28)"/>
<path d="M18.0756 9.69869C20.0408 9.41736 21.8612 10.7894 22.1413 12.7632C22.4215 14.737 21.0554 16.5652 19.0903 16.8465C17.1248 17.128 15.3044 15.756 15.0242 13.7822C14.744 11.8084 16.1101 9.98016 18.0756 9.69869Z" fill="#5598E5"/>
<path d="M15.6664 16.8033C15.0567 16.4432 13.873 15.7418 13.2084 14.6724C12.303 13.2428 11.5244 10.9557 12.1704 9.1085C12.385 8.49528 12.0641 7.82336 11.4531 7.60771C10.8421 7.39227 10.1731 7.71476 9.95876 8.32835C9.01975 11.0118 10.0074 14.2724 11.4761 16.3221C12.06 17.6269 12.4288 19.4144 12.7841 21.1862C15.8621 22.5473 19.5221 22.1148 22.2101 19.9437C20.675 18.1488 17.8726 18.1064 15.6664 16.8033Z" fill="#5598E5"/>
<path d="M132.281 14.6091H131.475C131.318 14.6091 131.172 14.5599 131.038 14.4614C130.903 14.3629 130.847 14.1935 130.87 13.9524C130.982 12.8579 130.584 11.9548 129.677 11.2431C128.77 10.532 127.577 10.1759 126.098 10.1759C124.351 10.1759 122.867 10.5099 121.646 11.1775C120.425 11.8455 119.668 12.8251 119.378 14.1166C119.31 14.445 119.277 14.7297 119.277 14.9704C119.277 15.6272 119.484 16.1803 119.898 16.6288C120.313 17.0777 120.912 17.4826 121.696 17.8438C122.48 18.205 123.623 18.6376 125.124 19.141C127.274 19.8634 128.831 20.6136 129.795 21.3904C130.757 22.1678 131.239 23.1915 131.239 24.4609C131.239 24.8334 131.183 25.2932 131.071 25.8401C130.646 27.8105 129.61 29.3047 127.963 30.3227C126.317 31.3407 124.183 31.8497 121.562 31.8497C119.926 31.8497 118.543 31.6142 117.412 31.1437C116.28 30.6732 115.429 30.0328 114.858 29.2226C114.287 28.4129 114.001 27.5149 114.001 26.5298C114.001 26.2671 114.012 26.07 114.035 25.9387C114.057 25.7416 114.13 25.5831 114.253 25.4625C114.376 25.3424 114.539 25.2819 114.74 25.2819H115.547C115.95 25.2819 116.152 25.501 116.152 25.9387C116.107 26.5954 116.264 27.225 116.622 27.8269C116.98 28.4293 117.574 28.9219 118.403 29.3047C119.232 29.688 120.285 29.8794 121.562 29.8794C123.69 29.8794 125.393 29.4966 126.669 28.73C127.946 27.9639 128.73 26.9131 129.022 25.5774C129.089 25.3147 129.122 25.0633 129.122 24.8221C129.122 24.1653 128.892 23.6127 128.434 23.1638C127.974 22.7153 127.33 22.3156 126.501 21.9651C125.672 21.6152 124.429 21.1554 122.771 20.5859C120.8 19.9291 119.378 19.2123 118.504 18.4349C117.63 17.6581 117.193 16.6452 117.193 15.3973C117.193 14.8282 117.249 14.3136 117.361 13.8538C117.742 12.1462 118.689 10.7783 120.201 9.74895C121.713 8.72016 123.679 8.20551 126.098 8.20551C127.621 8.20551 128.904 8.4518 129.946 8.94439C130.987 9.43697 131.766 10.0666 132.281 10.8326C132.796 11.5992 133.054 12.3981 133.054 13.2299C133.054 13.4054 133.031 13.646 132.987 13.9524C132.897 14.3906 132.662 14.6091 132.281 14.6091Z" fill="white"/>
<path d="M156.307 14.9376C156.352 14.8283 156.436 14.719 156.559 14.6092C156.682 14.4999 156.845 14.445 157.046 14.445H157.853C158.233 14.445 158.424 14.5876 158.424 14.8719C158.424 14.9596 158.379 15.1131 158.29 15.3316L150.258 30.7004C150.101 31.0072 149.928 31.2207 149.738 31.3407C149.547 31.4613 149.306 31.5214 149.015 31.5214H148.377C147.794 31.5214 147.469 31.2479 147.402 30.7004L145.924 17.7617L138.968 30.7004C138.676 31.2479 138.24 31.5214 137.657 31.5214H136.985C136.694 31.5214 136.481 31.4557 136.347 31.3243C136.212 31.193 136.123 30.9852 136.078 30.7004L134.633 15.2003C134.61 14.9817 134.667 14.8011 134.801 14.6584C134.935 14.5163 135.137 14.445 135.406 14.445H135.977C136.38 14.445 136.604 14.6092 136.649 14.9376L137.893 28.5987L145.151 15.1018C145.374 14.6641 145.699 14.445 146.125 14.445H146.932C147.38 14.445 147.626 14.6641 147.671 15.1018L149.183 28.5987L156.307 14.9376Z" fill="white"/>
<path d="M159.163 31.3243C159.006 31.4557 158.815 31.5213 158.592 31.5213H158.021C157.796 31.5213 157.628 31.4557 157.516 31.3243C157.404 31.1929 157.37 31.018 157.416 30.7989L160.81 15.1674C160.854 14.9488 160.961 14.7733 161.129 14.642C161.297 14.5106 161.493 14.445 161.717 14.445H162.288C162.512 14.445 162.675 14.5106 162.775 14.642C162.876 14.7733 162.904 14.9488 162.859 15.1674L159.465 30.7989C159.42 31.018 159.319 31.1929 159.163 31.3243ZM164.002 10.7341C163.822 10.8655 163.621 10.9312 163.397 10.9312H162.12C161.896 10.9312 161.728 10.8655 161.616 10.7341C161.504 10.6028 161.47 10.4278 161.515 10.2087L161.818 8.96081C161.862 8.74223 161.963 8.56161 162.12 8.41896C162.277 8.27683 162.467 8.20551 162.691 8.20551H163.968C164.192 8.20551 164.366 8.27683 164.489 8.41896C164.612 8.56161 164.651 8.74223 164.607 8.96081L164.304 10.2087C164.282 10.4278 164.181 10.6028 164.002 10.7341Z" fill="white"/>
<path d="M163.968 37.0387C163.923 37.2572 163.822 37.4327 163.666 37.5641C163.509 37.6955 163.318 37.7611 163.094 37.7611H162.523C162.3 37.7611 162.132 37.6955 162.019 37.5641C161.907 37.4327 161.874 37.2572 161.918 37.0387L166.69 15.1678C166.735 14.9492 166.835 14.7737 166.992 14.6423C167.149 14.511 167.34 14.4453 167.564 14.4453H168.135C168.359 14.4453 168.527 14.511 168.639 14.6423C168.751 14.7737 168.784 14.9492 168.74 15.1678L168.404 16.7112C169.21 15.8574 170.056 15.2119 170.941 14.7737C171.826 14.336 172.951 14.1169 174.318 14.1169C176.379 14.1169 177.874 14.6916 178.804 15.841C179.733 16.9903 180.198 18.463 180.198 20.2578C180.198 20.9367 180.153 21.5386 180.064 22.064C179.997 22.5022 179.862 23.1149 179.661 23.903C179.056 26.1802 178.053 28.0736 176.653 29.5842C175.253 31.0948 173.321 31.8501 170.857 31.8501C168.325 31.8501 166.6 30.9855 165.682 29.2558L163.968 37.0387ZM166.589 25.6763C166.589 26.9027 166.936 27.9207 167.631 28.7304C168.325 29.5406 169.4 29.9454 170.857 29.9454C172.559 29.9454 173.97 29.3764 175.091 28.2378C176.211 27.0997 177.04 25.6548 177.577 23.903C177.734 23.3776 177.868 22.7649 177.981 22.064C178.092 21.3415 178.149 20.7176 178.149 20.1922C178.149 17.4121 176.872 16.0216 174.318 16.0216C173.108 16.0216 172.01 16.3064 171.025 16.8754C170.039 17.445 169.232 18.1726 168.605 19.0592C167.978 19.9459 167.541 20.8602 167.295 21.8013C167.138 22.4145 166.947 23.2683 166.724 24.3627C166.634 24.9323 166.589 25.37 166.589 25.6763Z" fill="white"/>
<path d="M195.454 15.6604C196.484 16.6897 197 18.1454 197 20.028C197 20.9259 196.91 21.7797 196.731 22.5894L196.63 23.082C196.585 23.3011 196.473 23.4761 196.294 23.6074C196.115 23.7388 195.913 23.8045 195.689 23.8045H183.727C183.592 24.4833 183.525 25.1509 183.525 25.8077C183.525 28.5662 184.847 29.9454 187.49 29.9454C188.543 29.9454 189.439 29.8197 190.178 29.5677C190.918 29.3163 191.466 29.048 191.825 28.7632C192.183 28.4789 192.531 28.1613 192.867 27.8109C193.113 27.5481 193.292 27.3839 193.404 27.3183C193.516 27.2526 193.707 27.2197 193.976 27.2197H194.513C194.715 27.2197 194.877 27.2803 195 27.4004C195.123 27.5209 195.152 27.6795 195.084 27.8765C194.95 28.3804 194.575 28.9387 193.959 29.5513C193.342 30.1645 192.485 30.7007 191.388 31.1604C190.29 31.6202 188.991 31.8501 187.49 31.8501C185.676 31.8501 184.214 31.2867 183.105 30.1589C181.996 29.0316 181.442 27.5374 181.442 25.6763C181.442 25.2386 181.475 24.7789 181.542 24.2971C181.654 23.6403 181.845 22.7649 182.114 21.6699C182.696 19.4153 183.794 17.5927 185.407 16.2022C187.02 14.8122 188.868 14.1169 190.951 14.1169C192.922 14.1169 194.423 14.6316 195.454 15.6604ZM195.051 20.028C195.051 18.8021 194.709 17.8277 194.026 17.1053C193.342 16.3828 192.317 16.0216 190.951 16.0216C189.853 16.0216 188.829 16.2843 187.877 16.8097C186.924 17.3352 186.123 18.0525 185.474 18.9607C184.824 19.8694 184.376 20.871 184.13 21.9655H194.816C194.972 21.3308 195.051 20.6847 195.051 20.028Z" fill="white"/>
<path d="M68.8722 9.42026C69.0738 9.15754 69.2697 8.94409 69.4602 8.77989C69.6503 8.6157 69.9359 8.5336 70.3171 8.5336H72.6021C72.8484 8.5336 73.061 8.62135 73.2406 8.79631C73.4196 8.97181 73.5094 9.17961 73.5094 9.42026V30.6344C73.5094 30.8755 73.4196 31.0834 73.2406 31.2583C73.061 31.4338 72.8484 31.521 72.6021 31.521H69.8803C69.6336 31.521 69.421 31.4338 69.2418 31.2583C69.0623 31.0834 68.973 30.8755 68.973 30.6344V17.7943L64.6046 25.1831C64.246 25.7306 63.8317 26.004 63.3613 26.004H61.6139C61.1435 26.004 60.7287 25.7306 60.3706 25.1831L56.0022 17.7943V30.6344C56.0022 30.8755 55.9124 31.0834 55.7334 31.2583C55.5538 31.4338 55.3412 31.521 55.0949 31.521H52.3731C52.1263 31.521 51.9137 31.4338 51.7346 31.2583C51.5551 31.0834 51.4658 30.8755 51.4658 30.6344V9.42026C51.4658 9.17961 51.5551 8.97181 51.7346 8.79631C51.9137 8.62135 52.1263 8.5336 52.3731 8.5336H54.6581C55.0388 8.5336 55.3244 8.6157 55.515 8.77989C55.705 8.94409 55.9014 9.15754 56.103 9.42026L62.4876 20.2572L68.8722 9.42026Z" fill="white"/>
<path d="M89.454 15.8902C90.8092 17.0724 91.487 18.7693 91.487 20.9803V30.635C91.487 30.8762 91.3972 31.084 91.2182 31.259C91.0386 31.4345 90.826 31.5217 90.5797 31.5217H88.0259C87.7791 31.5217 87.5665 31.4345 87.3874 31.259C87.2079 31.084 87.1186 30.8762 87.1186 30.635V29.5513C86.603 30.2522 85.8921 30.8105 84.9848 31.2261C84.0775 31.6417 82.9854 31.8501 81.7085 31.8501C79.8268 31.8501 78.3367 31.3739 77.2393 30.4216C76.1414 29.4692 75.5928 28.2378 75.5928 26.7272C75.5928 25.2607 76.1246 24.0949 77.1889 23.2298C78.2527 22.3652 79.737 21.7684 81.6413 21.44L87.1186 20.5206C87.1186 19.6888 86.833 19.0705 86.2617 18.6651C85.6905 18.2603 84.9229 18.0576 83.9599 18.0576C83.4443 18.0576 83.0243 18.1289 82.6998 18.2711C82.3748 18.4137 82.0556 18.6272 81.7421 18.9114C81.4061 19.2183 81.0365 19.3712 80.6332 19.3712H77.5081C77.2839 19.3712 77.0991 19.3004 76.9537 19.1577C76.8077 19.0156 76.7463 18.8458 76.7689 18.6487C76.9033 17.9704 77.2561 17.2808 77.8274 16.5799C78.3986 15.8795 79.2051 15.294 80.2468 14.823C81.2885 14.3524 82.526 14.1169 83.9599 14.1169C86.267 14.1169 88.0983 14.708 89.454 15.8902ZM87.1186 23.903L82.5486 24.6911C81.6523 24.8446 80.9971 25.0688 80.5828 25.3643C80.168 25.6599 79.9612 26.0596 79.9612 26.563C79.9612 27.0012 80.1906 27.3347 80.65 27.5646C81.1089 27.7944 81.6859 27.9094 82.3806 27.9094C83.3661 27.9094 84.2172 27.7344 84.9344 27.3839C85.6511 27.034 86.1945 26.5794 86.5642 26.0211C86.9338 25.4628 87.1186 24.8666 87.1186 24.2314V23.903Z" fill="white"/>
<path d="M98.6445 36.8745C98.6445 37.1151 98.5547 37.3229 98.3757 37.4984C98.1961 37.6734 97.9835 37.7611 97.7372 37.7611H95.1834C94.9366 37.7611 94.724 37.6734 94.5449 37.4984C94.3654 37.3229 94.2761 37.1151 94.2761 36.8745V15.332C94.2761 15.0913 94.3654 14.8835 94.5449 14.708C94.724 14.5331 94.9366 14.4453 95.1834 14.4453H97.7372C97.9835 14.4453 98.1961 14.5331 98.3757 14.708C98.5547 14.8835 98.6445 15.0913 98.6445 15.332V16.0873C99.115 15.5618 99.7644 15.1021 100.593 14.708C101.422 14.3139 102.464 14.1169 103.719 14.1169C105.175 14.1169 106.457 14.473 107.566 15.1842C108.675 15.8959 109.543 16.8374 110.17 18.0084C110.797 19.1798 111.145 20.4549 111.212 21.8341C111.234 22.0532 111.246 22.4365 111.246 22.9835C111.246 23.531 111.234 23.9143 111.212 24.1329C111.145 25.5121 110.797 26.7877 110.17 27.9586C109.543 29.1301 108.675 30.0716 107.566 30.7828C106.457 31.4945 105.175 31.8501 103.719 31.8501C102.486 31.8501 101.456 31.653 100.627 31.259C99.798 30.8649 99.137 30.4052 98.6445 29.8797V36.8745ZM105.768 19.2727C105.007 18.463 103.987 18.0576 102.71 18.0576C101.59 18.0576 100.661 18.3809 99.9214 19.0264C99.1822 19.6724 98.7563 20.5755 98.6445 21.7356C98.6219 21.9547 98.6109 22.3708 98.6109 22.9835C98.6109 23.5967 98.6219 24.0128 98.6445 24.2314C98.7563 25.3479 99.1874 26.2402 99.9382 26.9078C100.689 27.5759 101.613 27.9094 102.71 27.9094C103.853 27.9094 104.794 27.581 105.533 26.9242C106.272 26.2674 106.709 25.2607 106.844 23.903C106.888 23.4653 106.911 23.159 106.911 22.9835C106.911 21.32 106.53 20.0829 105.768 19.2727Z" fill="white"/>
<defs>
<radialGradient id="paint0_radial_222_28" cx="0" cy="0" r="1" gradientUnits="userSpaceOnUse" gradientTransform="translate(22.2239 14.8066) scale(32.476 32.616)">
<stop stop-color="#D18E38"/>
<stop offset="1" stop-color="#BD4927"/>
</radialGradient>
<radialGradient id="paint1_radial_222_28" cx="0" cy="0" r="1" gradientUnits="userSpaceOnUse" gradientTransform="translate(23.0373 14.8019) scale(31.9857 32.1236)">
<stop stop-color="#D53924"/>
<stop offset="1" stop-color="#C30011"/>
</radialGradient>
<radialGradient id="paint2_radial_222_28" cx="0" cy="0" r="1" gradientUnits="userSpaceOnUse" gradientTransform="translate(21.7055 15.6463) scale(33.4707 33.615)">
<stop stop-color="#6A9DB6"/>
<stop offset="1" stop-color="#2E55AF"/>
</radialGradient>
<radialGradient id="paint3_radial_222_28" cx="0" cy="0" r="1" gradientUnits="userSpaceOnUse" gradientTransform="translate(38.7364 14.336) scale(16.2857 16.3559)">
<stop stop-color="#9CAD4C"/>
<stop offset="1" stop-color="#73633D"/>
</radialGradient>
<radialGradient id="paint4_radial_222_28" cx="0" cy="0" r="1" gradientUnits="userSpaceOnUse" gradientTransform="translate(21.31 14.4541) scale(33.4224 33.5664)">
<stop stop-color="#71BEE6"/>
<stop offset="1" stop-color="#3871E4"/>
</radialGradient>
<radialGradient id="paint5_radial_222_28" cx="0" cy="0" r="1" gradientUnits="userSpaceOnUse" gradientTransform="translate(23.4019 14.7033) scale(31.0365 31.1703)">
<stop stop-color="#FF3924"/>
<stop offset="1" stop-color="#FF0011"/>
</radialGradient>
<radialGradient id="paint6_radial_222_28" cx="0" cy="0" r="1" gradientUnits="userSpaceOnUse" gradientTransform="translate(21.1628 22.3465) scale(21.4331 21.5255)">
<stop stop-color="#FDF240"/>
<stop offset="0.2407" stop-color="#FDDB3C"/>
<stop offset="0.7444" stop-color="#FCAF33"/>
<stop offset="1" stop-color="#FC9E30"/>
</radialGradient>
<linearGradient id="paint7_linear_222_28" x1="22.9154" y1="12.2457" x2="51.1346" y2="4.43602" gradientUnits="userSpaceOnUse">
<stop stop-color="#B2D25A"/>
<stop offset="0.2455" stop-color="#ACC457"/>
<stop offset="0.7116" stop-color="#9D9E51"/>
<stop offset="1" stop-color="#93834C"/>
</linearGradient>
<linearGradient id="paint8_linear_222_28" x1="22.3101" y1="14.3518" x2="48.8679" y2="31.8085" gradientUnits="userSpaceOnUse">
<stop stop-color="#F9AB3E"/>
<stop offset="1" stop-color="#F7612D"/>
</linearGradient>
<radialGradient id="paint9_radial_222_28" cx="0" cy="0" r="1" gradientUnits="userSpaceOnUse" gradientTransform="translate(25.9834 27.5403) scale(49.1573 49.3692)">
<stop stop-color="#563924"/>
<stop offset="1" stop-color="#110011"/>
</radialGradient>
<radialGradient id="paint10_radial_222_28" cx="0" cy="0" r="1" gradientUnits="userSpaceOnUse" gradientTransform="translate(21.6102 15.1105) rotate(-64.6656) scale(47.8534 47.7234)">
<stop stop-color="#EDF7FB"/>
<stop offset="0.1904" stop-color="#EDF2FB"/>
<stop offset="0.4306" stop-color="#ECE2FB"/>
<stop offset="0.6976" stop-color="#EAC8FB"/>
<stop offset="0.9822" stop-color="#E7A4FB"/>
<stop offset="1" stop-color="#E7A2FB"/>
</radialGradient>
</defs>
</svg>
