<svg width="716" height="728" viewBox="0 0 716 728" fill="none" xmlns="http://www.w3.org/2000/svg">
<path d="M432.496 402.587L376.915 375.071L237.689 514.848L302.074 562.174L432.496 402.587Z" fill="white" stroke="black" stroke-width="2.64799"/>
<path d="M417.48 710.544C432.694 672.262 477.441 545.333 547.105 494.865C494.786 439.82 410.783 445.632 375.321 455.418C382.498 438.357 354.518 430.566 331.598 412.817C313.262 398.618 306.623 374.074 305.595 363.576C291.799 366.411 255.954 386.584 222.945 444.595C189.936 502.605 125.194 502.187 96.9484 494.727C108.08 542.267 188.812 589.996 227.787 607.917C229.819 611.071 235.243 617.555 240.674 618.263C246.104 618.971 245.889 610.278 245.102 605.843C276.232 606.055 379.977 684.021 417.48 710.544Z" fill="#CDE5FF"/>
<path d="M229.345 606.441C203.48 588.378 149.515 527.953 140.578 430.763L319.086 317.091C321.943 386.226 384.182 424.158 376.259 455.184" stroke="black" stroke-width="2.97266"/>
<path d="M374.994 455.901C455.874 396.49 524.995 442.668 549.446 473.184C496.8 514.231 441.393 560.341 420.213 632.375C330.182 547.802 264.506 574.928 242.298 599.577C282.906 535.98 347.682 477.294 374.994 455.901Z" fill="#CDE5FF"/>
<path d="M241.752 600.192C241.931 599.987 242.113 599.782 242.298 599.577M242.298 599.577C264.506 574.928 330.182 547.802 420.213 632.375C441.393 560.341 496.8 514.231 549.446 473.184C524.995 442.668 455.874 396.49 374.994 455.901C347.682 477.294 282.906 535.98 242.298 599.577Z" stroke="black" stroke-width="2.97266"/>
<path d="M530.364 500.603C494.026 533.213 439.806 584.882 409.826 683.115C391.534 661.866 325.47 604.006 261.91 603.421C283.469 597.122 343.042 596.071 408.864 642.266" stroke="white" stroke-width="2.97266"/>
<path d="M452.808 518.233C468.409 488.812 496.531 473.76 508.641 469.912C478.936 445.062 427.873 449.021 418.817 451.466C411.572 453.421 376.983 491.44 367.033 503.963C399.873 497.634 437.899 510.839 452.808 518.233Z" fill="#CDE5FF"/>
<path d="M508.641 469.912C496.531 473.76 468.409 488.812 452.808 518.233M508.641 469.912C478.936 445.062 427.873 449.021 418.817 451.466M508.641 469.912C458.432 460.331 393.315 488.62 367.033 503.963M452.808 518.233C437.899 510.839 399.873 497.634 367.033 503.963M452.808 518.233C451.852 478.53 429.749 457.179 418.817 451.466M367.033 503.963C376.983 491.44 411.572 453.421 418.817 451.466" stroke="black" stroke-width="2.97266"/>
<path d="M441.62 536.723C429.24 529.266 396.068 515.708 362.416 521.135" stroke="black" stroke-width="2.97266"/>
<path d="M425.186 551.342C412.806 543.885 379.634 530.327 345.982 535.754" stroke="black" stroke-width="2.97266"/>
<path d="M413.705 580.759C405.28 564.331 361.951 544.676 328.299 550.103" stroke="black" stroke-width="2.97266"/>
<path d="M226.001 607.185C194.462 599.331 123.394 568.277 91.4352 506.888" stroke="black" stroke-width="2.97266"/>
<path d="M224.926 606.953C192.673 602.934 118.398 580.616 79.3147 523.498" stroke="black" stroke-width="2.97266"/>
<path d="M497.26 526.756C563.314 517.137 580.896 442.051 581.43 405.711C607.907 347.137 662.861 263.827 670.863 399.179C678.866 534.531 529.799 603.163 454.265 620.561L487.321 564.889L454.701 558.8C441.364 552.127 431.206 536.376 497.26 526.756Z" fill="white" stroke="black" stroke-width="2.64799"/>
<mask id="path-15-inside-1_1099_467" fill="white">
<path d="M418.34 260.891C445.818 363.442 486.293 373.194 604.676 343.266C711.229 309.336 721.169 254.89 645.633 185.186C592.034 135.724 601.083 22.7944 477.48 39.976C416.503 56.3145 374.588 104.301 418.34 260.891Z"/>
</mask>
<path d="M418.34 260.891C445.818 363.442 486.293 373.194 604.676 343.266C711.229 309.336 721.169 254.89 645.633 185.186C592.034 135.724 601.083 22.7944 477.48 39.976C416.503 56.3145 374.588 104.301 418.34 260.891Z" fill="white"/>
<path d="M418.34 260.891L421.198 260.093L421.202 260.108L421.206 260.123L418.34 260.891ZM604.676 343.266L605.576 346.094L605.49 346.121L605.403 346.143L604.676 343.266ZM645.633 185.186L647.646 183.005L647.646 183.005L645.633 185.186ZM477.48 39.976L476.712 37.1096L476.889 37.0621L477.071 37.0368L477.48 39.976ZM421.206 260.123C434.908 311.259 451.577 338.059 478.535 349.009C492.121 354.527 508.623 356.156 529.242 354.484C549.864 352.812 574.4 347.859 603.949 340.389L605.403 346.143C575.76 353.637 550.843 358.687 529.722 360.4C508.598 362.112 491.067 360.505 476.302 354.507C446.557 342.426 429.25 313.074 415.473 261.659L421.206 260.123ZM603.775 340.438C630.239 332.012 650.502 322.371 664.878 311.673C679.237 300.989 687.579 289.366 690.552 276.95C696.499 252.118 681.314 222.15 643.621 187.367L647.646 183.005C685.488 217.926 703.101 250.034 696.324 278.332C692.935 292.483 683.534 305.189 668.421 316.435C653.326 327.667 632.389 337.555 605.576 346.094L603.775 340.438ZM643.621 187.367C629.804 174.616 620.124 157.873 611.474 140.539C602.741 123.04 595.135 105.133 585.282 89.1467C575.494 73.2671 563.716 59.7046 547.003 51.0993C530.307 42.5028 508.347 38.6813 477.888 42.9152L477.071 37.0368C508.414 32.6799 531.674 36.5316 549.72 45.8227C567.748 55.1051 580.234 69.6448 590.334 86.0327C600.369 102.314 608.276 120.84 616.784 137.889C625.375 155.103 634.663 171.024 647.646 183.005L643.621 187.367ZM478.248 42.8423C448.349 50.8537 423.604 66.4484 411.415 98.8831C399.119 131.601 399.376 181.99 421.198 260.093L415.482 261.69C393.552 183.202 392.891 131.303 405.859 96.7953C418.934 62.0046 445.634 45.4368 476.712 37.1096L478.248 42.8423Z" fill="black" mask="url(#path-15-inside-1_1099_467)"/>
<path d="M538.259 204.602C559.622 202.623 608.994 208.745 635.584 249.062C662.175 289.378 674.091 356.888 676.725 385.604C679.359 414.319 611.951 413.833 578.827 405.284C580.176 412.05 578.75 425.282 578.75 425.282C553.166 431.906 500.94 440.703 482.475 426.512C471.187 417.837 462.241 393.934 456.124 370.791C456.124 370.791 446 408.744 426.15 417.197C393.95 430.909 338.2 403.084 359.855 356.893C381.51 310.703 437.394 215.475 488.033 205.849C522.293 199.336 535.087 198.436 538.259 204.602Z" fill="#FAB443"/>
<path d="M456.243 372.094C456.243 372.094 445.252 345.617 441.516 327.759C437.829 310.135 437.222 281.854 437.222 281.854" stroke="black" stroke-width="2.96747" stroke-linecap="round"/>
<path d="M676.634 391.175C656.221 420.569 573.654 402.799 573.654 402.799L555.582 301.955" stroke="black" stroke-width="2.96747" stroke-linecap="round"/>
<path d="M505.715 97.3069C483.58 121.252 464.245 121.252 446.748 109.804C448.248 124.842 436.493 126.562 436.991 133.201C437.389 138.512 441.091 141.03 445.093 140.259C449.449 192.947 492.102 187.766 512.883 178.59L497.536 187.05C500.18 196.605 494.372 197.231 492.514 204.973C491.939 211.975 495.351 225.704 513.599 224.609C531.846 223.514 540.672 211.372 542.804 205.438L534.01 145.871C559.166 145.455 559.498 121.15 549.869 118.245C540.239 115.339 544.92 127.002 528.874 124.979C516.038 123.361 508.086 105.857 505.715 97.3069Z" fill="white" stroke="black" stroke-width="2.96747" stroke-linecap="round" stroke-linejoin="round"/>
<path d="M458.044 154.338C461.233 151.382 469.594 147.31 477.529 154.673" stroke="black" stroke-width="2.96747" stroke-linecap="round" stroke-linejoin="round"/>
<path d="M292.527 390.48C270.71 373.208 266.013 281.773 266.392 238.214C226.393 177.308 104.278 180.262 48.2197 189.353C117.307 192.08 92.9148 301.848 72.0824 356.391C113.899 312.756 236.469 360.936 292.527 390.48Z" stroke="black" stroke-width="2.64799"/>
<path d="M57.0755 122.471C70.9149 127.608 89.1678 127.916 108.27 119.747C99.4854 112.792 97.5943 75.9777 97.7467 58.4396C72.9261 72.0798 44.3402 70.3983 9.90374 38.7664C3.77723 45.0545 1.45265 54.5628 1.9769 63.9178M57.0755 122.471C41.0444 116.522 30.9355 104.093 32.2893 90.8568C15.7801 101.175 3.03843 82.8604 1.9769 63.9178M57.0755 122.471C41.5764 116.416 2.38001 107.8 1.9769 63.9178" stroke="black" stroke-width="2.64799"/>
</svg>
