<?xml version="1.0" encoding="UTF-8" standalone="no"?>
<svg
   width="521"
   height="258"
   viewBox="0 0 521 258"
   fill="none"
   version="1.1"
   id="svg468"
   xmlns="http://www.w3.org/2000/svg"
   xmlns:svg="http://www.w3.org/2000/svg">
  <rect
     width="800"
     height="800"
     fill="#ffffff"
     id="rect437"
     x="-139.5"
     y="-271" />
  <g
     clip-path="url(#clip0_141_2)"
     id="g461"
     transform="translate(-139.5,-271)">
    <rect
       width="521"
       height="258"
       transform="translate(139.5,271)"
       fill="#d7f29e"
       id="rect441"
       x="0"
       y="0" />
    <path
       opacity="0.5"
       d="m 18.2895,553.048 c -2.3535,27.653 12.503,45.599 -41.1864,45.599 -53.6893,0 -16.6593,-158.958 -15.4448,-261.092 0.7421,-62.417 -42.568,-124.169 8.8256,-159.597 4.664,-3.215 7.3126,-5.086 12.503,-7.355 27.9797,-12.234 44.4835,21.657 75.018,22.064 61.8291,0.825 84.6151,-121.9814 133.8561,-84.579 7.116,5.405 11.924,8.323 16.18,16.18 4.723,8.72 -1.136,16.788 4.413,25.006 8.437,12.497 25.251,11.278 36.773,11.768 11.523,0.49 6.144,25.304 21.329,38.244 9.589,8.172 35.86,2.22 44.864,11.032 22.953,22.467 -44.864,13.239 -44.864,39.716 0,26.477 59.421,25.496 38.98,49.276 -31.351,36.474 43.308,24.451 50.012,72.077 3.283,23.324 -50.012,108.114 -50.012,108.114 4.413,13.974 -64.371,-0.121 -87.521,9.561 -27.967,11.697 -12.701,43.63 -42.657,38.98 -28.559,-4.433 -37.315,-31.93 -66.193,-33.096 -18.2408,-0.737 -25.4266,25.273 -41.9216,33.096 -24.2252,11.489 -50.6004,-2.648 -52.9539,25.006 z"
       fill="#afcd6f"
       id="path443" />
    <path
       d="m 622.672,330.61 c -17.89,-21.218 -41.085,-23.403 -3.121,-61.367 37.964,-37.964 124.181,100.621 195.542,173.699 43.611,44.661 117.9,57.701 106.611,119.093 -1.024,5.572 -1.575,8.767 -3.64,14.042 -11.134,28.435 -46.768,16.141 -68.648,37.444 -44.303,43.136 26.422,146.086 -34.843,154.456 -8.854,1.21 -14.317,2.547 -22.883,0 -9.505,-2.825 -11.067,-12.673 -20.802,-14.561 -14.803,-2.871 -25.83,9.881 -34.324,17.682 -8.494,7.801 -22.237,-13.548 -42.125,-11.962 -12.558,1.002 -26.926,23.788 -39.524,23.923 -32.116,0.344 -4.051,-20.189 -22.773,-38.911 -18.722,-18.722 -30.674,31.639 -61.045,23.829 C 469.215,741.78 397.168,642.088 418.855,536.745 c 12.635,-61.373 95.482,6.382 105.006,-16.834 11.505,-28.047 -21.87,-39.832 2.6,-57.727 23.329,-17.06 -11.175,-62.499 10.069,-82.094 13.42,-12.377 37.996,-13.694 44.129,-30.89 9.006,-25.253 59.903,2.628 42.013,-18.59 z"
       fill="#afcd6f"
       id="path445" />
    <path
       fill-rule="evenodd"
       clip-rule="evenodd"
       d="m 46.161,338.949 c 47.9786,56.082 99.712,87.581 155.403,101.639 89.198,22.517 187.038,-0.149 292.848,-33.831 133.819,-42.598 219.515,10.545 244.724,40.272 l 13.728,-11.642 C 722.88,400.029 629.579,344.84 488.952,389.605 388.516,421.576 299.287,442.104 218.865,426.047 l -19.664,-4.719 C 150.024,407.477 103.66,378.471 59.8387,327.248 Z"
       fill="#8b7555"
       id="path447" />
    <path
       d="M 752.839,537.909 C 704.86,593.992 653.127,625.49 597.436,639.548 508.238,662.065 410.398,639.399 304.588,605.717 170.769,563.119 85.0729,616.262 59.8643,645.989 L 46.1358,634.348 C 70.4232,605.706 136.254,564.054 235.131,573.053 l 35.154,5.159 c 12.795,2.575 26.054,5.989 39.763,10.353 101.305,32.248 191.207,52.853 272.171,36.017 33.271,-7.893 111.24,-38.617 156.942,-98.374 z"
       fill="#8b7555"
       id="path449" />
    <rect
       x="404.099"
       y="329.03601"
       width="53.6894"
       height="93.4048"
       rx="11"
       transform="rotate(-60,404.099,329.036)"
       fill="#3d5609"
       id="rect451" />
    <rect
       x="530.41498"
       y="366.88599"
       width="34.233898"
       height="35.442402"
       rx="7"
       transform="rotate(-105,530.415,366.886)"
       fill="#3d5609"
       id="rect453" />
    <rect
       opacity="0.5"
       x="222.894"
       y="512.71503"
       width="38.3456"
       height="41.088902"
       rx="7"
       transform="rotate(15,222.894,512.715)"
       fill="#3d5609"
       id="rect455" />
    <path
       d="m 162.622,320.023 h -3.954 l 6.025,-17.455 h 4.756 l 6.017,17.455 h -3.955 l -4.372,-13.466 h -0.136 z m -0.247,-6.861 h 9.341 v 2.881 h -9.341 z m 21.929,-6.23 v 2.727 h -8.08 v -2.727 z m -6.23,13.091 v -14.037 c 0,-0.949 0.184,-1.736 0.554,-2.361 0.375,-0.625 0.886,-1.094 1.534,-1.406 0.648,-0.313 1.383,-0.469 2.207,-0.469 0.557,0 1.066,0.043 1.526,0.128 0.466,0.085 0.812,0.162 1.04,0.23 l -0.648,2.727 c -0.142,-0.045 -0.318,-0.088 -0.529,-0.127 -0.204,-0.04 -0.414,-0.06 -0.63,-0.06 -0.534,0 -0.906,0.125 -1.117,0.375 -0.21,0.244 -0.315,0.588 -0.315,1.031 v 13.969 z m 15.411,-13.091 v 2.727 h -7.883 v -2.727 z m -6.094,-3.136 h 3.631 V 316 c 0,0.335 0.051,0.597 0.153,0.784 0.103,0.182 0.245,0.31 0.427,0.384 0.187,0.074 0.403,0.111 0.647,0.111 0.171,0 0.341,-0.015 0.512,-0.043 0.17,-0.034 0.301,-0.06 0.392,-0.077 l 0.571,2.702 c -0.182,0.057 -0.438,0.122 -0.767,0.196 -0.33,0.08 -0.73,0.128 -1.202,0.145 -0.875,0.034 -1.642,-0.082 -2.301,-0.35 -0.654,-0.267 -1.162,-0.681 -1.526,-1.244 -0.363,-0.562 -0.542,-1.273 -0.537,-2.131 z m 14.284,16.483 c -1.346,0 -2.505,-0.273 -3.477,-0.819 -0.966,-0.551 -1.71,-1.329 -2.233,-2.335 -0.523,-1.011 -0.784,-2.207 -0.784,-3.588 0,-1.346 0.261,-2.528 0.784,-3.545 0.523,-1.017 1.259,-1.81 2.208,-2.378 0.954,-0.568 2.073,-0.852 3.358,-0.852 0.863,0 1.667,0.139 2.411,0.417 0.75,0.273 1.404,0.685 1.961,1.236 0.562,0.551 1,1.244 1.312,2.08 0.313,0.829 0.469,1.801 0.469,2.914 v 0.997 H 196.63 v -2.25 h 7.636 c 0,-0.522 -0.113,-0.985 -0.341,-1.389 -0.227,-0.403 -0.542,-0.718 -0.946,-0.946 -0.397,-0.233 -0.86,-0.349 -1.389,-0.349 -0.551,0 -1.04,0.128 -1.466,0.383 -0.42,0.25 -0.75,0.588 -0.988,1.015 -0.239,0.42 -0.361,0.889 -0.367,1.406 v 2.139 c 0,0.648 0.119,1.207 0.358,1.679 0.244,0.472 0.588,0.835 1.031,1.091 0.444,0.256 0.969,0.383 1.577,0.383 0.403,0 0.773,-0.056 1.108,-0.17 0.335,-0.114 0.622,-0.284 0.861,-0.511 0.238,-0.228 0.42,-0.506 0.545,-0.836 l 3.358,0.222 c -0.17,0.807 -0.52,1.511 -1.048,2.114 -0.523,0.596 -1.199,1.062 -2.028,1.397 -0.824,0.33 -1.776,0.495 -2.856,0.495 z m 8.378,-0.256 v -13.091 h 3.52 v 2.284 h 0.136 c 0.239,-0.812 0.64,-1.426 1.202,-1.841 0.563,-0.42 1.21,-0.63 1.943,-0.63 0.182,0 0.378,0.011 0.588,0.034 0.211,0.022 0.395,0.054 0.554,0.093 v 3.222 c -0.17,-0.051 -0.406,-0.097 -0.707,-0.136 -0.301,-0.04 -0.577,-0.06 -0.827,-0.06 -0.534,0 -1.011,0.116 -1.431,0.349 -0.415,0.228 -0.745,0.546 -0.989,0.955 -0.239,0.409 -0.358,0.881 -0.358,1.415 v 7.406 z"
       fill="black"
       id="path457"
       style="fill:#666666" />
    <path
       fill-rule="evenodd"
       clip-rule="evenodd"
       d="M 340.719,512.571 C 282.252,511.052 210.297,497.324 117.091,462.546 l 9.439,-25.296 c 91.165,34.016 160.124,46.907 214.89,48.33 54.596,1.418 95.711,-8.541 131.384,-21.093 13.74,-4.835 26.929,-10.22 39.963,-15.542 53.781,-21.961 104.911,-42.838 181.082,-19.45 l -7.925,25.811 c -66.264,-20.346 -107.451,-3.667 -159.947,17.593 -13.744,5.566 -28.263,11.446 -44.211,17.057 -37.973,13.362 -82.41,24.138 -141.047,22.615 z"
       fill="#71bff8"
       id="path459" />
  </g>
  <defs
     id="defs466">
    <clipPath
       id="clip0_141_2">
      <rect
         width="521"
         height="258"
         fill="#ffffff"
         transform="translate(139.5,271)"
         id="rect463"
         x="0"
         y="0" />
    </clipPath>
  </defs>
</svg>
