<svg xmlns="http://www.w3.org/2000/svg" xmlns:xlink="http://www.w3.org/1999/xlink" viewBox="0 0 221.11 76.12">
  <defs>
    <style>
      .cls-1 {
        fill: none;
      }

      .cls-2 {
        isolation: isolate;
      }

      .cls-3, .cls-9 {
        mix-blend-mode: multiply;
      }

      .cls-3 {
        fill: url(#radial-gradient);
      }

      .cls-4 {
        fill: #fff;
      }

      .cls-5, .cls-8 {
        opacity: 0.8;
      }

      .cls-5 {
        fill: url(#radial-gradient-2);
      }

      .cls-6 {
        opacity: 0.77;
      }

      .cls-7 {
        clip-path: url(#clip-path);
      }

      .cls-8 {
        fill: url(#radial-gradient-3);
      }

      .cls-10 {
        fill: #ed1b2e;
      }

      .cls-11 {
        fill: url(#linear-gradient);
      }

      .cls-12 {
        fill: #6d6e70;
      }
    </style>
    <radialGradient id="radial-gradient" cx="73.96" cy="59.03" r="35.1" gradientTransform="translate(81.97 76.44) rotate(6)" gradientUnits="userSpaceOnUse">
      <stop offset="0.7"/>
      <stop offset="1" stop-opacity="0"/>
    </radialGradient>
    <radialGradient id="radial-gradient-2" cx="72.03" cy="54.74" fy="37.37462835186711" r="33.67" gradientTransform="translate(82 76.18) rotate(6)" gradientUnits="userSpaceOnUse">
      <stop offset="0.06" stop-color="#fff"/>
      <stop offset="0.46" stop-color="#fdfdfd"/>
      <stop offset="0.6" stop-color="#f6f6f6"/>
      <stop offset="0.67" stop-color="#efefef"/>
      <stop offset="0.85" stop-color="#e0e0e0"/>
      <stop offset="0.97" stop-color="#c2c2c2"/>
      <stop offset="1" stop-color="#fff"/>
    </radialGradient>
    <clipPath id="clip-path" transform="translate(-111.76 -101.85)">
      <path class="cls-1" d="M180.73,142.32a33.18,33.18,0,1,1-29.53-36.47A33.18,33.18,0,0,1,180.73,142.32Z"/>
    </clipPath>
    <radialGradient id="radial-gradient-3" cx="371.34" cy="-376.43" fy="-394.9721704766211" r="35.94" gradientTransform="matrix(0.93, -0.36, 0.36, 0.94, -63.52, 623.15)" gradientUnits="userSpaceOnUse">
      <stop offset="0.06" stop-color="#fff"/>
      <stop offset="0.54" stop-color="#fdfdfd"/>
      <stop offset="0.71" stop-color="#f6f6f6"/>
      <stop offset="0.8" stop-color="#efefef"/>
      <stop offset="0.91" stop-color="#e0e0e0"/>
      <stop offset="0.94" stop-color="#c2c2c2"/>
      <stop offset="0.96" stop-color="#cacaca"/>
      <stop offset="0.98" stop-color="#fff"/>
      <stop offset="1" stop-color="#fff"/>
    </radialGradient>
    <linearGradient id="linear-gradient" x1="-139.27" y1="-100.08" x2="-139.27" y2="-36.27" gradientTransform="translate(175.27 105.34)" gradientUnits="userSpaceOnUse">
      <stop offset="0.38" stop-color="#fff"/>
      <stop offset="1" stop-color="#999"/>
    </linearGradient>
  </defs>
  <g class="cls-2">
    <g id="art">
      <g>
        <g>
          <path class="cls-3" d="M184.26,146.54A35.09,35.09,0,1,1,153,108,35.09,35.09,0,0,1,184.26,146.54Z" transform="translate(-111.76 -101.85)"/>
          <path class="cls-4" d="M180.73,142.32a33.17,33.17,0,1,1-29.53-36.47A33.18,33.18,0,0,1,180.73,142.32Z" transform="translate(-111.76 -101.85)"/>
          <path class="cls-5" d="M180.73,142.32a33.17,33.17,0,1,1-29.53-36.47A33.18,33.18,0,0,1,180.73,142.32Z" transform="translate(-111.76 -101.85)"/>
          <g class="cls-6">
            <g class="cls-7">
              <path class="cls-8" d="M180.23,124.55a35.41,35.41,0,1,1-45.78-20.32A35.42,35.42,0,0,1,180.23,124.55Z" transform="translate(-111.76 -101.85)"/>
            </g>
          </g>
          <g class="cls-9">
            <polygon class="cls-10" points="58.28 29.56 43.41 29.55 43.42 14.7 28.56 14.7 28.56 29.55 13.71 29.55 13.71 44.41 28.56 44.41 28.56 59.27 43.41 59.27 43.41 44.41 58.28 44.41 58.28 29.56"/>
          </g>
          <g class="cls-9">
            <polygon class="cls-11" points="58.28 29.56 43.41 29.55 43.42 14.7 28.56 14.7 28.56 29.55 13.71 29.55 13.71 44.41 28.56 44.41 28.56 59.27 43.41 59.27 43.41 44.41 58.28 44.41 58.28 29.56"/>
          </g>
        </g>
        <g>
          <g>
            <path class="cls-12" d="M214.34,136h6.09c-.19-.49-7-18.88-7.13-19.11h-6.46c-.09.23-7.12,18.61-7.3,19.11h6.07c.08-.24.91-2.86.91-2.86h6.93S214.27,135.77,214.34,136Zm-6.58-6.95,2.28-7.38,2.22,7.38Z" transform="translate(-111.76 -101.85)"/>
            <path class="cls-12" d="M231.24,127.6a4.87,4.87,0,0,1,.08.84V136h5.19v-7.49a3,3,0,0,1,.3-1.45,1.85,1.85,0,0,1,1.85-1c2.13,0,2.06,1.76,2.06,2.6V136h5.19v-9h0a5.1,5.1,0,0,0-1.27-4,5.32,5.32,0,0,0-3.76-1.34c-3.33,0-4.26,1.76-4.52,2.35l-.16.36L236,124a3.77,3.77,0,0,0-2.62-2,7,7,0,0,0-2.08-.31c-2.88,0-3.62,1.37-4.06,2.08l-.38.62V122h-4.95v14h5.2v-7.72a2.16,2.16,0,0,1,.58-1.6,2.07,2.07,0,0,1,1.54-.63A1.91,1.91,0,0,1,231.24,127.6Z" transform="translate(-111.76 -101.85)"/>
            <path class="cls-12" d="M258.55,130.87a2.9,2.9,0,0,1-2.71,1.93,2.49,2.49,0,0,1-1.81-.71,2.66,2.66,0,0,1-.73-2v-.21h9.8c-.06-2.1-.14-4.34-2.08-6.25a8.05,8.05,0,0,0-5.49-2.22,7.18,7.18,0,0,0-7.52,7.52,7.61,7.61,0,0,0,1.87,5.15,7.53,7.53,0,0,0,5.67,2.48,8.55,8.55,0,0,0,7.26-3.92Zm-5.19-4a2.29,2.29,0,0,1,2.3-2.13,2.06,2.06,0,0,1,2,1.58,2.66,2.66,0,0,1,.07.37l0,.42h-4.5Z" transform="translate(-111.76 -101.85)"/>
            <path class="cls-12" d="M270.07,121.9h-5V136h5.17v-6.62h0c0-.89.09-3.23,3.54-3.23.32,0,.83,0,1.14,0v-4.5a5.93,5.93,0,0,0-4.55,1.66l-.32.28Z" transform="translate(-111.76 -101.85)"/>
            <path class="cls-12" d="M276.82,116.92h5.56v3.69h-5.56Zm0,5.07h5.56v14h-5.56Z" transform="translate(-111.76 -101.85)"/>
            <path class="cls-12" d="M297.39,134.19a7,7,0,0,0,1.35-2l-4-2.21c-.29.92-1,2.45-2.65,2.45-1.18,0-2.59-.59-2.59-3.4,0-2.45,1-4,2.73-4,1.21,0,2.06.73,2.5,2.23.36-.19,3.72-2.1,4-2.26a7,7,0,0,0-1.11-1.41,8.05,8.05,0,0,0-5.68-2.29,7.69,7.69,0,0,0-5.66,2.2,7.77,7.77,0,0,0-1.94,5.35c0,4.53,2.85,7.65,7.27,7.65A7.87,7.87,0,0,0,297.39,134.19Z" transform="translate(-111.76 -101.85)"/>
            <path class="cls-12" d="M305.11,136.31A7.18,7.18,0,0,0,309.6,135l.32-.23V136h5a2.57,2.57,0,0,1-.33-1.56v-7.82a4.78,4.78,0,0,0-.79-3.07c-1-1.23-2.87-2-5.68-2a10.74,10.74,0,0,0-4.94,1,4.48,4.48,0,0,0-2.42,3.62l4.84-.12c.22-1.12.76-1.48,2-1.48,1.69,0,2.05.71,2.08,1.77v.15l-.14,0a17.59,17.59,0,0,1-3,.6c-2.34.31-3.88.51-5.13,1.79a3.86,3.86,0,0,0-1.14,2.86C300.24,133.89,301.52,136.31,305.11,136.31Zm1.17-5.9h0c.44-.14.88-.25,1.3-.34l.15,0c.54-.15,1.07-.34,1.58-.51l.31-.11v.26a3.45,3.45,0,0,1-.29,1.61,3.12,3.12,0,0,1-2.74,1.63c-1.15,0-1.57-.62-1.57-1.11C305,131.57,305.12,130.87,306.28,130.41Z" transform="translate(-111.76 -101.85)"/>
            <path class="cls-12" d="M326.72,128.33V136h5.2v-8.87c0-.75,0-3-1.35-4.27a5,5,0,0,0-3.58-1.25c-2.93,0-3.83,1.43-4.31,2.11l-.37.52V122h-4.89v14h5.19v-7.49a2.11,2.11,0,0,1,2.11-2.48C326.8,126,326.72,127.71,326.72,128.33Z" transform="translate(-111.76 -101.85)"/>
          </g>
          <g>
            <path class="cls-12" d="M212.68,153.59l.33-.14a5.61,5.61,0,0,0,2.27-1.37,5.27,5.27,0,0,0,1.4-3.78c0-1.93-.83-4.46-3.18-5.46a13.5,13.5,0,0,0-4.63-.58h-9.33v19.12h5.67v-6.92h2.09l3.82,6.92h6.26l-4.59-7.61Zm-4.76-2.87h-2.71v-4.64h2.68c.94,0,3.14,0,3.14,2.31S208.77,150.72,207.92,150.72Z" transform="translate(-111.76 -101.85)"/>
            <path class="cls-12" d="M234.11,154.05c0,4.56,2.4,7.68,6.12,7.68a5.63,5.63,0,0,0,2-.34,2.86,2.86,0,0,0,1.36-1L244,160v1.34h5V142.29H243.8v6.29l-.37-.33A4.46,4.46,0,0,0,240,147C237.09,147,234.11,149.29,234.11,154.05Zm7.47-3.29a2.29,2.29,0,0,1,2.13,1.75,5.76,5.76,0,0,1,.22,1.81,4.2,4.2,0,0,1-.79,2.9,2.2,2.2,0,0,1-1.53.67,2.14,2.14,0,0,1-1.55-.65,4.13,4.13,0,0,1-.83-2.89,8,8,0,0,1,.16-1.69h0A2.26,2.26,0,0,1,241.58,150.76Z" transform="translate(-111.76 -101.85)"/>
            <path class="cls-12" d="M228.12,156.27a2.9,2.9,0,0,1-2.71,1.92,2.53,2.53,0,0,1-1.81-.7,2.61,2.61,0,0,1-.72-2l0-.21h9.8c0-2.1-.14-4.34-2.08-6.25a8.05,8.05,0,0,0-5.49-2.22,7.18,7.18,0,0,0-7.52,7.52,7.39,7.39,0,0,0,7.55,7.62,8.56,8.56,0,0,0,7.25-3.91Zm-5.19-4a2.3,2.3,0,0,1,2.29-2.12,2.08,2.08,0,0,1,2.06,1.58c0,.16,0,.22.06.36l0,.43h-4.5Z" transform="translate(-111.76 -101.85)"/>
            <g>
              <path class="cls-12" d="M263,155.51a7.43,7.43,0,0,1-.93-3.92,6.15,6.15,0,0,1,1.49-4.43,3.73,3.73,0,0,1,2.7-1.08c2.58,0,3.64,2.15,4.12,3.27l4.77-2.38a10,10,0,0,0-1.62-2.32,10.35,10.35,0,0,0-7.51-3.06,9.23,9.23,0,0,0-7.23,3.22,11.26,11.26,0,0,0-2.49,7.13,10.73,10.73,0,0,0,2.35,6.88,9.35,9.35,0,0,0,7.37,3.16,10.29,10.29,0,0,0,7.28-2.8,11.67,11.67,0,0,0,1.89-2.77l-4.86-2.35c-.92,2.52-2.73,3.24-4,3.24A3.63,3.63,0,0,1,263,155.51Z" transform="translate(-111.76 -101.85)"/>
              <path class="cls-12" d="M301.29,148.79a9.3,9.3,0,0,0-11.78.19,8.3,8.3,0,0,0-.22,10.66,7.87,7.87,0,0,0,6,2.28,8.69,8.69,0,0,0,6-2.09,7.34,7.34,0,0,0,2.13-5.43A8.16,8.16,0,0,0,301.29,148.79Zm-5.87,9.43c-2.42,0-2.79-2.44-2.79-3.9s.36-3.75,2.75-3.81a2.42,2.42,0,0,1,1.83.64,4.24,4.24,0,0,1,1,3.12C298.18,157.53,296.67,158.22,295.42,158.22Z" transform="translate(-111.76 -101.85)"/>
              <path class="cls-12" d="M316.08,153.17a16.47,16.47,0,0,0-3.72-1l-.11,0c-1.84-.46-2.28-.55-2.28-1.14,0-.34.18-.92,1.38-.92a7.37,7.37,0,0,1,3.74,1.39l2.79-2.54a8.71,8.71,0,0,0-3.49-1.73,13.84,13.84,0,0,0-3.12-.38,6.8,6.8,0,0,0-4.82,1.62,4.65,4.65,0,0,0-1.35,3.21c0,2.84,2.43,3.63,3.74,4a23.58,23.58,0,0,0,2.89.64c.55.08,1.57.21,1.57,1s-.83,1-1.65,1a6,6,0,0,1-2.29-.47,6.79,6.79,0,0,1-2.18-1.47l-2.87,2.64a11.1,11.1,0,0,0,7.39,2.87c4.47,0,6.47-2.53,6.47-5.19A3.92,3.92,0,0,0,316.08,153.17Z" transform="translate(-111.76 -101.85)"/>
              <path class="cls-12" d="M330.78,153.17a16.47,16.47,0,0,0-3.72-1l-.11,0c-1.84-.46-2.28-.55-2.28-1.14,0-.34.18-.92,1.39-.92a7.36,7.36,0,0,1,3.73,1.39l2.79-2.54a8.71,8.71,0,0,0-3.49-1.73,13.84,13.84,0,0,0-3.12-.38,6.8,6.8,0,0,0-4.82,1.62,4.65,4.65,0,0,0-1.35,3.21c0,2.84,2.43,3.63,3.73,4a24,24,0,0,0,2.9.64c.55.08,1.57.21,1.57,1s-.83,1-1.65,1a6,6,0,0,1-2.29-.47,6.68,6.68,0,0,1-2.18-1.47L319,159.05a11.08,11.08,0,0,0,7.39,2.87c4.47,0,6.47-2.53,6.47-5.19A3.92,3.92,0,0,0,330.78,153.17Z" transform="translate(-111.76 -101.85)"/>
              <path class="cls-12" d="M281.6,147.29h-5v14.12h5.17v-6.63h0c0-.88.09-3.23,3.54-3.23.32,0,.83,0,1.14,0v-4.5a5.94,5.94,0,0,0-4.55,1.65l-.32.28Z" transform="translate(-111.76 -101.85)"/>
            </g>
          </g>
        </g>
      </g>
    </g>
  </g>
</svg>
