<?xml version="1.0" encoding="UTF-8" standalone="no"?>
<svg
   width="521"
   height="260"
   viewBox="0 0 521 260"
   fill="none"
   version="1.1"
   id="svg31"
   sodipodi:docname="before.svg"
   xmlns:inkscape="http://www.inkscape.org/namespaces/inkscape"
   xmlns:sodipodi="http://sodipodi.sourceforge.net/DTD/sodipodi-0.dtd"
   xmlns="http://www.w3.org/2000/svg"
   xmlns:svg="http://www.w3.org/2000/svg">
  <sodipodi:namedview
     id="namedview33"
     pagecolor="#ffffff"
     bordercolor="#666666"
     borderopacity="1.0"
     inkscape:showpageshadow="2"
     inkscape:pageopacity="0.0"
     inkscape:pagecheckerboard="0"
     inkscape:deskcolor="#d1d1d1"
     showgrid="false" />
  <rect
     width="800"
     height="800"
     fill="#ffffff"
     id="rect2"
     x="-139.49997"
     y="-270" />
  <g
     clip-path="url(#clip0_141_34)"
     id="g24"
     transform="translate(-140.21201,-270)">
    <rect
       width="521"
       height="260"
       transform="translate(140.212,270)"
       fill="#d7f29e"
       id="rect6"
       x="0"
       y="0" />
    <path
       opacity="0.5"
       d="m 18.7136,552.048 c -2.3535,27.653 12.503,45.599 -41.1864,45.599 -53.6894,0 -16.6593,-158.958 -15.4449,-261.092 0.7422,-62.417 -42.568,-124.169 8.8257,-159.597 4.664,-3.215 7.3126,-5.086 12.503,-7.355 27.9797,-12.234 44.4835,21.657 75.018,22.064 61.829,0.825 84.615,-121.9814 133.856,-84.579 7.116,5.405 11.924,8.323 16.18,16.18 4.723,8.72 -1.136,16.788 4.413,25.006 8.437,12.497 25.251,11.278 36.773,11.768 11.523,0.49 6.144,25.304 21.329,38.244 9.589,8.172 35.86,2.22 44.864,11.032 22.953,22.467 -44.864,13.239 -44.864,39.716 0,26.477 59.421,25.496 38.98,49.276 -31.35,36.474 43.308,24.451 50.012,72.077 3.283,23.324 -50.012,108.114 -50.012,108.114 4.413,13.974 -64.371,-0.121 -87.521,9.561 -27.967,11.697 -12.701,43.63 -42.657,38.98 -28.559,-4.433 -37.315,-31.93 -66.193,-33.096 -18.2408,-0.737 -25.4266,25.273 -41.9215,33.096 -24.2253,11.489 -50.6004,-2.648 -52.9539,25.006 z"
       fill="#afcd6f"
       id="path8" />
    <path
       d="m 623.096,329.61 c -17.89,-21.218 -41.085,-23.403 -3.121,-61.367 37.965,-37.964 124.181,100.621 195.542,173.699 43.611,44.661 117.9,57.701 106.611,119.093 -1.024,5.572 -1.575,8.767 -3.64,14.042 -11.134,28.435 -46.768,16.141 -68.648,37.444 -44.303,43.136 26.422,146.086 -34.843,154.456 -8.854,1.21 -14.317,2.547 -22.883,0 -9.505,-2.825 -11.067,-12.673 -20.802,-14.561 -14.803,-2.871 -25.83,9.881 -34.324,17.682 -8.494,7.801 -22.237,-13.548 -42.124,-11.962 -12.559,1.002 -26.927,23.788 -39.525,23.923 -32.116,0.344 -4.051,-20.189 -22.773,-38.911 -18.722,-18.722 -30.674,31.639 -61.044,23.829 C 469.639,740.78 397.592,641.088 419.279,535.745 c 12.635,-61.373 95.483,6.382 105.006,-16.834 11.505,-28.047 -21.87,-39.832 2.6,-57.727 23.329,-17.06 -11.175,-62.499 10.069,-82.094 13.42,-12.377 37.997,-13.694 44.129,-30.89 9.006,-25.253 59.903,2.628 42.013,-18.59 z"
       fill="#afcd6f"
       id="path10" />
    <path
       fill-rule="evenodd"
       clip-rule="evenodd"
       d="m 48.8647,336.277 c 47.6199,55.663 98.8323,86.79 153.8573,100.681 88.291,22.287 185.389,-0.098 291.204,-33.782 134.954,-42.959 221.917,10.525 247.922,41.191 L 751,436.606 C 721.812,402.186 629.779,347.338 490.286,391.742 384.454,425.431 290.321,446.694 205.659,425.323 153.297,412.104 104.168,382.463 57.9832,328.476 Z"
       fill="#8b7555"
       id="path12" />
    <path
       fill-rule="evenodd"
       clip-rule="evenodd"
       d="m 748.324,532.684 c -47.202,55.174 -97.806,85.868 -152.055,99.562 -87.232,22.021 -183.466,-0.038 -289.285,-33.723 -136.278,-43.38 -224.7202,10.501 -251.6532,42.262 l -3.8135,-3.233 C 79.7768,604.226 170.331,549.776 308.5,593.759 c 105.827,33.687 200.825,55.278 286.546,33.639 53.139,-13.414 102.875,-43.489 149.478,-97.964 z"
       fill="#8b7555"
       id="path14" />
    <rect
       opacity="0.5"
       x="223.319"
       y="511.715"
       width="38.3456"
       height="41.088902"
       rx="7"
       transform="rotate(15,223.319,511.715)"
       fill="#3d5609"
       id="rect16" />
    <path
       fill-rule="evenodd"
       clip-rule="evenodd"
       d="M 341.026,517.484 C 281.943,515.95 209.488,502.082 115.942,467.177 l 12.585,-33.728 c 90.825,33.89 159.285,46.641 213.434,48.048 53.923,1.4 94.484,-8.422 129.774,-20.84 13.395,-4.714 26.369,-10.019 39.278,-15.298 53.932,-22.054 106.745,-43.65 184.581,-19.75 l -10.567,34.414 c -64.626,-19.844 -104.183,-3.845 -156.396,17.273 -13.856,5.604 -28.604,11.569 -44.947,17.32 -38.356,13.496 -83.347,24.409 -142.658,22.868 z"
       fill="#71bff8"
       id="path18" />
    <path
       d="m 160.038,313.906 v -17.454 h 6.988 c 1.284,0 2.355,0.19 3.213,0.571 0.858,0.38 1.503,0.909 1.935,1.585 0.432,0.67 0.648,1.443 0.648,2.318 0,0.682 -0.137,1.281 -0.409,1.798 -0.273,0.512 -0.648,0.932 -1.125,1.262 -0.472,0.324 -1.012,0.554 -1.62,0.69 v 0.171 c 0.665,0.028 1.287,0.215 1.867,0.562 0.585,0.347 1.059,0.832 1.423,1.457 0.364,0.62 0.546,1.358 0.546,2.216 0,0.927 -0.231,1.753 -0.691,2.48 -0.454,0.722 -1.128,1.293 -2.02,1.714 -0.892,0.42 -1.991,0.63 -3.298,0.63 z m 3.69,-3.017 h 3.009 c 1.028,0 1.778,-0.196 2.25,-0.588 0.471,-0.398 0.707,-0.926 0.707,-1.585 0,-0.483 -0.117,-0.909 -0.35,-1.278 -0.232,-0.37 -0.565,-0.66 -0.997,-0.87 -0.426,-0.21 -0.934,-0.315 -1.525,-0.315 h -3.094 z m 0,-7.133 h 2.736 c 0.505,0 0.954,-0.088 1.346,-0.265 0.398,-0.181 0.711,-0.437 0.938,-0.767 0.233,-0.329 0.349,-0.724 0.349,-1.184 0,-0.631 -0.224,-1.139 -0.673,-1.526 -0.443,-0.386 -1.074,-0.579 -1.892,-0.579 h -2.804 z m 18.075,10.406 c -1.347,0 -2.506,-0.273 -3.478,-0.818 -0.966,-0.551 -1.71,-1.33 -2.233,-2.335 -0.522,-1.012 -0.784,-2.208 -0.784,-3.589 0,-1.346 0.262,-2.528 0.784,-3.545 0.523,-1.017 1.259,-1.81 2.208,-2.378 0.954,-0.568 2.074,-0.852 3.358,-0.852 0.863,0 1.667,0.139 2.412,0.417 0.75,0.273 1.403,0.685 1.96,1.236 0.562,0.551 1,1.245 1.312,2.08 0.313,0.829 0.469,1.801 0.469,2.915 v 0.997 h -11.054 v -2.25 h 7.636 c 0,-0.523 -0.113,-0.986 -0.34,-1.389 -0.228,-0.404 -0.543,-0.719 -0.946,-0.946 -0.398,-0.233 -0.861,-0.35 -1.39,-0.35 -0.551,0 -1.039,0.128 -1.466,0.384 -0.42,0.25 -0.75,0.588 -0.988,1.014 -0.239,0.42 -0.361,0.889 -0.367,1.406 v 2.139 c 0,0.648 0.12,1.208 0.358,1.679 0.245,0.472 0.588,0.835 1.032,1.091 0.443,0.256 0.968,0.384 1.576,0.384 0.404,0 0.773,-0.057 1.108,-0.171 0.335,-0.113 0.622,-0.284 0.861,-0.511 0.239,-0.227 0.42,-0.506 0.545,-0.835 l 3.358,0.221 c -0.17,0.807 -0.519,1.512 -1.048,2.114 -0.523,0.596 -1.199,1.062 -2.028,1.398 -0.824,0.329 -1.776,0.494 -2.855,0.494 z m 15.417,-13.347 v 2.728 h -8.079 v -2.728 z m -6.23,13.091 v -14.037 c 0,-0.949 0.185,-1.735 0.554,-2.36 0.375,-0.625 0.886,-1.094 1.534,-1.407 0.648,-0.312 1.384,-0.468 2.208,-0.468 0.556,0 1.065,0.042 1.525,0.127 0.466,0.086 0.813,0.162 1.04,0.23 l -0.648,2.728 c -0.142,-0.046 -0.318,-0.088 -0.528,-0.128 -0.205,-0.04 -0.415,-0.06 -0.631,-0.06 -0.534,0 -0.906,0.125 -1.116,0.375 -0.211,0.245 -0.316,0.588 -0.316,1.032 v 13.968 z m 13.894,0.256 c -1.324,0 -2.468,-0.281 -3.434,-0.844 -0.961,-0.568 -1.702,-1.358 -2.225,-2.369 -0.523,-1.017 -0.784,-2.196 -0.784,-3.537 0,-1.352 0.261,-2.534 0.784,-3.546 0.523,-1.017 1.264,-1.806 2.225,-2.369 0.966,-0.568 2.11,-0.852 3.434,-0.852 1.324,0 2.466,0.284 3.426,0.852 0.966,0.563 1.711,1.352 2.233,2.369 0.523,1.012 0.784,2.194 0.784,3.546 0,1.341 -0.261,2.52 -0.784,3.537 -0.522,1.011 -1.267,1.801 -2.233,2.369 -0.96,0.563 -2.102,0.844 -3.426,0.844 z m 0.017,-2.813 c 0.603,0 1.105,-0.17 1.509,-0.511 0.403,-0.347 0.707,-0.818 0.912,-1.415 0.21,-0.596 0.315,-1.275 0.315,-2.037 0,-0.761 -0.105,-1.44 -0.315,-2.037 -0.205,-0.596 -0.509,-1.068 -0.912,-1.414 -0.404,-0.347 -0.906,-0.52 -1.509,-0.52 -0.608,0 -1.119,0.173 -1.534,0.52 -0.409,0.346 -0.719,0.818 -0.929,1.414 -0.204,0.597 -0.307,1.276 -0.307,2.037 0,0.762 0.103,1.441 0.307,2.037 0.21,0.597 0.52,1.068 0.929,1.415 0.415,0.341 0.926,0.511 1.534,0.511 z m 8.787,2.557 v -13.091 h 3.52 v 2.284 h 0.136 c 0.239,-0.812 0.64,-1.426 1.202,-1.84 0.563,-0.421 1.21,-0.631 1.943,-0.631 0.182,0 0.378,0.011 0.588,0.034 0.211,0.023 0.395,0.054 0.554,0.094 v 3.221 c -0.17,-0.051 -0.406,-0.096 -0.707,-0.136 -0.301,-0.04 -0.577,-0.06 -0.827,-0.06 -0.534,0 -1.011,0.117 -1.431,0.35 -0.415,0.227 -0.745,0.545 -0.989,0.954 -0.239,0.409 -0.358,0.881 -0.358,1.415 v 7.406 z m 15.177,0.256 c -1.347,0 -2.506,-0.273 -3.477,-0.818 -0.966,-0.551 -1.71,-1.33 -2.233,-2.335 -0.523,-1.012 -0.784,-2.208 -0.784,-3.589 0,-1.346 0.261,-2.528 0.784,-3.545 0.523,-1.017 1.258,-1.81 2.207,-2.378 0.955,-0.568 2.074,-0.852 3.358,-0.852 0.864,0 1.668,0.139 2.412,0.417 0.75,0.273 1.404,0.685 1.96,1.236 0.563,0.551 1,1.245 1.313,2.08 0.312,0.829 0.469,1.801 0.469,2.915 v 0.997 H 223.82 v -2.25 h 7.636 c 0,-0.523 -0.114,-0.986 -0.341,-1.389 -0.227,-0.404 -0.543,-0.719 -0.946,-0.946 -0.398,-0.233 -0.861,-0.35 -1.389,-0.35 -0.551,0 -1.04,0.128 -1.466,0.384 -0.421,0.25 -0.75,0.588 -0.989,1.014 -0.238,0.42 -0.36,0.889 -0.366,1.406 v 2.139 c 0,0.648 0.119,1.208 0.358,1.679 0.244,0.472 0.588,0.835 1.031,1.091 0.443,0.256 0.969,0.384 1.577,0.384 0.403,0 0.772,-0.057 1.108,-0.171 0.335,-0.113 0.622,-0.284 0.86,-0.511 0.239,-0.227 0.421,-0.506 0.546,-0.835 l 3.358,0.221 c -0.171,0.807 -0.52,1.512 -1.048,2.114 -0.523,0.596 -1.199,1.062 -2.029,1.398 -0.824,0.329 -1.775,0.494 -2.855,0.494 z"
       fill="black"
       id="path20"
       style="fill:#666666" />
    <rect
       x="404.52301"
       y="329.996"
       width="53.6894"
       height="93.4048"
       rx="11"
       transform="rotate(-60,404.523,329.996)"
       fill="#3d5609"
       id="rect22" />
  </g>
  <defs
     id="defs29">
    <clipPath
       id="clip0_141_34">
      <rect
         width="521"
         height="260"
         fill="#ffffff"
         transform="translate(140.212,270)"
         id="rect26"
         x="0"
         y="0" />
    </clipPath>
  </defs>
</svg>
