<svg width="520" height="520" viewBox="0 0 520 520" fill="none" xmlns="http://www.w3.org/2000/svg">
<g clip-path="url(#clip0_1762_322)">
<rect width="520" height="520" rx="37" fill="white"/>
<g clip-path="url(#clip1_1762_322)">
<rect width="521" height="426" fill="#D7F29E"/>
<path opacity="0.5" d="M-121.21 282.048C-123.564 309.701 -108.707 327.647 -162.397 327.647C-216.086 327.647 -179.056 168.689 -177.842 66.5549C-177.1 4.13753 -220.41 -57.6138 -169.016 -93.0423C-164.352 -96.2574 -161.703 -98.1276 -156.513 -100.397C-128.533 -112.631 -112.03 -78.7402 -81.4951 -78.3328C-19.6657 -77.508 3.1203 -200.314 52.3606 -162.912C59.4767 -157.507 64.2849 -154.589 68.541 -146.732C73.264 -138.012 67.4053 -129.944 72.9538 -121.726C81.3906 -109.229 98.205 -110.448 109.727 -109.958C121.25 -109.468 115.871 -84.6543 131.056 -71.7135C140.645 -63.5418 166.916 -69.494 175.92 -60.6815C198.873 -38.215 131.056 -47.443 131.056 -20.966C131.056 5.51089 190.477 4.52971 170.036 28.3104C138.685 64.7838 213.344 52.7608 220.048 100.387C223.331 123.711 170.036 208.501 170.036 208.501C174.449 222.475 105.665 208.38 82.515 218.062C54.5475 229.759 69.8138 261.692 39.8576 257.042C11.2987 252.609 2.5426 225.112 -26.3348 223.946C-44.5758 223.209 -51.7616 249.219 -68.2566 257.042C-92.4818 268.531 -118.857 254.394 -121.21 282.048Z" fill="#AFCD6F"/>
<path d="M483.172 59.6101C465.282 38.3918 442.087 36.2074 480.051 -1.75671C518.015 -39.7208 604.232 98.8639 675.593 171.942C719.204 216.603 793.493 229.643 782.204 291.035C781.18 296.607 780.629 299.802 778.564 305.077C767.43 333.512 731.796 321.218 709.916 342.521C665.613 385.657 736.338 488.607 675.073 496.977C666.219 498.187 660.756 499.524 652.19 496.977C642.685 494.152 641.123 484.304 631.388 482.416C616.585 479.545 605.558 492.297 597.064 500.098C588.57 507.899 574.827 486.55 554.939 488.136C542.381 489.138 528.013 511.924 515.415 512.059C483.299 512.403 511.364 491.87 492.642 473.148C473.92 454.426 461.968 504.787 431.597 496.977C329.715 470.78 257.668 371.088 279.355 265.745C291.99 204.372 374.837 272.127 384.361 248.911C395.866 220.864 362.491 209.079 386.961 191.184C410.29 174.124 375.786 128.685 397.03 109.09C410.45 96.7128 435.026 95.3956 441.159 78.2004C450.165 52.9466 501.062 80.8283 483.172 59.6101Z" fill="#AFCD6F"/>
<path fill-rule="evenodd" clip-rule="evenodd" d="M-91.0593 66.2773C-43.4394 121.94 7.77324 153.067 62.798 166.958C151.089 189.245 248.187 166.86 354.002 133.176C488.956 90.2174 575.919 143.701 601.924 174.367L611.076 166.606C581.888 132.186 489.855 77.338 350.362 121.742C244.53 155.431 150.397 176.694 65.7352 155.323C13.3726 142.104 -35.7555 112.463 -81.9408 58.4764L-91.0593 66.2773Z" fill="#8B7555"/>
<path fill-rule="evenodd" clip-rule="evenodd" d="M608.4 262.684C561.199 317.858 510.594 348.552 456.346 362.246C369.113 384.267 272.88 362.208 167.06 328.523C30.7821 285.143 -57.66 339.024 -84.593 370.785L-88.4065 367.552C-60.147 334.226 30.4076 279.776 168.577 323.759C274.403 357.446 369.401 379.037 455.122 357.398C508.261 343.984 557.997 313.909 604.601 259.434L608.4 262.684Z" fill="#8B7555"/>
<path opacity="0.5" fill-rule="evenodd" clip-rule="evenodd" d="M124.2 339.99C120.344 340.275 117.45 343.631 117.735 347.487L118.07 352.016L98.6951 353.448C94.8396 353.733 91.9453 357.09 92.2303 360.945L93.0154 371.564C93.3005 375.42 96.657 378.314 100.513 378.029L148.631 374.471C152.487 374.186 155.381 370.83 155.096 366.974L154.311 356.355C154.3 356.205 154.284 356.057 154.264 355.91C154.262 355.762 154.256 355.614 154.245 355.464L153.46 344.845C153.175 340.99 149.818 338.095 145.963 338.38L124.2 339.99Z" fill="#3D5609"/>
<rect opacity="0.5" x="83.3945" y="241.715" width="38.3456" height="41.0889" rx="7" transform="rotate(15 83.3945 241.715)" fill="#3D5609"/>
<path fill-rule="evenodd" clip-rule="evenodd" d="M201.102 247.484C142.019 245.95 69.5635 232.082 -23.9819 197.177L-11.3967 163.449C79.4282 197.338 147.887 210.09 202.037 211.497C255.959 212.897 296.52 203.075 331.81 190.657C345.206 185.943 358.179 180.638 371.089 175.359C425.021 153.305 477.834 131.709 555.67 155.609L545.103 190.023C480.477 170.179 440.919 186.178 388.707 207.296C374.851 212.9 360.103 218.865 343.76 224.616C305.404 238.112 260.413 249.025 201.102 247.484Z" fill="#71BFF8"/>
<path d="M21.517 80V62.5455H28.5057C29.7898 62.5455 30.8608 62.7358 31.7188 63.1165C32.5767 63.4972 33.2216 64.0256 33.6534 64.7017C34.0852 65.3722 34.3011 66.1449 34.3011 67.0199C34.3011 67.7017 34.1648 68.3011 33.892 68.8182C33.6193 69.3295 33.2443 69.75 32.767 70.0795C32.2955 70.4034 31.7557 70.6335 31.1477 70.7699V70.9403C31.8125 70.9687 32.4347 71.1562 33.0142 71.5028C33.5994 71.8494 34.0739 72.3352 34.4375 72.9602C34.8011 73.5795 34.983 74.3182 34.983 75.1761C34.983 76.1023 34.7528 76.929 34.2926 77.6562C33.8381 78.3778 33.1648 78.9489 32.2727 79.3693C31.3807 79.7898 30.2813 80 28.9744 80H21.517ZM25.2074 76.983H28.2159C29.2443 76.983 29.9943 76.7869 30.4659 76.3949C30.9375 75.9972 31.1733 75.4687 31.1733 74.8097C31.1733 74.3267 31.0568 73.9006 30.8239 73.5312C30.5909 73.1619 30.2585 72.8722 29.8267 72.6619C29.4006 72.4517 28.892 72.3466 28.3011 72.3466H25.2074V76.983ZM25.2074 69.8494H27.9432C28.4489 69.8494 28.8977 69.7614 29.2898 69.5852C29.6875 69.4034 30 69.1477 30.2273 68.8182C30.4602 68.4886 30.5767 68.0938 30.5767 67.6335C30.5767 67.0028 30.3523 66.4943 29.9034 66.108C29.4602 65.7216 28.8295 65.5284 28.0114 65.5284H25.2074V69.8494ZM43.282 80.2557C41.9354 80.2557 40.7763 79.983 39.8047 79.4375C38.8388 78.8864 38.0945 78.108 37.5717 77.1023C37.049 76.0909 36.7876 74.8949 36.7876 73.5142C36.7876 72.1676 37.049 70.9858 37.5717 69.9688C38.0945 68.9517 38.8303 68.1591 39.7791 67.5909C40.7337 67.0227 41.853 66.7386 43.1371 66.7386C44.0007 66.7386 44.8047 66.8778 45.549 67.1562C46.299 67.429 46.9524 67.8409 47.5092 68.392C48.0717 68.9432 48.5092 69.6364 48.8217 70.4716C49.1342 71.3011 49.2905 72.2727 49.2905 73.3864V74.3835H38.2365V72.1335H45.8729C45.8729 71.6108 45.7592 71.1477 45.532 70.7443C45.3047 70.3409 44.9893 70.0256 44.5859 69.7983C44.1882 69.5653 43.7251 69.4489 43.1967 69.4489C42.6456 69.4489 42.157 69.5767 41.7308 69.8324C41.3104 70.0824 40.9808 70.4205 40.7422 70.8466C40.5036 71.267 40.3814 71.7358 40.3757 72.2528V74.392C40.3757 75.0398 40.495 75.5994 40.7337 76.071C40.978 76.5426 41.3217 76.9062 41.7649 77.1619C42.2081 77.4176 42.7337 77.5455 43.3416 77.5455C43.745 77.5455 44.1143 77.4886 44.4496 77.375C44.7848 77.2614 45.0717 77.0909 45.3104 76.8636C45.549 76.6364 45.7308 76.358 45.8558 76.0284L49.2138 76.25C49.0433 77.0568 48.6939 77.7614 48.1655 78.3636C47.6428 78.9602 46.9666 79.4261 46.1371 79.7614C45.3132 80.0909 44.3615 80.2557 43.282 80.2557ZM58.6996 66.9091V69.6364H50.62V66.9091H58.6996ZM52.4695 80V65.9631C52.4695 65.0142 52.6541 64.2273 53.0234 63.6023C53.3984 62.9773 53.9098 62.5085 54.5575 62.196C55.2053 61.8835 55.9411 61.7273 56.7649 61.7273C57.3217 61.7273 57.8303 61.7699 58.2905 61.8551C58.7564 61.9403 59.103 62.017 59.3303 62.0852L58.6825 64.8125C58.5405 64.767 58.3643 64.7244 58.1541 64.6847C57.9496 64.6449 57.7393 64.625 57.5234 64.625C56.9893 64.625 56.6172 64.75 56.407 65C56.1967 65.2443 56.0916 65.5881 56.0916 66.0312V80H52.4695ZM66.3636 80.2557C65.0398 80.2557 63.8949 79.9744 62.929 79.4119C61.9688 78.8437 61.2273 78.054 60.7045 77.0426C60.1818 76.0256 59.9205 74.8466 59.9205 73.5057C59.9205 72.1534 60.1818 70.9716 60.7045 69.9602C61.2273 68.9432 61.9688 68.1534 62.929 67.5909C63.8949 67.0227 65.0398 66.7386 66.3636 66.7386C67.6875 66.7386 68.8295 67.0227 69.7898 67.5909C70.7557 68.1534 71.5 68.9432 72.0227 69.9602C72.5455 70.9716 72.8068 72.1534 72.8068 73.5057C72.8068 74.8466 72.5455 76.0256 72.0227 77.0426C71.5 78.054 70.7557 78.8437 69.7898 79.4119C68.8295 79.9744 67.6875 80.2557 66.3636 80.2557ZM66.3807 77.4432C66.983 77.4432 67.4858 77.2727 67.8892 76.9318C68.2926 76.5852 68.5966 76.1136 68.8011 75.517C69.0114 74.9205 69.1165 74.2415 69.1165 73.4801C69.1165 72.7188 69.0114 72.0398 68.8011 71.4432C68.5966 70.8466 68.2926 70.375 67.8892 70.0284C67.4858 69.6818 66.983 69.5085 66.3807 69.5085C65.7727 69.5085 65.2614 69.6818 64.8466 70.0284C64.4375 70.375 64.1278 70.8466 63.9176 71.4432C63.7131 72.0398 63.6108 72.7188 63.6108 73.4801C63.6108 74.2415 63.7131 74.9205 63.9176 75.517C64.1278 76.1136 64.4375 76.5852 64.8466 76.9318C65.2614 77.2727 65.7727 77.4432 66.3807 77.4432ZM75.1676 80V66.9091H78.6875V69.1932H78.8239C79.0625 68.3807 79.4631 67.767 80.0256 67.3523C80.5881 66.9318 81.2358 66.7216 81.9688 66.7216C82.1506 66.7216 82.3466 66.733 82.5568 66.7557C82.767 66.7784 82.9517 66.8097 83.1108 66.8494V70.071C82.9403 70.0199 82.7045 69.9744 82.4034 69.9347C82.1023 69.8949 81.8267 69.875 81.5767 69.875C81.0426 69.875 80.5653 69.9915 80.1449 70.2244C79.7301 70.4517 79.4006 70.7699 79.1562 71.179C78.9176 71.5881 78.7983 72.0597 78.7983 72.5938V80H75.1676ZM90.3445 80.2557C88.9979 80.2557 87.8388 79.983 86.8672 79.4375C85.9013 78.8864 85.157 78.108 84.6342 77.1023C84.1115 76.0909 83.8501 74.8949 83.8501 73.5142C83.8501 72.1676 84.1115 70.9858 84.6342 69.9688C85.157 68.9517 85.8928 68.1591 86.8416 67.5909C87.7962 67.0227 88.9155 66.7386 90.1996 66.7386C91.0632 66.7386 91.8672 66.8778 92.6115 67.1562C93.3615 67.429 94.0149 67.8409 94.5717 68.392C95.1342 68.9432 95.5717 69.6364 95.8842 70.4716C96.1967 71.3011 96.353 72.2727 96.353 73.3864V74.3835H85.299V72.1335H92.9354C92.9354 71.6108 92.8217 71.1477 92.5945 70.7443C92.3672 70.3409 92.0518 70.0256 91.6484 69.7983C91.2507 69.5653 90.7876 69.4489 90.2592 69.4489C89.7081 69.4489 89.2195 69.5767 88.7933 69.8324C88.3729 70.0824 88.0433 70.4205 87.8047 70.8466C87.5661 71.267 87.4439 71.7358 87.4382 72.2528V74.392C87.4382 75.0398 87.5575 75.5994 87.7962 76.071C88.0405 76.5426 88.3842 76.9062 88.8274 77.1619C89.2706 77.4176 89.7962 77.5455 90.4041 77.5455C90.8075 77.5455 91.1768 77.4886 91.5121 77.375C91.8473 77.2614 92.1342 77.0909 92.3729 76.8636C92.6115 76.6364 92.7933 76.358 92.9183 76.0284L96.2763 76.25C96.1058 77.0568 95.7564 77.7614 95.228 78.3636C94.7053 78.9602 94.0291 79.4261 93.1996 79.7614C92.3757 80.0909 91.424 80.2557 90.3445 80.2557Z" fill="#5B5B5B"/>
<rect x="264.599" y="59.9955" width="53.6894" height="93.4048" rx="11" transform="rotate(-60 264.599 59.9955)" fill="#3D5609"/>
</g>
<g clip-path="url(#clip2_1762_322)">
<rect width="521" height="426" transform="translate(0 260)" fill="#D7F29E"/>
<path opacity="0.5" d="M-121.21 542.048C-123.564 569.701 -108.707 587.647 -162.397 587.647C-216.086 587.647 -179.056 428.689 -177.842 326.555C-177.1 264.138 -220.41 202.386 -169.016 166.958C-164.352 163.743 -161.703 161.872 -156.513 159.603C-128.533 147.369 -112.03 181.26 -81.4951 181.667C-19.6657 182.492 3.1203 59.6856 52.3606 97.0881C59.4767 102.493 64.2849 105.411 68.541 113.268C73.264 121.988 67.4053 130.056 72.9538 138.274C81.3906 150.771 98.205 149.552 109.727 150.042C121.25 150.532 115.871 175.346 131.056 188.286C140.645 196.458 166.916 190.506 175.92 199.318C198.873 221.785 131.056 212.557 131.056 239.034C131.056 265.511 190.477 264.53 170.036 288.31C138.685 324.784 213.344 312.761 220.048 360.387C223.331 383.711 170.036 468.501 170.036 468.501C174.449 482.475 105.665 468.38 82.515 478.062C54.5475 489.759 69.8138 521.692 39.8576 517.042C11.2987 512.609 2.5426 485.112 -26.3348 483.946C-44.5758 483.209 -51.7616 509.219 -68.2566 517.042C-92.4818 528.531 -118.857 514.394 -121.21 542.048Z" fill="#AFCD6F"/>
<path d="M483.172 319.61C465.282 298.392 442.087 296.207 480.051 258.243C518.015 220.279 604.232 358.864 675.593 431.942C719.204 476.603 793.493 489.643 782.204 551.035C781.18 556.607 780.629 559.802 778.564 565.077C767.43 593.512 731.796 581.218 709.916 602.521C665.613 645.657 736.338 748.607 675.073 756.977C666.219 758.187 660.756 759.524 652.19 756.977C642.685 754.152 641.123 744.304 631.388 742.416C616.585 739.545 605.558 752.297 597.064 760.098C588.57 767.899 574.827 746.55 554.939 748.136C542.381 749.138 528.013 771.924 515.415 772.059C483.299 772.403 511.364 751.87 492.642 733.148C473.92 714.426 461.968 764.787 431.597 756.977C329.715 730.78 257.668 631.088 279.355 525.745C291.99 464.372 374.837 532.127 384.361 508.911C395.866 480.864 362.491 469.079 386.961 451.184C410.29 434.124 375.786 388.685 397.03 369.09C410.45 356.713 435.026 355.396 441.159 338.2C450.165 312.947 501.062 340.828 483.172 319.61Z" fill="#AFCD6F"/>
<path fill-rule="evenodd" clip-rule="evenodd" d="M-93.339 327.949C-45.3604 384.031 6.37333 415.529 62.0637 429.588C151.262 452.105 249.102 429.438 354.912 395.757C488.731 353.159 574.427 406.301 599.636 436.029L613.364 424.387C583.38 389.029 490.079 333.84 349.452 378.605C249.016 410.576 159.787 431.104 79.3653 415.047L59.7008 410.328C10.5238 396.477 -35.8398 367.471 -79.6613 316.248L-93.339 327.949Z" fill="#8B7555"/>
<path d="M613.339 526.909C565.36 582.992 513.627 614.49 457.936 628.548C368.738 651.065 270.898 628.399 165.088 594.717C31.2686 552.119 -54.4271 605.262 -79.6357 634.989L-93.3642 623.348C-69.0768 594.707 -3.2457 553.055 95.6307 562.053L130.785 567.212C143.58 569.787 156.839 573.201 170.548 577.565C271.853 609.813 361.755 630.418 442.719 613.582C475.99 605.69 553.959 574.965 599.661 515.208L613.339 526.909Z" fill="#8B7555"/>
<rect x="264.599" y="318.036" width="53.6894" height="93.4048" rx="11" transform="rotate(-60 264.599 318.036)" fill="#3D5609"/>
<rect x="390.915" y="355.886" width="34.2339" height="35.4424" rx="7" transform="rotate(-105 390.915 355.886)" fill="#3D5609"/>
<rect opacity="0.5" x="83.3945" y="501.715" width="38.3456" height="41.0889" rx="7" transform="rotate(15 83.3945 501.715)" fill="#3D5609"/>
<path d="M24.5256 310H20.571L26.5966 292.545H31.3523L37.3693 310H33.4148L29.0426 296.534H28.9062L24.5256 310ZM24.2784 303.139H33.6193V306.02H24.2784V303.139ZM46.2074 296.909V299.636H38.1278V296.909H46.2074ZM39.9773 310V295.963C39.9773 295.014 40.1619 294.227 40.5312 293.602C40.9062 292.977 41.4176 292.509 42.0653 292.196C42.7131 291.884 43.4489 291.727 44.2727 291.727C44.8295 291.727 45.3381 291.77 45.7983 291.855C46.2642 291.94 46.6108 292.017 46.8381 292.085L46.1903 294.812C46.0483 294.767 45.8722 294.724 45.6619 294.685C45.4574 294.645 45.2472 294.625 45.0312 294.625C44.4972 294.625 44.125 294.75 43.9148 295C43.7045 295.244 43.5994 295.588 43.5994 296.031V310H39.9773ZM55.3885 296.909V299.636H47.505V296.909H55.3885ZM49.2947 293.773H52.9254V305.977C52.9254 306.312 52.9766 306.574 53.0788 306.761C53.1811 306.943 53.3232 307.071 53.505 307.145C53.6925 307.219 53.9084 307.256 54.1527 307.256C54.3232 307.256 54.4936 307.241 54.6641 307.213C54.8345 307.179 54.9652 307.153 55.0561 307.136L55.6271 309.838C55.4453 309.895 55.1896 309.96 54.8601 310.034C54.5305 310.114 54.13 310.162 53.6584 310.179C52.7834 310.213 52.0163 310.097 51.3572 309.83C50.7038 309.562 50.1953 309.148 49.8317 308.585C49.468 308.023 49.2891 307.312 49.2947 306.455V293.773ZM63.5788 310.256C62.2322 310.256 61.0732 309.983 60.1016 309.438C59.1357 308.886 58.3913 308.108 57.8686 307.102C57.3459 306.091 57.0845 304.895 57.0845 303.514C57.0845 302.168 57.3459 300.986 57.8686 299.969C58.3913 298.952 59.1271 298.159 60.076 297.591C61.0305 297.023 62.1499 296.739 63.4339 296.739C64.2976 296.739 65.1016 296.878 65.8459 297.156C66.5959 297.429 67.2493 297.841 67.8061 298.392C68.3686 298.943 68.8061 299.636 69.1186 300.472C69.4311 301.301 69.5874 302.273 69.5874 303.386V304.384H58.5334V302.134H66.1697C66.1697 301.611 66.0561 301.148 65.8288 300.744C65.6016 300.341 65.2862 300.026 64.8828 299.798C64.4851 299.565 64.022 299.449 63.4936 299.449C62.9425 299.449 62.4538 299.577 62.0277 299.832C61.6072 300.082 61.2777 300.42 61.0391 300.847C60.8004 301.267 60.6783 301.736 60.6726 302.253V304.392C60.6726 305.04 60.7919 305.599 61.0305 306.071C61.2749 306.543 61.6186 306.906 62.0618 307.162C62.505 307.418 63.0305 307.545 63.6385 307.545C64.0419 307.545 64.4112 307.489 64.7464 307.375C65.0817 307.261 65.3686 307.091 65.6072 306.864C65.8459 306.636 66.0277 306.358 66.1527 306.028L69.5107 306.25C69.3402 307.057 68.9908 307.761 68.4624 308.364C67.9396 308.96 67.2635 309.426 66.4339 309.761C65.6101 310.091 64.6584 310.256 63.5788 310.256ZM71.9567 310V296.909H75.4766V299.193H75.6129C75.8516 298.381 76.2521 297.767 76.8146 297.352C77.3771 296.932 78.0249 296.722 78.7578 296.722C78.9396 296.722 79.1357 296.733 79.3459 296.756C79.5561 296.778 79.7408 296.81 79.8999 296.849V300.071C79.7294 300.02 79.4936 299.974 79.1925 299.935C78.8913 299.895 78.6158 299.875 78.3658 299.875C77.8317 299.875 77.3544 299.991 76.9339 300.224C76.5192 300.452 76.1896 300.77 75.9453 301.179C75.7067 301.588 75.5874 302.06 75.5874 302.594V310H71.9567Z" fill="#5B5B5B"/>
<path fill-rule="evenodd" clip-rule="evenodd" d="M201.219 501.571C142.752 500.052 70.7967 486.324 -22.4087 451.546L-12.9698 426.25C78.1952 460.266 147.154 473.157 201.92 474.58C256.516 475.998 297.631 466.039 333.304 453.487C347.044 448.652 360.233 443.267 373.267 437.945C427.048 415.984 478.178 395.107 554.349 418.495L546.424 444.306C480.16 423.959 438.973 440.639 386.477 461.898C372.733 467.464 358.214 473.344 342.266 478.956C304.293 492.318 259.856 503.094 201.219 501.571Z" fill="#71BFF8"/>
</g>
</g>
<path fill-rule="evenodd" clip-rule="evenodd" d="M0 251H520V269H0V251Z" fill="white"/>
<defs>
<clipPath id="clip0_1762_322">
<rect width="520" height="520" rx="37" fill="white"/>
</clipPath>
<clipPath id="clip1_1762_322">
<rect width="521" height="426" fill="white"/>
</clipPath>
<clipPath id="clip2_1762_322">
<rect width="521" height="426" fill="white" transform="translate(0 260)"/>
</clipPath>
</defs>
</svg>
