<svg width="283" height="331" viewBox="0 0 283 331" fill="none" xmlns="http://www.w3.org/2000/svg">
<g clip-path="url(#clip0_161_330)">
<path d="M86.1304 140.981C86.1304 171.405 110.965 196.148 141.5 196.148C147.16 196.148 151.754 200.725 151.754 206.364C151.754 212.003 147.16 216.58 141.5 216.58C99.6652 216.58 65.6232 182.663 65.6232 140.981C65.6232 99.3 99.6652 65.3827 141.5 65.3827C147.16 65.3827 151.754 69.9595 151.754 75.5988C151.754 81.238 147.16 85.8148 141.5 85.8148C110.965 85.8148 86.1304 110.558 86.1304 140.981ZM188.564 81.6671C184.135 78.1732 177.675 78.9088 174.168 83.3425C170.661 87.7763 171.4 94.192 175.85 97.6859C184.319 104.367 190.615 113.255 194.019 123.41C195.455 127.68 199.453 130.377 203.74 130.377C204.826 130.377 205.913 130.214 207 129.846C212.373 128.048 215.265 122.266 213.46 116.912C208.784 102.998 200.171 90.8207 188.564 81.6671ZM194.388 157.348C191.21 167.564 185.139 176.595 176.813 183.48C172.445 187.076 171.851 193.533 175.46 197.864C177.49 200.296 180.423 201.563 183.355 201.563C185.652 201.563 187.99 200.786 189.897 199.213C201.279 189.794 209.605 177.412 213.973 163.416C215.654 158.022 212.619 152.301 207.226 150.625C201.812 148.95 196.07 151.974 194.388 157.348ZM141.5 0C63.4699 0 0 63.2373 0 140.981C0 145.844 0.266594 150.789 0.758768 155.529C7.075 226.183 52.7857 284.823 136.64 329.774C138.178 330.612 139.839 331 141.5 331C145.15 331 148.678 329.059 150.544 325.626C153.23 320.661 151.364 314.47 146.381 311.794C67.879 269.704 26.9465 218.01 21.184 153.588C20.7533 149.399 20.5278 145.15 20.5278 141.002C20.5278 74.5363 74.8104 20.4525 141.521 20.4525C147.181 20.4525 151.774 15.8757 151.774 10.2365C151.774 4.59722 147.181 0.0204321 141.521 0.0204321L141.5 0ZM282.774 133.013C282.467 127.374 277.566 123.022 271.967 123.369C266.307 123.675 261.98 128.497 262.288 134.137C262.411 136.405 262.472 138.714 262.472 140.981C262.472 145.129 262.247 149.379 261.796 153.731C261.344 158.86 260.647 163.968 259.724 168.933C258.699 174.49 262.39 179.802 267.948 180.824C268.583 180.947 269.199 180.988 269.814 180.988C274.674 180.988 278.981 177.535 279.883 172.61C280.908 167.012 281.708 161.271 282.2 155.672C282.713 150.768 282.959 145.824 282.959 140.981C282.959 138.346 282.877 135.669 282.733 133.013H282.774ZM254.372 97.4815C255.951 101.527 259.827 104.02 263.928 104.02C265.159 104.02 266.41 103.795 267.62 103.325C272.91 101.282 275.515 95.377 273.485 90.1055C268.624 77.5807 261.96 65.7914 253.716 55.1054C250.27 50.6307 243.831 49.793 239.34 53.2256C234.849 56.6582 234.008 63.0739 237.453 67.5485C244.508 76.7021 250.209 86.7751 254.372 97.4815ZM221.806 24.8863C210.671 17.2243 198.531 11.2172 185.714 7.00821C180.341 5.25105 174.537 8.15241 172.774 13.526C171.01 18.8793 173.922 24.6615 179.315 26.4187C190.266 29.9943 200.643 35.1432 210.158 41.7019C211.942 42.9278 213.973 43.5204 215.982 43.5204C219.243 43.5204 222.442 41.988 224.431 39.107C227.651 34.4689 226.482 28.0941 221.827 24.8863H221.806ZM204.293 264.739C195.906 272.544 186.452 280.185 176.239 287.439C171.625 290.708 170.559 297.083 173.84 301.68C175.85 304.479 178.987 305.971 182.207 305.971C184.258 305.971 186.349 305.358 188.154 304.07C199.105 296.306 209.256 288.093 218.32 279.675C222.463 275.833 222.688 269.356 218.833 265.229C214.977 261.102 208.477 260.877 204.334 264.718L204.293 264.739ZM261.837 200.357C256.669 198.028 250.599 200.316 248.261 205.445C243.524 215.886 237.494 226.081 230.337 235.786C226.995 240.343 227.979 246.718 232.532 250.068C234.357 251.397 236.49 252.05 238.602 252.05C241.76 252.05 244.857 250.6 246.866 247.882C254.844 237.053 261.611 225.611 266.943 213.883C269.281 208.734 266.984 202.686 261.837 200.357Z" fill="black"/>
</g>
<defs>
<clipPath id="clip0_161_330">
<rect width="283" height="331" fill="white"/>
</clipPath>
</defs>
</svg>
