<svg width="520" height="520" viewBox="0 0 520 520" fill="none" xmlns="http://www.w3.org/2000/svg">
<g clip-path="url(#clip0_1574_437)">
<rect width="520" height="520" rx="37" fill="white"/>
<g clip-path="url(#clip1_1574_437)">
<rect width="520" height="260" fill="#EBF8CE"/>
<path opacity="0.5" d="M-121.21 282.048C-123.564 309.701 -108.707 327.647 -162.397 327.647C-216.086 327.647 -179.056 168.689 -177.842 66.5549C-177.1 4.13753 -220.41 -57.6138 -169.016 -93.0423C-164.352 -96.2574 -161.703 -98.1276 -156.513 -100.397C-128.533 -112.631 -112.03 -78.7402 -81.4951 -78.3328C-19.6657 -77.508 3.1203 -200.314 52.3606 -162.912C59.4767 -157.507 64.2849 -154.589 68.541 -146.732C73.264 -138.012 67.4053 -129.944 72.9538 -121.726C81.3906 -109.229 98.205 -110.448 109.727 -109.958C121.25 -109.468 115.871 -84.6543 131.056 -71.7135C140.645 -63.5418 166.916 -69.494 175.92 -60.6815C198.873 -38.215 131.056 -47.443 131.056 -20.966C131.056 5.51089 190.477 4.52971 170.036 28.3104C138.685 64.7838 213.344 52.7608 220.048 100.387C223.331 123.711 170.036 208.501 170.036 208.501C174.449 222.475 105.665 208.38 82.515 218.062C54.5475 229.759 69.8138 261.692 39.8576 257.042C11.2987 252.609 2.5426 225.112 -26.3348 223.946C-44.5758 223.209 -51.7616 249.219 -68.2566 257.042C-92.4818 268.531 -118.857 254.394 -121.21 282.048Z" fill="#AFCD6F"/>
<path d="M483.172 59.6101C465.282 38.3918 442.087 36.2074 480.051 -1.75671C518.015 -39.7208 604.232 98.8639 675.593 171.942C719.204 216.603 793.493 229.643 782.204 291.035C781.18 296.607 780.629 299.802 778.564 305.077C767.43 333.512 731.796 321.218 709.916 342.521C665.613 385.657 736.338 488.607 675.073 496.977C666.219 498.187 660.756 499.524 652.19 496.977C642.685 494.152 641.123 484.304 631.388 482.416C616.585 479.545 605.558 492.297 597.064 500.098C588.57 507.899 574.827 486.55 554.939 488.136C542.381 489.138 528.013 511.924 515.415 512.059C483.299 512.403 511.364 491.87 492.642 473.148C473.92 454.426 461.968 504.787 431.597 496.977C329.715 470.78 257.668 371.088 279.355 265.745C291.99 204.372 374.837 272.127 384.361 248.911C395.866 220.864 362.491 209.079 386.961 191.184C410.29 174.124 375.786 128.685 397.03 109.09C410.45 96.7128 435.026 95.3956 441.159 78.2004C450.165 52.9466 501.062 80.8283 483.172 59.6101Z" fill="#AFCD6F"/>
<path d="M606.5 170.487C578.904 137.943 489.406 83.7777 352.182 127.459C246.359 161.145 150.743 182.97 64.2668 161.14C10.5731 147.586 -39.5972 117.202 -86.4999 62.3768" stroke="#8B7555" stroke-width="18"/>
<rect opacity="0.5" x="44.6611" y="37.2917" width="38.3456" height="41.0889" rx="7" transform="rotate(15 44.6611 37.2917)" fill="#3D5609"/>
<rect x="390.31" y="21.0372" width="38.3456" height="41.0889" rx="7" transform="rotate(-17.3664 390.31 21.0372)" fill="#3D5609"/>
<rect opacity="0.5" x="120.433" y="22.4095" width="38.3456" height="41.0889" rx="7" transform="rotate(15 120.433 22.4095)" fill="#3D5609"/>
<path d="M-21.1538 195.101C266.518 267.826 378.296 110.622 546.922 187.603" stroke="#78BEF1" stroke-width="37"/>
</g>
<g clip-path="url(#clip2_1574_437)">
<rect width="520" height="260" transform="translate(0 260)" fill="#EBF8CE"/>
<path opacity="0.5" d="M-121.21 542.048C-123.564 569.701 -108.707 587.647 -162.397 587.647C-216.086 587.647 -179.056 428.689 -177.842 326.555C-177.1 264.138 -220.41 202.386 -169.016 166.958C-164.352 163.743 -161.703 161.872 -156.513 159.603C-128.533 147.369 -112.03 181.26 -81.4951 181.667C-19.6657 182.492 3.1203 59.6856 52.3606 97.0881C59.4767 102.493 64.2849 105.411 68.541 113.268C73.264 121.988 67.4053 130.056 72.9538 138.274C81.3906 150.771 98.205 149.552 109.727 150.042C121.25 150.532 115.871 175.346 131.056 188.286C140.645 196.458 166.916 190.506 175.92 199.318C198.873 221.785 131.056 212.557 131.056 239.034C131.056 265.511 190.477 264.53 170.036 288.31C138.685 324.784 213.344 312.761 220.048 360.387C223.331 383.711 170.036 468.501 170.036 468.501C174.449 482.475 105.665 468.38 82.515 478.062C54.5475 489.759 69.8138 521.692 39.8576 517.042C11.2987 512.609 2.5426 485.112 -26.3348 483.946C-44.5758 483.209 -51.7616 509.219 -68.2566 517.042C-92.4818 528.531 -118.857 514.394 -121.21 542.048Z" fill="#AFCD6F"/>
<path d="M483.172 319.61C465.282 298.392 442.087 296.207 480.051 258.243C518.015 220.279 604.232 358.864 675.593 431.942C719.204 476.603 793.493 489.643 782.204 551.035C781.18 556.607 780.629 559.802 778.564 565.077C767.43 593.512 731.796 581.218 709.916 602.521C665.613 645.657 736.338 748.607 675.073 756.977C666.219 758.187 660.756 759.524 652.19 756.977C642.685 754.152 641.123 744.304 631.388 742.416C616.585 739.545 605.558 752.297 597.064 760.098C588.57 767.899 574.827 746.55 554.939 748.136C542.381 749.138 528.013 771.924 515.415 772.059C483.299 772.403 511.364 751.87 492.642 733.148C473.92 714.426 461.968 764.787 431.597 756.977C329.715 730.78 257.668 631.088 279.355 525.745C291.99 464.372 374.837 532.127 384.361 508.911C395.866 480.864 362.491 469.079 386.961 451.184C410.29 434.124 375.786 388.685 397.03 369.09C410.45 356.713 435.026 355.396 441.159 338.2C450.165 312.947 501.062 340.828 483.172 319.61Z" fill="#AFCD6F"/>
<path d="M606.5 430.487C578.904 397.943 489.406 343.778 352.182 387.459C246.359 421.145 150.743 442.97 64.2668 421.14M-86.4999 322.377C-39.5972 377.202 10.5731 407.586 64.2668 421.14M64.2668 421.14C81.5666 377.388 183.597 318.353 306.112 322.905" stroke="#8B7555" stroke-width="18"/>
<rect x="289.252" y="272.881" width="53.6894" height="93.4048" rx="11" transform="rotate(-2.95193 289.252 272.881)" fill="#3D5609"/>
<rect opacity="0.5" x="44.6611" y="297.292" width="38.3456" height="41.0889" rx="7" transform="rotate(15 44.6611 297.292)" fill="#3D5609"/>
<rect opacity="0.5" x="120.434" y="282.41" width="38.3456" height="41.0889" rx="7" transform="rotate(15 120.434 282.41)" fill="#3D5609"/>
<rect opacity="0.5" x="77.3027" y="253.642" width="38.3456" height="41.0889" rx="7" transform="rotate(15 77.3027 253.642)" fill="#3D5609"/>
<path d="M-18.689 440.313C268.983 513.038 395.483 461.321 549.387 432.816" stroke="#78BEF1" stroke-width="22"/>
<rect x="390.31" y="279.446" width="38.3456" height="41.0889" rx="7" transform="rotate(-17.3664 390.31 279.446)" fill="#3D5609"/>
</g>
</g>
<path d="M520 260H0" stroke="#676767" stroke-width="13" stroke-dasharray="26 26"/>
<defs>
<clipPath id="clip0_1574_437">
<rect width="520" height="520" rx="37" fill="white"/>
</clipPath>
<clipPath id="clip1_1574_437">
<rect width="520" height="260" fill="white"/>
</clipPath>
<clipPath id="clip2_1574_437">
<rect width="520" height="260" fill="white" transform="translate(0 260)"/>
</clipPath>
</defs>
</svg>
