<svg width="163" height="49" viewBox="0 0 163 49" fill="none" xmlns="http://www.w3.org/2000/svg">
<path d="M16.32 6V18.32H4V30.64H16.32V42.96H28.64V30.64H40.96V18.32H28.64V6H16.32Z" fill="#EE0000"/>
<path d="M67 10.1H63.7C63.5 8.2 62.3 7.1 60.4 7.1C58 7.1 56.5 9.2 56.5 12.5C56.5 15.9 58 17.9 60.3 17.9C62.2 17.9 63.4 16.8 63.7 14.8H67.1C66.8 18.6 64.2 20.8 60.3 20.8C55.8 20.8 53 17.6 53 12.4C53 7.2 55.8 4 60.3 4C64.4 4.2 66.9 6.7 67 10.1Z" fill="#050500"/>
<path d="M78.9001 13.3V17.4C78.9001 18.8 79.0001 19.8 79.2001 20.5H76.4001C76.3001 20 76.2001 19.5 76.2001 19C75.3001 20.2 74.1001 20.8 72.5001 20.8C70.1001 20.8 68.6001 19.3 68.6001 17.3C68.6001 15.4 69.7001 14.2 73.0001 13.7C73.9001 13.6 75.1001 13.4 75.9001 13.4V13C75.9001 11.6 75.1001 11 74.0001 11C72.8001 11 72.2001 11.7 72.1001 12.7H69.1001C69.2001 10.5 70.8001 8.8 74.0001 8.8C77.2001 8.8 78.9001 10.4 78.9001 13.3ZM75.9001 15.4C75.2001 15.4 74.3001 15.5 73.6001 15.6C72.3001 15.8 71.8001 16.3 71.8001 17.2C71.8001 18.1 72.4001 18.6 73.5001 18.6C74.2001 18.6 74.8001 18.4 75.3001 17.9C75.8001 17.4 76.0001 16.8 76.0001 15.7V15.4H75.9001Z" fill="#050500"/>
<path d="M92.4 13.6V20.6H89.3V13.9C89.3 12.2 88.5 11.4 87.3 11.4C86 11.4 85.1 12.4 85.1 14.5V20.6H82V9.2H84.9V10.6C85.6 9.59999 86.8 8.89999 88.2 8.89999C90.7 8.89999 92.4 10.5 92.4 13.6Z" fill="#050500"/>
<path d="M104.7 13.3V17.4C104.7 18.8 104.8 19.8 105 20.5H102.2C102.1 20 102 19.5 102 19C101.1 20.2 99.8999 20.8 98.2999 20.8C95.8999 20.8 94.3999 19.3 94.3999 17.3C94.3999 15.4 95.4999 14.2 98.7999 13.7C99.6999 13.6 100.9 13.4 101.7 13.4V13C101.7 11.6 100.9 11 99.7999 11C98.5999 11 97.9999 11.7 97.8999 12.7H94.7999C94.8999 10.5 96.4999 8.8 99.6999 8.8C103 8.8 104.7 10.4 104.7 13.3ZM101.7 15.4C101 15.4 100.1 15.5 99.3999 15.6C98.0999 15.8 97.5999 16.3 97.5999 17.2C97.5999 18.1 98.1999 18.6 99.2999 18.6C99.9999 18.6 100.6 18.4 101.1 17.9C101.6 17.4 101.8 16.8 101.8 15.7V15.4H101.7Z" fill="#050500"/>
<path d="M114.9 20.6V19.1C114.2 20.3 112.9 20.9 111.6 20.9C108.7 20.9 106.9 18.5 106.9 14.9C106.9 11.3 108.7 8.90001 111.6 8.90001C112.9 8.90001 114.1 9.50001 114.8 10.6V4.60001H117.9V20.6H114.9ZM110.2 14.9C110.2 17.1 111.2 18.5 112.7 18.5C114.1 18.5 115.1 17.2 115.1 14.9C115.1 12.6 114.1 11.3 112.7 11.3C111.1 11.3 110.2 12.7 110.2 14.9Z" fill="#050500"/>
<path d="M121.1 7.30001V4.60001H124.2V7.30001H121.1ZM121.1 20.6V9.20001H124.2V20.6H121.1Z" fill="#050500"/>
<path d="M136.6 13.3V17.4C136.6 18.8 136.7 19.8 136.9 20.5H134.1C134 20 133.9 19.5 133.9 19C133 20.2 131.8 20.8 130.2 20.8C127.8 20.8 126.3 19.3 126.3 17.3C126.3 15.4 127.4 14.2 130.7 13.7C131.6 13.6 132.8 13.4 133.6 13.4V13C133.6 11.6 132.8 11 131.7 11C130.5 11 129.9 11.7 129.8 12.7H126.7C126.8 10.5 128.4 8.8 131.6 8.8C135 8.8 136.6 10.4 136.6 13.3ZM133.6 15.4C132.9 15.4 132 15.5 131.3 15.6C130 15.8 129.5 16.3 129.5 17.2C129.5 18.1 130.1 18.6 131.2 18.6C131.9 18.6 132.5 18.4 133 17.9C133.5 17.4 133.7 16.8 133.7 15.7V15.4H133.6Z" fill="#050500"/>
<path d="M150.1 13.6V20.6H147V13.9C147 12.2 146.2 11.4 145 11.4C143.7 11.4 142.8 12.4 142.8 14.5V20.6H139.7V9.2H142.6V10.6C143.3 9.59999 144.5 8.89999 145.9 8.89999C148.4 8.89999 150.1 10.5 150.1 13.6Z" fill="#050500"/>
<path d="M60.0001 28.6C64.0001 28.6 65.8001 30.3 65.8001 33.1C65.8001 35.1 64.7001 36.5 62.9001 37C64.0001 37.4 64.6001 38.1 65.3001 40.1L66.9001 44.5H63.3001L62.0001 40.7C61.4001 39 60.8001 38.4 59.2001 38.4H57.4001V44.6H54.1001V28.6H60.0001ZM57.4001 35.9H59.7001C61.7001 35.9 62.5001 35 62.5001 33.5C62.5001 31.9 61.4001 31.3 59.6001 31.3H57.4001V35.9Z" fill="#050500"/>
<path d="M75.7002 41.1H78.9002C78.5002 43.2 76.5002 44.9 73.4002 44.9C69.8002 44.9 67.7002 42.4 67.7002 38.7C67.7002 35.3 69.8002 32.7 73.4002 32.7C76.0002 32.7 78.0002 34.2 78.7002 36.5C78.9002 37.3 79.1002 38.2 79.1002 39.4H70.9002C71.0002 41.8 72.1002 42.6 73.5002 42.6C74.7002 42.7 75.6002 42.1 75.7002 41.1ZM71.0002 37.6H76.0002C75.8002 35.9 74.8002 35.1 73.5002 35.1C72.2002 35 71.2002 35.8 71.0002 37.6Z" fill="#050500"/>
<path d="M89 44.6V43.1C88.3 44.3 87 44.9 85.7 44.9C82.8 44.9 81 42.5 81 38.9C81 35.3 82.8 32.9 85.7 32.9C87 32.9 88.2 33.5 88.9 34.6V28.6H92V44.6H89ZM84.2 38.9C84.2 41.1 85.2 42.5 86.7 42.5C88.1 42.5 89.1 41.2 89.1 38.9C89.1 36.6 88.1 35.3 86.7 35.3C85.1 35.3 84.2 36.7 84.2 38.9Z" fill="#050500"/>
<path d="M113.5 34.1H110.2C110 32.2 108.8 31.1 106.9 31.1C104.5 31.1 103 33.2 103 36.5C103 39.9 104.5 41.9 106.8 41.9C108.7 41.9 109.9 40.8 110.2 38.8H113.6C113.3 42.6 110.7 44.8 106.8 44.8C102.3 44.8 99.5 41.6 99.5 36.4C99.5 31.2 102.3 28 106.8 28C110.8 28.2 113.3 30.7 113.5 34.1Z" fill="#050500"/>
<path d="M123.1 33.1V35.8C122.7 35.7 122.4 35.7 122.1 35.7C120.2 35.7 119.1 36.9 119.1 39.2V44.6H116V33.2H118.9V34.8C119.7 33.6 120.7 33 122 33C122.4 33 122.8 33 123.1 33.1Z" fill="#050500"/>
<path d="M135.5 38.9C135.5 42.6 133.2 45 129.7 45C126.1 45 123.9 42.6 123.9 38.9C123.9 35.2 126.2 32.8 129.7 32.8C133.2 32.8 135.5 35.2 135.5 38.9ZM127.1 38.9C127.1 41.1 128.1 42.5 129.6 42.5C131.1 42.5 132.1 41.1 132.1 38.9C132.1 36.7 131.1 35.3 129.6 35.3C128.1 35.3 127.1 36.7 127.1 38.9Z" fill="#050500"/>
<path d="M146.9 36.7H143.9C143.9 35.5 143.2 35 142.1 35C141.1 35 140.5 35.4 140.5 36.1C140.5 36.9 141.2 37.1 143 37.6C145 38.1 147.3 38.7 147.3 41.4C147.3 43.5 145.4 45 142.3 45C139.1 45 137.2 43.7 137.2 40.9H140.4C140.4 42 141.1 42.7 142.4 42.7C143.5 42.7 144.1 42.3 144.1 41.6C144.1 40.6 143.2 40.4 141.5 39.9C139.6 39.4 137.5 39 137.5 36.3C137.5 34.3 139.4 32.8 142.2 32.8C145.1 32.8 146.9 34.1 146.9 36.7Z" fill="#050500"/>
<path d="M158.7 36.7H155.7C155.7 35.5 155 35 153.9 35C152.9 35 152.3 35.4 152.3 36.1C152.3 36.9 153 37.1 154.7 37.6C156.7 38.1 159 38.7 159 41.4C159 43.5 157.1 45 154 45C150.8 45 148.9 43.7 148.9 40.9H152.1C152.1 42 152.8 42.7 154.1 42.7C155.2 42.7 155.8 42.3 155.8 41.6C155.8 40.6 154.9 40.4 153.2 39.9C151.3 39.4 149.2 39 149.2 36.3C149.2 34.3 151.1 32.8 153.9 32.8C156.9 32.8 158.7 34.1 158.7 36.7Z" fill="#050500"/>
</svg>
