<svg width="425" height="356" viewBox="0 0 425 356" fill="none" xmlns="http://www.w3.org/2000/svg">
<path d="M4.4639 0.646447C4.26864 0.451184 3.95206 0.451184 3.7568 0.646447L0.574818 3.82843C0.379556 4.02369 0.379556 4.34027 0.574818 4.53553C0.77008 4.7308 1.08666 4.7308 1.28192 4.53553L4.11035 1.70711L6.93878 4.53553C7.13404 4.7308 7.45062 4.7308 7.64589 4.53553C7.84115 4.34027 7.84115 4.02369 7.64589 3.82843L4.4639 0.646447ZM4.11035 221.93H3.61035V222.43H4.11035V221.93ZM424.481 222.284C424.676 222.089 424.676 221.772 424.481 221.577L421.299 218.395C421.104 218.199 420.787 218.199 420.592 218.395C420.397 218.59 420.397 218.907 420.592 219.102L423.42 221.93L420.592 224.759C420.397 224.954 420.397 225.271 420.592 225.466C420.787 225.661 421.104 225.661 421.299 225.466L424.481 222.284ZM3.61035 1V221.93H4.61035V1H3.61035ZM4.11035 222.43H424.127V221.43H4.11035V222.43Z" fill="#D8D8D8"/>
<path d="M4 126.77C267.369 154.23 294.149 -18.8135 424.017 40.6443" stroke="#D8D8D8"/>
<path d="M4 148.723C304.19 206.969 266.745 45.9518 424.017 24.7325" stroke="#D8D8D8"/>
<circle cx="395.457" cy="30.602" r="5.86953" fill="#40A0E6"/>
<circle cx="46.5116" cy="155.477" r="5.86953" fill="#40A0E6"/>
<circle cx="228.603" cy="140.724" r="5.86953" fill="#40A0E6"/>
<circle cx="195.391" cy="105.596" r="5.86953" fill="#40A0E6"/>
<path d="M352.385 206.129C398.554 243.124 384.959 274.022 372.771 280.057L244.48 274.149C229.143 250.292 245.133 199.068 257.124 191.218C250.852 170.628 257.124 154.297 291.56 151.812C325.996 149.327 331.18 189.137 352.385 206.129Z" fill="#4C5D78" stroke="black" stroke-linecap="round"/>
<path d="M321.083 236.423C372.296 236.423 380.02 306.78 386.999 335.861L351.433 352.187L205.261 350.979L204.566 333.94C205.665 333.876 214.221 323.433 239.657 282.177C253.66 259.465 275.884 237.188 284.912 236.869C283.97 250.206 288.162 257.349 301.873 257.599C307.195 257.696 320.864 250.496 321.083 236.423Z" fill="#F09797"/>
<path d="M308.797 194.28C296.837 194.067 291.771 181.555 290.732 175.326C288.042 189.219 274.244 192.806 265.283 192.967C265.331 205.953 270.441 231.208 290.45 228.828L285.782 229.412C285.878 230.469 285.96 235.165 285.038 237.011C283.884 239.318 283.74 258.783 299.168 257.629C314.595 256.476 321.804 244.22 321.372 237.011C314.286 233.612 301.851 220.306 308.797 194.28Z" fill="#E9C5BA"/>
<path d="M261.901 192.857C262.909 192.946 264.051 192.989 265.283 192.967M265.283 192.967C274.244 192.806 288.042 189.219 290.732 175.326C291.771 181.555 296.837 194.067 308.797 194.28C301.851 220.306 314.286 233.612 321.372 237.011C321.804 244.22 314.595 256.476 299.168 257.629C283.74 258.783 283.884 239.318 285.038 237.011C285.96 235.165 285.878 230.469 285.782 229.412L290.732 228.793C270.489 231.446 265.332 206.014 265.283 192.967Z" stroke="black" stroke-linecap="round"/>
<path d="M297.049 208.364C296.367 213.41 287.365 218.048 281.227 213.683" stroke="black" stroke-linecap="round"/>
<circle cx="1.94365" cy="1.94365" r="1.94365" transform="matrix(-1 0 0 1 297.8 193.812)" fill="black"/>
<circle cx="1.94365" cy="1.94365" r="1.94365" transform="matrix(-1 0 0 1 276.658 194.87)" fill="black"/>
<circle cx="8.89725" cy="8.89725" r="8.39725" transform="matrix(-1 0 0 1 303.717 187.125)" stroke="#6F0B0B"/>
<circle cx="8.89725" cy="8.89725" r="8.39725" transform="matrix(-1 0 0 1 281.45 188.183)" stroke="#6F0B0B"/>
<path d="M379.096 345.337C357.065 358.832 314.953 350.404 296.409 344.121C289.114 353.241 255.978 354.457 261.754 341.385C267.53 328.314 289.721 328.922 298.233 329.53C306.745 330.138 348.473 327.398 363.592 319.802C381.224 310.944 397.032 334.351 379.096 345.337Z" fill="#E9C5BA" stroke="black"/>
<path d="M282.293 195.755C282.387 200.248 278.34 202.486 279.943 205.852C281.225 208.544 284.572 207.971 286.086 207.347" stroke="black" stroke-linecap="round" stroke-linejoin="round"/>
<path d="M275.273 261.842C262.309 280.857 264.39 326.458 251.426 346.458" stroke="black"/>
<rect x="-0.5" y="0.5" width="104.466" height="7.54467" rx="2.56014" transform="matrix(-1 0 0 1 354.688 347.22)" fill="#D8D8D8" stroke="black"/>
<path d="M235.605 279.499H136.536C132.421 279.499 129.435 283.417 130.527 287.385L147.988 350.823C148.733 353.527 151.192 355.401 153.997 355.401H253.066C257.181 355.401 260.167 351.483 259.074 347.515L241.613 284.077C240.869 281.373 238.41 279.499 235.605 279.499Z" fill="#D8D8D8" stroke="black"/>
<path d="M334.349 282.443C338.386 290.089 341.814 307.096 340.849 322.935" stroke="black"/>
<path d="M403.021 355.431L25.2157 354.996" stroke="#D8D8D8"/>
</svg>
