<svg width="674" height="606" viewBox="0 0 674 606" fill="none" xmlns="http://www.w3.org/2000/svg">
<path d="M59.0314 301.83C176.88 355.331 267.015 362.691 344.146 338.164C372.428 329.17 391.862 311.455 385.391 303.201C377.682 294.176 359.767 317.061 329.522 316.963C347.425 310.811 382.158 295.564 377.87 283.798C373.583 272.032 347.583 291.654 318.537 297.302C335.74 289.424 368.507 271.558 361.952 263.122C353.759 252.578 297.12 287.597 294.573 275.367C292.026 263.136 320.37 256.468 308.594 245.267C296.819 234.065 253.788 295.217 82.2815 214.936" stroke="black" stroke-linecap="round" stroke-linejoin="round"/>
<path d="M615.794 360.433C501.572 421.294 412.085 434.352 333.555 414.761C304.759 407.577 284.242 391.13 290.177 382.483C297.298 372.987 316.628 394.691 346.805 392.676C328.549 387.671 292.919 374.655 296.453 362.642C299.986 350.628 327.177 368.563 356.523 372.359C338.855 365.586 305.022 349.833 311.029 340.999C318.537 329.957 377.282 361.316 379.049 348.949C380.815 336.582 352.106 331.723 363.148 319.798C374.19 307.872 421.009 366.175 587.084 275.187" stroke="black" stroke-linecap="round" stroke-linejoin="round"/>
<path d="M412.203 151.758C415.277 189.872 360.894 227.822 351.897 242.217C341.498 215.425 276.905 193.896 300.585 145.41C311.071 123.938 342.319 136.823 350.116 151.518C354.978 124.817 409.558 118.96 412.203 151.758Z" fill="#FAB443"/>
<path d="M422.203 146.758C425.277 184.872 370.894 222.822 361.898 237.217C351.498 210.425 286.905 188.896 310.585 140.41C321.071 118.938 352.319 131.823 360.116 146.518C364.978 119.817 419.558 113.96 422.203 146.758Z" stroke="black" stroke-linecap="round" stroke-linejoin="round"/>
</svg>
