<?xml version="1.0" encoding="UTF-8" standalone="no"?>
<svg
   width="519.42407"
   height="518.71582"
   viewBox="0 0 519.42407 518.71582"
   fill="none"
   version="1.1"
   id="svg37"
   xmlns="http://www.w3.org/2000/svg"
   xmlns:svg="http://www.w3.org/2000/svg">
  <defs
     id="defs41" />
  <rect
     width="800"
     height="800"
     fill="#ffffff"
     id="rect2"
     x="-140.28799"
     y="-140.28799" />
  <rect
     x="0"
     y="0"
     width="519.42401"
     height="519.42401"
     fill="#d7f29e"
     id="rect6" />
  <mask
     id="mask0_102_25"
     maskUnits="userSpaceOnUse"
     x="140"
     y="140"
     width="520"
     height="520">
    <rect
       x="140.28799"
       y="140.28799"
       width="519.42401"
       height="519.42401"
       fill="#d7f29e"
       id="rect8" />
  </mask>
  <g
     mask="url(#mask0_102_25)"
     id="g17"
     transform="translate(-140.28799,-140.28799)">
    <path
       opacity="0.5"
       d="m 181.79,576.425 c -2.354,27.653 12.503,45.599 -41.187,45.599 -53.6892,0 -16.659,-158.958 -15.445,-261.092 0.743,-62.418 -42.5676,-124.169 8.826,-159.598 4.664,-3.215 7.313,-5.085 12.503,-7.354 27.98,-12.234 44.484,21.657 75.018,22.064 61.829,0.825 84.615,-121.9817 133.856,-84.579 7.116,5.405 11.924,8.323 16.18,16.18 4.723,8.72 -1.136,16.787 4.413,25.006 8.437,12.497 25.251,11.277 36.773,11.768 11.523,0.49 6.144,25.303 21.329,38.244 9.589,8.172 35.86,2.22 44.864,11.032 22.953,22.467 -44.864,13.239 -44.864,39.716 0,26.477 59.421,25.495 38.98,49.276 -31.35,36.473 43.308,24.451 50.012,72.076 3.283,23.324 -50.012,108.115 -50.012,108.115 4.413,13.974 -64.371,-0.121 -87.521,9.561 -27.967,11.696 -12.701,43.629 -42.657,38.98 -28.559,-4.433 -37.315,-31.93 -66.193,-33.097 -18.241,-0.737 -25.427,25.274 -41.922,33.097 -24.225,11.489 -50.6,-2.648 -52.953,25.006 z"
       fill="#afcd6f"
       id="path11" />
    <path
       d="m 571.832,-110.287 c -17.889,-21.219 -41.084,-23.403 -3.12,-61.367 37.964,-37.964 124.18,100.6204 195.541,173.69876 43.611,44.66054 117.901,57.70044 106.612,119.09324 -1.025,5.571 -1.575,8.766 -3.641,14.041 -11.134,28.435 -46.768,16.141 -68.647,37.444 -44.303,43.137 26.422,146.086 -34.844,154.457 -8.854,1.21 -14.317,2.547 -22.882,0 -9.505,-2.826 -11.068,-12.673 -20.803,-14.562 -14.802,-2.871 -25.829,9.881 -34.323,17.682 -8.495,7.801 -22.237,-13.548 -42.125,-11.961 -12.558,1.002 -26.926,23.788 -39.524,23.923 -32.117,0.344 -4.052,-20.189 -22.774,-38.911 C 562.58,284.529 550.628,334.889 520.258,327.08 418.376,300.883 346.329,201.19 368.016,95.848 c 12.635,-61.3736 95.482,6.381 105.006,-16.8349 11.505,-28.0469 -21.87,-39.8318 2.6,-57.7264 23.328,-17.05983 -11.175,-62.4996 10.069,-82.094 13.419,-12.3773 37.996,-13.6945 44.128,-30.8898 9.006,-25.2539 59.903,2.628 42.013,-18.5899 z"
       fill="#afcd6f"
       id="path13" />
    <path
       d="m 125.894,658.797 c 0.98,-42.657 36.479,-141.063 170.629,-193.428 103.453,-40.383 191.51,-83.566 245,-154.934 m 55.072,-171.616 c -1.972,72.123 -21.859,127.303 -55.072,171.616 m 0,0 c -40.97,-23.128 -157.421,-4.837 -249.796,75.771"
       stroke="#8b7555"
       stroke-width="18"
       id="path15" />
  </g>
  <rect
     x="-41.835285"
     y="245.89655"
     width="53.6894"
     height="93.4048"
     transform="rotate(-30.6285)"
     fill="#3d5609"
     id="rect19" />
  <rect
     opacity="0.5"
     x="0"
     y="173.142"
     width="259.423"
     height="173.14101"
     fill="#ffffff"
     id="rect21" />
  <rect
     opacity="0.5"
     x="431.34265"
     y="218.24895"
     width="38.3456"
     height="41.088902"
     transform="rotate(15)"
     fill="#3d5609"
     id="rect23" />
  <rect
     opacity="0.5"
     x="475.65363"
     y="216.64995"
     width="38.3456"
     height="41.088902"
     transform="rotate(15)"
     fill="#3d5609"
     id="rect25" />
  <path
     d="M 259.42301,5.6152344e-6 V 173.14101 H -0.57699438"
     stroke="#000000"
     stroke-width="2"
     id="path27" />
  <path
     d="M -0.57699438,346.28301 H 259.42301 v 173.141"
     stroke="#000000"
     stroke-width="2"
     id="path29" />
  <path
     d="M 259.42301,5.6152344e-6 V 173.14101 h 260.001"
     stroke="#000000"
     stroke-width="2"
     id="path31" />
  <path
     d="m 519.42401,173.14101 h -260.001 v 173.142 h 260.001"
     stroke="#000000"
     stroke-width="2"
     id="path33" />
  <path
     d="m 519.42401,346.28301 h -260.001 v 173.141"
     stroke="#000000"
     stroke-width="2"
     id="path35" />
</svg>
