<svg width="521" height="520" viewBox="0 0 521 520" fill="none" xmlns="http://www.w3.org/2000/svg">
<rect x="1.28809" y="0.288086" width="519.424" height="519.424" rx="36" fill="#D7F29E"/>
<mask id="mask0_1323_419" style="mask-type:alpha" maskUnits="userSpaceOnUse" x="1" y="0" width="520" height="520">
<rect x="1.28809" y="0.288086" width="519.424" height="519.424" rx="36" fill="#D7F29E"/>
</mask>
<g mask="url(#mask0_1323_419)">
<path opacity="0.5" d="M42.7898 436.425C40.4363 464.078 55.2928 482.024 1.60339 482.024C-52.086 482.024 -15.0559 323.066 -13.8415 220.932C-13.0993 158.514 -56.4095 96.7629 -5.01585 61.3344C-0.351822 58.1193 2.29675 56.2491 7.48716 53.9797C35.4668 41.7462 51.9707 75.6365 82.5052 76.0439C144.335 76.8687 167.121 -45.9377 216.361 -8.53522C223.477 -3.12995 228.285 -0.212358 232.541 7.64514C237.264 16.3645 231.406 24.4324 236.954 32.6511C245.391 45.1482 262.205 43.9284 273.728 44.4187C285.25 44.909 279.872 69.7224 295.056 82.6632C304.645 90.8349 330.917 84.8828 339.92 93.6952C362.873 116.162 295.056 106.934 295.056 133.411C295.056 159.888 354.477 158.906 334.036 182.687C302.686 219.16 377.345 207.138 384.048 254.763C387.331 278.087 334.036 362.878 334.036 362.878C338.449 376.852 269.666 362.757 246.515 372.439C218.548 384.135 233.814 416.068 203.858 411.419C175.299 406.986 166.543 379.489 137.665 378.322C119.424 377.585 112.239 403.596 95.7437 411.419C71.5184 422.908 45.1433 408.771 42.7898 436.425Z" fill="#AFCD6F"/>
<path d="M432.832 -250.287C414.943 -271.506 391.748 -273.69 429.712 -311.654C467.676 -349.618 553.892 -211.034 625.253 -137.955C668.864 -93.2947 743.154 -80.2548 731.865 -18.8623C730.84 -13.2909 730.29 -10.0957 728.224 -4.82079C717.09 23.6143 681.456 11.3201 659.577 32.6233C615.274 75.76 685.999 178.709 624.733 187.08C615.879 188.29 610.416 189.627 601.851 187.08C592.346 184.254 590.783 174.407 581.048 172.518C566.246 169.647 555.219 182.399 546.725 190.2C538.23 198.001 524.488 176.652 504.6 178.239C492.042 179.241 477.674 202.027 465.076 202.162C432.959 202.506 461.024 181.973 442.302 163.251C423.58 144.529 411.628 194.889 381.258 187.08C279.376 160.883 207.329 61.1901 229.016 -44.152C241.651 -105.526 324.498 -37.7709 334.022 -60.9869C345.527 -89.0338 312.152 -100.819 336.622 -118.713C359.95 -135.773 325.447 -181.213 346.691 -200.807C360.11 -213.185 384.687 -214.502 390.819 -231.697C399.825 -256.951 450.722 -229.069 432.832 -250.287Z" fill="#AFCD6F"/>
<path d="M-13.106 518.797C-12.1253 476.14 23.3734 377.734 157.523 325.369C260.976 284.986 349.033 241.803 402.524 170.435M457.595 -1.18054C455.623 70.9424 435.736 126.122 402.524 170.435M402.524 170.435C361.553 147.307 245.103 165.598 152.727 246.206" stroke="#8B7555" stroke-width="18"/>
</g>
<rect x="90.5662" y="233.193" width="53.6894" height="93.4048" rx="11" transform="rotate(-30.6285 90.5662 233.193)" fill="#3D5609"/>
<rect opacity="0.5" x="1.28809" y="173.43" width="259.423" height="173.141" fill="white"/>
<rect opacity="0.5" x="361.446" y="322.74" width="38.3456" height="41.0889" rx="7" transform="rotate(15 361.446 322.74)" fill="#3D5609"/>
<rect opacity="0.5" x="404.661" y="332.664" width="38.3456" height="41.0889" rx="7" transform="rotate(15 404.661 332.664)" fill="#3D5609"/>
<path d="M260.712 0.288086V173.429H0.710938" stroke="black" stroke-width="2"/>
<path d="M0.710938 346.571H260.712V519.712" stroke="black" stroke-width="2"/>
<path d="M260.711 0.288086V173.429H520.712" stroke="black" stroke-width="2"/>
<path d="M520.712 173.429H260.711V346.571H520.712" stroke="black" stroke-width="2"/>
<path d="M520.712 346.571H260.711V519.712" stroke="black" stroke-width="2"/>
</svg>
