<svg width="546" height="339" viewBox="0 0 546 339" fill="none" xmlns="http://www.w3.org/2000/svg">
<path d="M257.427 293.398L257.423 293.274L257.36 293.166C257.035 292.602 257.008 292.061 257.214 291.502C257.429 290.919 257.909 290.295 258.645 289.64C260.116 288.332 262.458 287.032 265.126 285.783C267.551 284.649 270.204 283.574 272.649 282.584C272.886 282.488 273.12 282.393 273.352 282.299C275.968 281.239 278.314 280.27 279.744 279.445C285.077 276.365 291.897 278.193 294.977 283.526C298.056 288.86 296.229 295.68 290.895 298.759C289.584 299.516 286.853 300.323 283.427 300.902C280.022 301.478 275.996 301.817 272.134 301.672C268.263 301.527 264.603 300.897 261.901 299.566C259.218 298.245 257.531 296.268 257.427 293.398Z" fill="#CECECE" stroke="black"/>
<path d="M193.602 314.348L193.606 314.224L193.668 314.116C193.994 313.552 194.021 313.01 193.815 312.452C193.6 311.868 193.12 311.245 192.384 310.59C190.913 309.282 188.571 307.982 185.903 306.733C183.478 305.599 180.825 304.524 178.379 303.534C178.143 303.438 177.909 303.343 177.677 303.249C175.061 302.188 172.715 301.22 171.285 300.394C165.951 297.315 159.131 299.143 156.052 304.476C152.973 309.81 154.8 316.63 160.134 319.709C161.445 320.466 164.176 321.273 167.601 321.852C171.007 322.428 175.033 322.767 178.895 322.622C182.766 322.477 186.426 321.847 189.128 320.516C191.811 319.195 193.498 317.218 193.602 314.348Z" fill="#CECECE" stroke="black"/>
<path d="M287.945 301.398L287.94 301.274L287.878 301.166C287.553 300.603 287.526 300.061 287.732 299.502C287.947 298.919 288.427 298.295 289.162 297.641C290.634 296.332 292.975 295.032 295.644 293.784C298.068 292.649 300.722 291.575 303.167 290.584C303.403 290.489 303.638 290.394 303.87 290.3C306.485 289.239 308.831 288.271 310.261 287.445C315.595 284.365 322.415 286.193 325.494 291.527C328.574 296.86 326.746 303.68 321.413 306.76C320.102 307.516 317.371 308.323 313.945 308.902C310.54 309.478 306.513 309.817 302.651 309.673C298.78 309.527 295.121 308.897 292.418 307.567C289.736 306.246 288.049 304.268 287.945 301.398Z" fill="#CECECE" stroke="black"/>
<path d="M263.752 277.903C250.325 258.793 263.854 128.243 270.767 108.925C277.986 99.4696 296.144 83.1208 311.029 93.3693C329.635 106.18 334.515 114.11 331.16 154.982C328.476 187.68 338.819 273.933 335.125 282.173C329.96 293.697 294.199 292.247 289.983 280.343C284.886 282.697 269.666 286.321 263.752 277.903Z" fill="#CDE5FF"/>
<path d="M289.983 280.343C284.886 282.697 269.666 286.321 263.752 277.903C250.325 258.793 263.854 128.243 270.767 108.925C277.986 99.4696 296.144 83.1208 311.029 93.3693C329.635 106.18 334.515 114.11 331.16 154.982C328.476 187.68 338.819 273.933 335.125 282.173C329.96 293.697 294.199 292.247 289.983 280.343ZM289.983 280.343C282.559 255.978 278.931 142.007 284.79 117.218" stroke="black"/>
<path d="M291.738 159.136C300.531 151.227 300.055 104.596 294.807 95.199C297.647 89.8506 305.023 80.2655 313.766 87.1034C323.289 109.933 314.196 146.791 309.625 157.353C307.121 163.136 312.954 169.418 296.484 169.757C294.766 169.792 284.34 170.096 275.407 169.87C273.174 165.124 288.309 162.22 291.738 159.136Z" fill="#E9C5BA" stroke="black"/>
<path d="M281.37 61.0224V61.0277C281.37 75.3506 280.663 88.8528 275.903 98.8302C273.531 103.803 270.156 107.889 265.362 110.765C260.567 113.641 254.317 115.329 246.16 115.446C238.725 115.098 233.534 112.954 230.033 109.523C226.526 106.087 224.652 101.3 223.975 95.5486C222.617 84.0192 226.086 68.8205 230.524 53.5212L230.557 53.4067L230.535 53.2896C226.919 34.0439 227.955 22.7716 231.88 16.319C235.769 9.92639 242.594 8.12579 251.054 8.12579C259.461 8.12579 267.101 10.4821 272.613 18.1814C278.154 25.9221 281.603 39.1408 281.37 61.0224Z" fill="#A7B0BE" stroke="black"/>
<path d="M253.039 109.749L217.332 172.768L197.343 169.443L209.985 162.793C218.528 153.292 219.436 135.344 233.05 115.766C236.959 110.145 240.3 103.736 238.881 101.747C238.064 101.56 237.305 101.379 236.638 101.199C237.78 100.999 238.501 101.214 238.881 101.747C245.729 103.308 256.703 105.223 253.039 109.749Z" fill="#E9C5BA"/>
<path d="M253.039 109.749L217.332 172.768L197.343 169.443L209.985 162.793C218.528 153.292 219.436 135.344 233.05 115.766C238.005 108.641 242.048 100.249 236.638 101.199C242.902 102.888 257.14 104.683 253.039 109.749Z" stroke="black"/>
<path d="M270.131 49.0772C275.556 47.0714 288.84 45.2205 298.577 53.8639C308.315 62.5073 316.344 80.5354 318.818 86.5502C321.293 92.5651 305.023 98.3515 295.801 98.4365C296.624 100.104 297.176 103.649 297.176 103.649C290.976 107.16 276.887 113.164 271.088 110.757C267.543 109.286 263.546 103.685 260.338 98.0856C260.338 98.0856 260.35 108.675 255.771 112.262C248.342 118.079 231.883 114.723 234.299 101.184C236.715 87.6443 244.623 58.9468 257.138 52.9066C265.605 48.8201 268.874 47.6928 270.131 49.0772Z" fill="#FFC7C7"/>
<path d="M260.46 98.4167L249.21 76.2444" stroke="black" stroke-linecap="round"/>
<path d="M319.183 88.0074C315.918 97.0862 296.773 98.6749 293.177 98.2199C289.582 97.765 281.435 73.2201 281.435 73.2201" stroke="black" stroke-linecap="round"/>
<path d="M237.544 27.3519C241.92 26.8437 250.943 24.6584 252.027 19.983C253.241 22.0441 256.533 26.0475 259.989 25.5732C264.309 24.9803 262.276 22.2699 264.986 22.3546C267.697 22.4393 269.306 28.7918 262.784 30.6552L270.322 49.6278C270.181 51.3218 268.73 55.0994 264.055 56.6579C259.379 58.2163 257.533 54.8792 257.194 53.0158C257.138 50.8701 256.686 46.0027 255.331 43.6989L258.004 41.774C252.748 45.1661 243.578 47.5016 239.238 35.3983C238.25 35.8783 236.155 36.4994 235.68 35.1442C235.087 33.4502 238.984 31.1634 237.544 27.3519Z" fill="#E9C5BA"/>
<path d="M237.544 27.3519C241.92 26.8437 250.943 24.6584 252.027 19.983C253.241 22.0441 256.533 26.0475 259.989 25.5732C264.309 24.9803 262.276 22.2699 264.986 22.3546C267.697 22.4393 269.306 28.7918 262.784 30.6552L270.322 49.6278C270.181 51.3218 268.73 55.0994 264.055 56.6579C259.379 58.2163 257.533 54.8792 257.194 53.0158C257.138 50.8701 256.686 46.0027 255.331 43.6989L259.566 40.6497C254.794 44.4894 244.049 48.8147 239.238 35.3983C238.25 35.8783 236.155 36.4994 235.68 35.1442C235.087 33.4502 238.984 31.1634 237.544 27.3519Z" stroke="black" stroke-linecap="round" stroke-linejoin="round"/>
<path d="M240.663 38.3829C241.83 38.4933 244.287 37.9949 244.779 35.1182" stroke="black" stroke-linecap="round" stroke-linejoin="round"/>
<path d="M132.052 253.974L132.118 253.869L132.225 253.807C132.789 253.481 133.084 253.025 133.184 252.439C133.29 251.826 133.186 251.046 132.876 250.111C132.256 248.242 130.878 245.946 129.192 243.53C127.659 241.335 125.899 239.078 124.276 236.998C124.119 236.797 123.964 236.597 123.81 236.4C122.075 234.173 120.528 232.162 119.702 230.732C116.623 225.398 109.802 223.571 104.469 226.65C99.1352 229.729 97.3078 236.55 100.387 241.883C101.144 243.194 103.106 245.258 105.783 247.473C108.444 249.674 111.761 251.981 115.178 253.786C118.603 255.596 122.088 256.88 125.093 257.079C128.077 257.277 130.527 256.408 132.052 253.974Z" fill="#CECECE" stroke="black"/>
<path d="M145.661 296.455L129.087 225.876C133.659 210.826 145.318 182.556 155.376 189.872C165.434 197.187 177.283 263.023 181.951 295.027C167.778 305.085 151.852 300.17 145.661 296.455Z" fill="#FFA800"/>
<path d="M145.661 296.455C143.714 288.26 129.087 225.876 129.087 225.876C133.659 210.826 145.318 182.556 155.376 189.872C165.434 197.187 182.264 286.208 181.951 295.027C181.448 309.201 147.608 304.651 145.661 296.455Z" fill="#FFA800"/>
<path d="M47.9763 166.985C28.4625 152.137 46.6645 127.676 57.0307 115.999C60.9007 122.54 75.5758 133.887 85.1228 133.723C103.877 133.402 152.948 149.362 175.348 158.179C175.348 158.179 148.146 231.35 130.13 233.066C112.115 234.782 99.6202 228.374 97.5149 216.336C95.7704 206.361 120.413 175.075 128.913 164.642C115.453 175.107 63.0655 178.467 47.9763 166.985Z" fill="#FFD600"/>
<path d="M119.647 9.17908C98.8599 11.2379 84.7495 34.0945 94.0214 56.1312C103.293 78.1679 97.1498 81.3073 111.6 104.546C126.05 127.784 171.337 121.38 153.557 51.5885C150.232 38.5386 140.749 7.08912 119.647 9.17908Z" fill="#8A6B3C" stroke="black"/>
<path d="M138.104 48.9321C136.939 49.9577 135.695 50.6331 134.642 50.9112C133.557 51.1979 132.837 51.0315 132.497 50.645C132.156 50.2585 132.082 49.5232 132.504 48.4832C132.913 47.4742 133.74 46.3252 134.905 45.2996C136.07 44.2739 137.314 43.5986 138.367 43.3204C139.452 43.0338 140.172 43.2002 140.512 43.5867C140.853 43.9731 140.927 44.7085 140.505 45.7485C140.096 46.7574 139.268 47.9065 138.104 48.9321Z" fill="white" stroke="black"/>
<path d="M109.746 40.5741C109.177 47.4661 100.447 56.9247 94.7805 60.6321C101.725 60.1258 105.632 65.6658 106.717 68.4991L116.935 55.4779C115.597 55.5871 113.785 53.6546 113.046 52.6747C120.733 58.8236 128.599 53.4885 129.865 51.5896C130.878 50.0705 132.458 51.1978 133.121 51.9513C132.253 48.9854 134.025 46.0134 135.02 44.8981C128.075 37.4471 127.846 32.8113 128.599 31.4248C124.035 35.7055 120.431 32.0383 116.511 34.441C113.666 25.2096 104.245 40.9535 109.746 40.5741Z" fill="#EFCF9F" stroke="black" stroke-linecap="round" stroke-linejoin="round"/>
<path d="M126.52 49.329C126.64 50.1729 127.243 52.0598 128.69 52.8556" stroke="black" stroke-linecap="round" stroke-linejoin="round"/>
<path d="M130.957 43.1852C129.604 44.377 128.155 45.1645 126.924 45.4897C125.661 45.8235 124.79 45.639 124.366 45.1582C123.943 44.6774 123.87 43.7892 124.361 42.5785C124.839 41.3988 125.804 40.0611 127.157 38.8693C128.51 37.6776 129.959 36.89 131.19 36.5648C132.453 36.2311 133.325 36.4156 133.748 36.8964C134.172 37.3772 134.244 38.2653 133.754 39.476C133.275 40.6557 132.311 41.9934 130.957 43.1852Z" fill="white" stroke="black"/>
<path d="M94.6731 60.5521C75.21 64.3624 61.2022 98.0437 56.8379 116.016C61.7176 122.133 74.1988 134.202 85.0854 133.542C83.7854 126.973 90.8642 121.631 93.6918 116.85C95.8675 122.202 98.4999 127.111 101.223 131.029C115.098 150.991 136.395 160.035 160.256 166.327L165.521 153.417C159.473 148.846 136.923 136.687 122.503 118.848C106.779 99.3951 114.158 56.7377 94.6731 60.5521Z" fill="#DCDCDC"/>
<path d="M85.4529 79.9581C80.3326 90.2698 88.4633 103.991 93.6918 116.85M93.6918 116.85C95.8675 122.202 98.4999 127.111 101.223 131.029C115.098 150.991 136.395 160.035 160.256 166.327L165.521 153.417C159.473 148.846 136.923 136.687 122.503 118.848C106.779 99.3951 114.158 56.7377 94.6731 60.5521C75.21 64.3624 61.2022 98.0437 56.8379 116.016C61.7176 122.133 74.1988 134.202 85.0854 133.542C83.7854 126.973 90.8642 121.631 93.6918 116.85Z" stroke="black"/>
<path d="M187.89 157.931C182.429 156.211 170.36 155.192 165.009 154.897L159.801 166.611C161.761 165.727 163.213 164.049 177.777 167.791C195.98 172.469 200.784 168.802 201.416 167.033C202.048 165.263 194.716 160.08 187.89 157.931Z" fill="#EFCF9F" stroke="black"/>
<rect x="118.372" y="165.174" width="64.1586" height="4.27905" rx="1.5433" fill="#D8D8D8" stroke="black"/>
<path d="M209.376 123.026H267.59C270.324 123.026 272.002 126.021 270.575 128.353L246.393 167.864C245.757 168.904 244.627 169.537 243.408 169.537H182.953C180.219 169.537 178.54 166.542 179.968 164.21L202.979 126.611C204.342 124.384 206.765 123.026 209.376 123.026Z" fill="#D8D8D8" stroke="black"/>
<path d="M437.577 312.044L437.467 311.986H437.342C436.691 311.986 436.209 311.739 435.828 311.281C435.43 310.803 435.13 310.076 434.931 309.111C434.534 307.183 434.579 304.505 434.832 301.57C435.061 298.903 435.457 296.068 435.822 293.455C435.858 293.202 435.893 292.952 435.927 292.704C436.316 289.908 436.651 287.392 436.651 285.741C436.651 279.582 441.643 274.59 447.802 274.59C453.961 274.59 458.954 279.582 458.954 285.741C458.954 287.255 458.287 290.024 457.075 293.28C455.871 296.516 454.152 300.173 452.096 303.445C450.034 306.725 447.659 309.579 445.155 311.254C442.67 312.917 440.114 313.39 437.577 312.044Z" fill="#CECECE" stroke="black"/>
<path d="M388.745 318.973L388.74 318.849L388.678 318.741C388.353 318.177 388.326 317.636 388.532 317.077C388.747 316.494 389.227 315.87 389.963 315.215C391.434 313.907 393.776 312.607 396.444 311.358C398.869 310.224 401.522 309.149 403.967 308.159C404.204 308.063 404.438 307.968 404.67 307.874C407.286 306.814 409.631 305.845 411.061 305.02C416.395 301.94 423.215 303.768 426.295 309.101C429.374 314.435 427.546 321.255 422.213 324.334C420.902 325.091 418.171 325.898 414.745 326.477C411.34 327.053 407.314 327.392 403.452 327.247C399.58 327.102 395.921 326.472 393.219 325.141C390.536 323.82 388.849 321.843 388.745 318.973Z" fill="#CECECE" stroke="black"/>
<path fill-rule="evenodd" clip-rule="evenodd" d="M52.5423 176.381L1.03389 176.654L1 170.254L545.085 167.373L545.119 173.773L477.989 174.128V316.636H471.588V174.162L58.9425 176.348V316.636H52.5423V176.381Z" fill="#D8D8D8" stroke="black"/>
<path d="M467.052 141.642C468.324 148.1 468.608 163.247 459.567 172.171C448.265 183.325 439.752 230.733 442.541 252.602C442.541 252.602 449.343 259.3 452.381 265.412C455.42 271.524 433.061 286.416 433.061 286.416C433.061 286.416 432.705 293.265 431.5 301.926C430.295 310.588 399.172 309.631 398.16 301.401C397.148 293.171 397.929 256.679 397.929 256.679C381.264 236.619 365.415 214.862 365.51 205.618C365.661 191.026 388.388 152.78 399.732 135.481C410.891 130.814 439.978 125.511 467.052 141.642Z" fill="#86AFFF"/>
<path d="M442.541 252.602C439.752 230.733 448.265 183.325 459.567 172.171C468.608 163.247 468.324 148.1 467.052 141.642C439.978 125.511 410.891 130.814 399.732 135.481C388.388 152.78 365.661 191.026 365.51 205.618C365.415 214.862 381.264 236.619 397.929 256.679M442.541 252.602L408.281 202.974M442.541 252.602C442.541 252.602 449.343 259.3 452.381 265.412C455.42 271.524 433.061 286.416 433.061 286.416M408.281 202.974C408.246 201.006 408.396 198.004 408.848 194.173M408.281 202.974L404.996 198.776M419.961 152.603C413.059 169.545 409.99 184.501 408.848 194.173M408.848 194.173L404.996 198.776M404.996 198.776L401.751 194.414M397.929 256.679C407.569 268.282 414.036 277.689 424.741 287.036C427.36 289.322 433.061 286.416 433.061 286.416M397.929 256.679C397.929 256.679 397.148 293.171 398.16 301.401C399.172 309.631 430.295 310.588 431.5 301.926C432.705 293.265 433.061 286.416 433.061 286.416" stroke="black"/>
<path d="M428.172 141.299C430.351 141.611 441.166 142.874 466.994 145.435C511.222 149.821 492.438 53.5174 442.981 50.1797L423.769 52.3143C393.098 53.5599 391.004 93.1198 395.486 116.218L429.039 132.828L428.172 141.299Z" fill="#D7F29E"/>
<path d="M428.172 141.299L429.039 132.828L429.906 124.356L462.058 120.888L459.257 85.1335" stroke="black"/>
<path d="M388.216 103.095H400.668C402.436 103.095 404.04 104.13 404.768 105.741L416.246 131.115C417.593 134.094 415.415 137.47 412.146 137.47H402.793C401.025 137.47 399.421 136.435 398.692 134.824L385.938 106.625C385.189 104.971 386.399 103.095 388.216 103.095Z" fill="#D8D8D8" stroke="black"/>
<path d="M415.241 2.66487C395.974 5.98678 403.227 19.4405 409.262 25.7521L441.816 32.3959C457.263 0.00734907 439.325 -1.48751 415.241 2.66487Z" fill="#382200" stroke="black" stroke-linejoin="round"/>
<path d="M411.549 22.0363L409.845 16.7759C412.242 18.4393 430.687 14.0204 430.687 14.0204C430.687 14.0204 433.075 21.6188 434.544 23.2387C434.695 21.6188 435.957 18.6295 439.805 19.6315C443.652 20.6335 441.408 24.558 439.805 26.395L442.761 50.2424C442.059 51.8623 439.113 55.3926 432.941 56.555C426.769 57.7173 424.124 54.2671 423.573 52.3967L422.971 42.0261C414.835 42.7475 412.601 33.9767 412.5 29.5012C411.181 29.8686 408.442 30.413 408.042 29.6515L411.549 22.0363Z" fill="#E9C5BA"/>
<path d="M422.971 42.0261C414.835 42.7475 412.601 33.9767 412.5 29.5012C411.181 29.8686 408.442 30.413 408.042 29.6515L411.549 22.0363L409.845 16.7759C412.242 18.4393 430.687 14.0204 430.687 14.0204C430.687 14.0204 433.075 21.6188 434.544 23.2387C434.695 21.6188 435.957 18.6295 439.805 19.6315C443.652 20.6335 441.408 24.558 439.805 26.395L442.761 50.2424C442.059 51.8623 439.113 55.3926 432.941 56.5549C426.769 57.7173 424.124 54.2671 423.573 52.3967L422.971 42.0261ZM422.971 42.0261C431.107 41.3046 435.146 37.7175 436.148 36.0141" stroke="black" stroke-linejoin="round"/>
<path d="M419.63 28.7977C419.729 28.5399 419.6 28.2506 419.342 28.1515C419.085 28.0524 418.795 28.1809 418.696 28.4387L419.63 28.7977ZM412.65 32.5332C413.501 32.7514 414.848 32.8205 416.184 32.3355C417.541 31.8428 418.865 30.7844 419.63 28.7977L418.696 28.4387C418.041 30.1429 416.94 30.997 415.842 31.3955C414.724 31.8017 413.586 31.7407 412.899 31.5645L412.65 32.5332Z" fill="black"/>
<path d="M423.01 125.606L429.786 125.053L428.393 139.086C419.184 138.114 388.78 137.117 389.655 121.753C388.695 120.545 387.118 118.284 388.621 117.376C390.537 116.219 395.054 121.712 396.803 122.919C395.815 121.988 395.132 121.046 394.62 120.231C393.296 118.122 393.169 116.784 393.488 116.342C394.387 115.097 395.977 117.033 400.679 119.937C404.44 122.26 409.303 123.124 410.199 121.089C411.094 119.055 408.491 113.922 408.491 113.922C412.142 113.867 419.692 121.689 423.01 125.606Z" fill="#E9C5BA"/>
<path d="M403.143 126.394C400.178 125.51 398.19 124.225 396.803 122.919M400.437 129.689C397.627 128.882 392.011 124.716 389.655 121.753M389.655 121.753C388.695 120.545 387.118 118.284 388.621 117.376C390.537 116.219 395.054 121.712 396.803 122.919M389.655 121.753C388.78 137.117 419.184 138.114 428.393 139.086L429.786 125.053L423.01 125.606C419.692 121.689 412.142 113.867 408.491 113.922C408.491 113.922 411.094 119.055 410.199 121.089C409.303 123.124 404.44 122.26 400.679 119.937C395.977 117.033 394.387 115.097 393.488 116.342C393.169 116.784 393.296 118.122 394.62 120.231C395.132 121.046 395.815 121.988 396.803 122.919" stroke="black"/>
<path d="M413.771 75.0237L410.935 114.675" stroke="black"/>
</svg>
