<svg width="427" height="394" viewBox="0 0 427 394" fill="none" xmlns="http://www.w3.org/2000/svg">
<path d="M337.946 197.125C355.868 267.01 282.231 325.637 213.626 325.637C145.02 325.637 82.6586 264.882 82.6586 196.276C82.6586 127.67 145.119 80.6155 213.725 80.6155C282.33 80.6155 317.651 128.681 337.946 197.125Z" fill="#86AFFF"/>
<path d="M314.277 265.845C323.92 253.673 337.441 238.277 337.936 199.233C338.804 130.631 284.449 73.3547 215.842 72.9129C196.422 72.7883 181.854 76.9593 175.204 81.574C168.261 86.387 176.972 92.3367 184.887 92.3235C195.272 92.2952 198.104 88.4225 202.515 83.0714C206.188 78.6114 218.315 78.5095 228.806 90.0954C239.297 101.681 228.393 114.453 219.039 108.53C209.684 102.607 212.307 86.438 204.539 91.0188C193.848 97.3102 207.964 101.204 202.742 106.094C197.853 110.673 196.212 94.1721 170.208 103.588C154.247 109.368 160.867 121.105 179.713 124.714C198.559 128.322 193.945 109.746 209.001 118.635C224.057 127.525 281.303 139.077 263.186 140.316C246.171 141.479 236.346 178.385 259.154 192.798C258.312 210.525 243.081 211.126 236.346 212.913C228.852 214.901 223.675 175.217 192.411 175.217C181.838 170.246 168.197 177.904 165.805 185.684C162.501 196.412 147.35 145.562 175.204 145.562C204.539 145.562 152.125 179.858 136.133 169.972C110.736 154.272 160.286 207.706 150.686 209.522C138.727 211.788 101.732 200.017 96.5922 188.01C91.4526 176.003 114.599 182.806 109.439 172.032C104.278 161.258 109.782 121.579 131.249 116.19C142.767 113.299 146.07 109.519 147.35 106.085C151.126 95.9753 143.094 94.189 129.333 105.979C104.522 127.251 90.1207 159.762 89.5221 195.02C88.3552 263.619 143.018 320.174 211.616 321.341C211.616 321.341 182.362 287.816 189.622 265.845C178.06 246.997 180.442 249.17 168.081 251.56C147.479 255.542 151.307 207.114 165.805 205.152C188.038 202.143 192.016 183.958 215.842 197.023C221.644 200.204 215.842 222.317 239.636 220.282C211.616 238.806 245.763 227.115 215.842 262.296C210.978 276.703 187.623 299.972 192.411 308.686C196.188 315.549 215.834 319.337 224.072 320.14C241.72 321.858 266.634 313.11 282.882 300.361C297.88 288.592 306.263 279.075 307.051 256.685C307.995 230.184 321.063 230.411 328.686 217.282C336.308 204.154 333.51 187.46 321.614 179.858C309.719 172.256 312.425 233.956 291.435 235.449C291.435 200.921 251.983 185.217 256.112 172.032C260.242 158.846 303.199 138.85 307.43 143.856C311.662 148.862 314.175 146.122 316.739 140.316C319.303 134.51 309.917 118.517 305.64 122.246C301.364 125.975 298.646 117.174 293.36 119.559C288.073 121.944 291.619 131.245 291.435 142.028C291.252 152.812 281.209 154.084 276.955 141.473C273.923 132.482 276.844 123.898 279.814 118.399C282.856 112.767 281.247 106.881 278.184 105.424C272.578 102.76 266.177 115.144 258.211 121.143C251.249 126.385 242.473 112.329 250.486 102.805C259.882 91.64 224.376 80.3354 254.134 79.3497" stroke="black" stroke-width="1.25" stroke-linecap="round" stroke-linejoin="round"/>
<path d="M380.553 257.143C331.929 302.566 289.227 320.958 247.623 321.678C232.367 321.942 219.99 316.505 221.786 311.421C224.059 305.758 236.546 313.964 251.264 308.948C241.532 308.891 222.107 307.169 222.263 300.733C222.419 294.296 238.308 299.585 253.386 297.565C243.711 296.553 224.814 293.232 226.621 288.045C228.881 281.563 262.226 289.319 261.458 282.943C260.689 276.566 245.786 277.973 249.682 270.582C253.579 263.19 284.587 285.914 354.953 218.631" stroke="black" stroke-width="2" stroke-linecap="round" stroke-linejoin="round"/>
<path d="M247.623 321.678C289.227 320.958 331.929 302.566 380.553 257.143C385.714 250.699 397.385 230.04 389.303 220.13C379.2 207.744 359.292 214.548 354.953 218.631C284.587 285.914 253.579 263.19 249.682 270.582C245.786 277.973 260.689 276.566 261.458 282.943C262.226 289.319 228.881 281.563 226.621 288.045C224.814 293.232 243.711 296.553 253.386 297.565C238.308 299.585 222.419 294.296 222.263 300.733C222.107 307.169 241.532 308.891 251.264 308.948C236.546 313.964 224.059 305.758 221.786 311.421C219.99 316.505 232.367 321.942 247.623 321.678Z" fill="#F6F8FF"/>
<path d="M256.185 392.747C192.537 373.349 155.258 345.564 133.832 309.893C125.975 296.814 124.496 283.376 129.797 282.39C135.837 281.527 134.974 296.444 146.677 306.682C141.86 298.225 133.639 280.541 139.291 277.458C144.943 274.375 148.308 290.78 157.596 302.828C153.635 293.943 147.063 275.917 152.458 274.889C159.202 273.605 169.157 306.361 174.295 302.507C179.433 298.654 170.763 286.45 179.112 286.129C187.462 285.808 183.287 324.024 276.738 351.32" stroke="black" stroke-width="2" stroke-linecap="round" stroke-linejoin="round"/>
<path d="M133.832 309.893C155.258 345.564 192.537 373.349 256.185 392.747C264.347 393.994 288.074 393.773 292.614 381.819C298.29 366.876 282.443 353.037 276.738 351.32C183.287 324.024 187.462 285.808 179.112 286.129C170.763 286.45 179.433 298.654 174.295 302.507C169.157 306.361 159.202 273.605 152.458 274.889C147.063 275.917 153.635 293.944 157.596 302.828C148.308 290.78 144.943 274.375 139.291 277.458C133.639 280.541 141.86 298.225 146.677 306.682C134.974 296.444 135.837 281.527 129.797 282.39C124.495 283.376 125.975 296.814 133.832 309.893Z" fill="#F6F8FF"/>
<path d="M65.6961 345.711C50.6712 280.89 56.0944 234.713 76.2727 198.322C83.6718 184.978 94.5694 176.978 98.074 181.076C101.842 185.876 88.4918 192.587 85.4766 207.841C90.3917 199.441 101.596 183.479 107.092 186.833C112.588 190.186 100.063 201.303 94.2733 215.37C99.9874 207.498 112.313 192.792 115.9 196.951C120.385 202.149 96.9946 227.149 102.901 229.672C108.808 232.195 115.04 218.584 119.493 225.654C123.946 232.725 88.7633 248.217 111.849 342.797" stroke="black" stroke-width="2" stroke-linecap="round" stroke-linejoin="round"/>
<path d="M76.2727 198.322C56.0944 234.713 50.6712 280.89 65.6961 345.711C68.6969 353.402 80.7526 373.84 93.3753 371.795C109.154 369.239 113.215 348.596 111.849 342.797C88.7633 248.217 123.946 232.725 119.493 225.654C115.04 218.584 108.807 232.194 102.901 229.671C96.9945 227.148 120.385 202.149 115.9 196.951C112.313 192.792 99.9874 207.498 94.2733 215.37C100.063 201.302 112.588 190.186 107.092 186.833C101.596 183.479 90.3917 199.441 85.4766 207.841C88.4918 192.587 101.842 185.876 98.074 181.076C94.5693 176.978 83.6718 184.978 76.2727 198.322Z" fill="#F6F8FF"/>
<path d="M32.066 138.422C80.6897 93.0001 123.392 74.6083 164.996 73.8877C180.252 73.6234 192.629 79.061 190.833 84.145C188.56 89.8079 176.073 81.6021 161.355 86.6179C171.087 86.6745 190.512 88.3969 190.356 94.8332C190.2 101.269 174.31 95.9811 159.233 98.0007C168.907 99.013 187.805 102.334 185.998 107.52C183.738 114.003 150.393 106.247 151.161 112.623C151.929 119 166.833 117.592 162.936 124.984C159.04 132.376 128.032 109.652 57.6663 176.935" stroke="black" stroke-width="2" stroke-linecap="round" stroke-linejoin="round"/>
<path d="M164.996 73.8876C123.392 74.6082 80.6897 93.0001 32.066 138.422C26.9052 144.867 15.2338 165.526 23.3161 175.435C33.4189 187.822 53.327 181.017 57.6662 176.935C128.032 109.652 159.04 132.376 162.936 124.984C166.833 117.592 151.929 119 151.161 112.623C150.393 106.247 183.738 114.003 185.998 107.52C187.805 102.334 168.907 99.013 159.233 98.0007C174.31 95.9811 190.2 101.269 190.356 94.8331C190.512 88.3968 171.087 86.6745 161.355 86.6179C176.073 81.6021 188.56 89.8079 190.833 84.145C192.629 79.061 180.252 73.6234 164.996 73.8876Z" fill="#F6F8FF"/>
<path d="M168.824 1.5027C232.473 20.9011 269.752 48.6862 291.178 84.3566C299.035 97.4365 300.514 110.874 295.213 111.86C289.172 112.723 290.035 97.8063 278.333 87.568C283.15 96.0247 291.371 113.709 285.719 116.792C280.067 119.875 276.702 103.47 267.414 91.4217C271.374 100.307 277.947 118.333 272.552 119.361C265.808 120.645 255.853 87.8892 250.715 91.7428C245.576 95.5965 254.247 107.8 245.897 108.121C237.548 108.442 241.723 70.2265 148.271 42.9297" stroke="black" stroke-width="2" stroke-linecap="round" stroke-linejoin="round"/>
<path d="M291.178 84.3566C269.752 48.6862 232.473 20.901 168.825 1.50266C160.663 0.255602 136.936 0.477461 132.395 12.4315C126.72 27.3741 142.567 41.2128 148.272 42.9296C241.723 70.2265 237.548 108.442 245.898 108.121C254.247 107.8 245.576 95.5965 250.715 91.7428C255.853 87.8891 265.808 120.645 272.552 119.361C277.947 118.333 271.375 100.306 267.414 91.4216C276.702 103.47 280.067 119.875 285.719 116.792C291.371 113.709 283.15 96.0246 278.333 87.568C290.035 97.8063 289.173 112.723 295.213 111.86C300.514 110.874 299.035 97.4364 291.178 84.3566Z" fill="#F6F8FF"/>
<path d="M361.754 37.1798C376.779 102 371.356 148.177 351.177 184.568C343.778 197.913 332.881 205.913 329.376 201.815C325.608 197.015 338.958 190.304 341.973 175.05C337.058 183.45 325.854 199.411 320.358 196.058C314.862 192.705 327.387 181.588 333.177 167.52C327.463 175.393 315.137 190.098 311.55 185.94C307.065 180.742 330.455 155.742 324.549 153.219C318.642 150.696 312.409 164.307 307.957 157.236C303.504 150.166 338.687 134.674 315.601 40.0939" stroke="black" stroke-width="2" stroke-linecap="round" stroke-linejoin="round"/>
<path d="M351.177 184.568C371.356 148.177 376.779 102 361.754 37.1798C358.753 29.4881 346.697 9.05069 334.075 11.0956C318.296 13.6516 314.235 34.2949 315.601 40.0939C338.687 134.674 303.504 150.166 307.957 157.236C312.41 164.307 318.642 150.696 324.549 153.219C330.455 155.742 307.065 180.742 311.55 185.94C315.137 190.098 327.463 175.393 333.177 167.52C327.387 181.588 314.862 192.705 320.358 196.058C325.854 199.411 337.058 183.45 341.973 175.05C338.958 190.304 325.608 197.015 329.376 201.815C332.881 205.913 343.778 197.913 351.177 184.568Z" fill="#F6F8FF"/>
</svg>
