<svg width="507" height="263" viewBox="0 0 507 263" fill="none" xmlns="http://www.w3.org/2000/svg">
<path d="M120.252 70.7266C61.106 118.121 78.5218 157.704 94.1366 165.435L258.488 157.866C278.135 127.303 257.651 61.6811 242.289 51.625C250.324 25.2467 242.289 4.32607 198.174 1.14248C154.058 -2.0411 147.418 48.9581 120.252 70.7266Z" fill="black" stroke="black" stroke-linecap="round"/>
<path d="M160.352 109.536C94.744 109.536 84.8494 199.67 75.9083 236.925L121.471 257.84L308.729 256.292L309.62 234.464C308.212 234.381 297.251 221.002 264.666 168.15C246.727 139.055 218.256 110.516 206.69 110.107C207.897 127.193 202.527 136.344 184.961 136.664C178.145 136.789 160.633 127.565 160.352 109.536Z" fill="#F69143"/>
<path d="M176.093 55.5476C191.414 55.274 197.904 39.2459 199.234 31.266C202.321 47.2014 216.815 52.5528 228.054 53.646C227.499 72.685 218.314 108.366 186.012 98.7785C188.654 99.7926 194.806 101.083 199.01 101.083C199.409 103.603 201.683 109.601 206.846 110.486C207.86 120.104 204.965 138.806 185.274 136.667C165.583 134.528 160.476 117.892 160.384 109.841C164.041 110.224 170.831 108.055 168.728 96.3114C178.169 90.0736 177.789 67.615 176.093 55.5476Z" fill="#EFCF9F"/>
<path d="M236.17 53.7236C233.896 53.9259 231.094 53.9418 228.054 53.646M163.211 97.9549C165.343 97.929 167.169 97.3413 168.728 96.3114M228.054 53.646C216.815 52.5528 202.321 47.2014 199.234 31.266C197.904 39.2459 191.414 55.274 176.093 55.5476C177.789 67.615 178.169 90.0735 168.728 96.3114M228.054 53.646C227.499 72.685 218.314 108.366 186.012 98.7785C188.654 99.7926 194.806 101.083 199.01 101.083C199.409 103.603 201.683 109.601 206.846 110.486C207.86 120.104 204.965 138.806 185.274 136.667C165.583 134.528 160.476 117.892 160.384 109.841C164.041 110.224 170.831 108.055 168.728 96.3114" stroke="black" stroke-linecap="round"/>
<circle cx="222.524" cy="59.1347" r="10.8981" stroke="black"/>
<path d="M211.751 57.2904C210.741 63.9158 215.111 66.0599 213.057 70.3713C211.415 73.8205 207.126 73.0859 205.187 72.2875" stroke="black" stroke-linecap="round" stroke-linejoin="round"/>
<path d="M191.142 73.5897C192.015 80.0549 203.548 85.9959 211.411 80.4044" stroke="black" stroke-linecap="round"/>
<circle cx="192.671" cy="57.437" r="2.48998" fill="black"/>
<circle cx="219.755" cy="58.7929" r="2.48998" fill="black"/>
<circle cx="193.998" cy="57.7789" r="10.8981" stroke="black"/>
<path d="M86.0329 249.064C114.256 266.352 168.205 255.555 191.961 247.507C201.308 259.19 243.757 260.748 236.358 244.002C228.959 227.256 200.529 228.034 189.625 228.813C178.72 229.592 125.264 226.082 105.894 216.351C83.3068 205.003 63.0557 234.99 86.0329 249.064Z" fill="#EFCF9F" stroke="black"/>
<rect x="116.521" y="251.976" width="134.11" height="9.94644" rx="3.11037" fill="white" stroke="black"/>
<path d="M269.338 164.579H397.668C402.583 164.579 406.148 169.259 404.844 173.997L382.099 256.63C381.21 259.86 378.273 262.097 374.923 262.097H246.594C241.679 262.097 238.114 257.418 239.418 252.679L262.162 170.047C263.051 166.817 265.988 164.579 269.338 164.579Z" fill="white" stroke="black"/>
<path d="M143.358 168.491C138.186 178.287 133.794 200.074 135.03 220.365" stroke="black"/>
<path d="M0 261.995L484.001 261.438" stroke="black"/>
<rect x="299.512" y="14.937" width="206.763" height="116.914" rx="14" fill="#D9E8FF"/>
<path fill-rule="evenodd" clip-rule="evenodd" d="M397.096 37.8717H314.774V35.994H397.096V37.8717Z" fill="black"/>
<path fill-rule="evenodd" clip-rule="evenodd" d="M491.012 52.4561H314.774V50.5784H491.012V52.4561Z" fill="black"/>
<path fill-rule="evenodd" clip-rule="evenodd" d="M491.012 67.0405H314.774V65.1628H491.012V67.0405Z" fill="black"/>
<path fill-rule="evenodd" clip-rule="evenodd" d="M491.012 81.6248H314.774V79.7471H491.012V81.6248Z" fill="black"/>
<path fill-rule="evenodd" clip-rule="evenodd" d="M491.012 96.2092H314.774V94.3315H491.012V96.2092Z" fill="black"/>
<path fill-rule="evenodd" clip-rule="evenodd" d="M441.542 110.794H314.774V108.916H441.542V110.794Z" fill="black"/>
</svg>
