<svg width="35" height="38" viewBox="0 0 35 38" fill="none" xmlns="http://www.w3.org/2000/svg">
<g clip-path="url(#clip0_1_61)">
<rect width="35" height="38" fill="white"/>
<path d="M31.3345 17.5554C31.3345 18.0425 31.307 18.539 31.2579 19.0284C31.101 20.7669 30.7034 22.4343 30.0652 24.0258C29.8377 24.597 29.1778 24.8779 28.627 24.5935C28.1384 24.341 27.9504 23.7864 28.1384 23.3136C28.7036 21.8903 29.0557 20.3984 29.1958 18.8305C29.2557 18.2487 29.276 17.6858 29.2557 17.1371C29.0282 10.8527 23.8874 5.72382 17.5371 5.47851C10.5833 5.20832 4.83902 10.7283 4.83902 17.5507C4.83902 17.969 4.86178 18.3921 4.90489 18.8128C5.47369 25.1374 9.44813 30.2379 17.0497 34.4081C19.6411 32.9872 21.8085 31.4561 23.5652 29.8077C23.9185 29.4759 24.4658 29.3918 24.8693 29.6619C25.4261 30.0352 25.4776 30.7972 25.0178 31.2333C23.0024 33.1448 20.5081 34.8952 17.5395 36.4772C17.3862 36.559 17.2186 36.6004 17.0485 36.6004C16.8785 36.6004 16.7109 36.559 16.5576 36.4772C8.09617 31.9752 3.48108 26.0985 2.84522 19.0142C2.79612 18.539 2.76858 18.0437 2.76858 17.5554C2.76858 9.7613 9.17391 3.42244 17.0497 3.42244C24.928 3.42244 31.3345 9.7613 31.3345 17.5554ZM24.3388 15.2114C24.3496 15.2457 24.3616 15.2801 24.3711 15.3145L24.3388 15.2114ZM22.4145 15.99C22.4025 15.9497 22.3893 15.9094 22.3761 15.8691L22.4145 15.99Z" fill="black"/>
<path d="M17.076 10.2931C15.4774 10.2931 13.9146 10.7671 12.5854 11.6553C11.2561 12.5435 10.2201 13.8059 9.60835 15.2828C8.99657 16.7598 8.83651 18.385 9.14839 19.9529C9.46027 21.5209 10.2301 22.9611 11.3605 24.0915C12.4909 25.222 13.9312 25.9918 15.4991 26.3037C17.0671 26.6156 18.6923 26.4555 20.1692 25.8437C21.6462 25.2319 22.9086 24.1959 23.7968 22.8667C24.6849 21.5374 25.159 19.9747 25.159 18.376C25.1589 16.2323 24.3072 14.1765 22.7914 12.6607C21.2756 11.1449 19.2197 10.2932 17.076 10.2931Z" stroke="black" stroke-width="2" stroke-miterlimit="10"/>
<path d="M23.1065 24.4065L28.7515 30.0515" stroke="black" stroke-width="2" stroke-miterlimit="10" stroke-linecap="round"/>
<line x1="17.2" y1="11" x2="17.2" y2="26.5673" stroke="black" stroke-width="2"/>
<line x1="9.7" y1="18.7" x2="25.2673" y2="18.7" stroke="black" stroke-width="2"/>
</g>
<defs>
<clipPath id="clip0_1_61">
<rect width="35" height="38" fill="white"/>
</clipPath>
</defs>
</svg>
