<svg width="503" height="238" viewBox="0 0 503 238" fill="none" xmlns="http://www.w3.org/2000/svg">
<path d="M492.106 192.585C490.017 191.637 484.96 188.152 480.144 185.756C466.793 179.114 446.539 174.943 443.691 174.374C440.843 173.805 414.282 164.315 397.554 153.887C372.996 138.576 359.392 112.911 344.013 102.668C328.635 92.424 281.773 98.48 246.044 82.7493C230.188 75.7681 228.387 72.5055 207.313 61.1236C190.453 52.018 180.687 60.3782 165.163 54.2944C147.061 47.2 136.57 39.8393 124.723 25.2704C109.914 7.05927 81.7441 9.34155 52.9548 4.78289C32.8621 1.6013 10.134 2.26096 0.999984 1" stroke="black" stroke-width="1.5"/>
<path d="M137.718 37.5769C154.515 28.4803 263.006 90.5974 335.07 54.2357C352.372 45.5053 366.934 72.1819 378.737 57.6273C393.491 39.4341 420.73 40.0026 450.238 37.1599C469.807 37.1599 492.9 34.6405 502 33.3807" stroke="black" stroke-width="1.5"/>
<path d="M101.807 104.851C132.868 87.0755 172.81 118.327 166.996 148.382C161.413 177.244 124.231 172.269 94.9149 170.081C67.0783 168.004 19.3621 166.724 29.7099 140.799C39.897 115.277 81.3962 116.532 101.807 104.851Z" fill="#8A9B49"/>
<path d="M108.286 111.33C139.347 93.5545 179.289 124.806 173.475 154.861C167.892 183.723 130.71 178.748 101.394 176.56C73.5575 174.483 25.8413 173.203 36.1891 147.278C46.3762 121.756 87.8754 123.011 108.286 111.33Z" stroke="black" stroke-linecap="round"/>
<path d="M16.4771 209.629H486.73" stroke="black" stroke-linecap="round"/>
<rect x="253.965" y="156.61" width="146.563" height="76.8093" rx="14" fill="#589AE2"/>
<path d="M116.482 148.115C116.482 142.518 119.805 137.455 124.941 135.228L187.78 107.987C191.345 106.441 195.39 106.441 198.954 107.987L261.793 135.228C266.929 137.455 270.253 142.518 270.253 148.115V219.373C270.253 227.13 263.964 233.419 256.206 233.419H130.528C122.77 233.419 116.482 227.13 116.482 219.373V148.115Z" fill="#CBDBED"/>
<rect x="137.189" y="196.923" width="63.4364" height="39.8857" rx="13.2962" stroke="black" stroke-width="1.5"/>
<rect x="229.155" y="196.923" width="21.4604" height="39.8857" rx="10.25" stroke="black" stroke-width="1.5"/>
<rect x="137.189" y="178.937" width="113.426" height="9.79016" rx="4.89508" stroke="black" stroke-width="1.5"/>
<rect x="137.189" y="160.952" width="113.426" height="9.79016" rx="4.89508" stroke="black" stroke-width="1.5"/>
<path d="M116.481 142.379L270.253 142.379" stroke="black" stroke-width="1.5" stroke-linecap="round"/>
<path d="M270.252 156.61L270.252 233.419" stroke="black" stroke-width="1.5" stroke-linecap="round"/>
<rect x="282.311" y="172.368" width="8.99274" height="17.109" fill="white"/>
<rect x="305.253" y="172.368" width="8.99274" height="17.109" fill="white"/>
<rect x="328.195" y="172.368" width="8.99274" height="17.109" fill="white"/>
<rect x="351.137" y="172.368" width="8.99274" height="17.109" fill="white"/>
<rect x="374.078" y="172.368" width="8.99274" height="17.109" fill="white"/>
<circle cx="407.107" cy="213.723" r="21.1373" fill="#AABE5D"/>
<ellipse cx="430.942" cy="224.516" rx="10.7935" ry="10.3438" fill="#AABE5D"/>
<path d="M431.342 215.072C431.342 226.728 422.092 236.159 410.704 236.159C399.317 236.159 390.067 226.728 390.067 215.072C390.067 203.416 399.317 193.985 410.704 193.985C422.092 193.985 431.342 203.416 431.342 215.072Z" stroke="black"/>
<circle cx="434.54" cy="225.865" r="10.2935" stroke="black"/>
<path d="M100.84 153.908V194.834M100.84 235.759V194.834M100.84 194.834C88.2477 195.646 63.0627 189.355 63.0627 157.692" stroke="black" stroke-width="3"/>
</svg>
