<svg width="283" height="332" viewBox="0 0 283 332" fill="none" xmlns="http://www.w3.org/2000/svg">
<g clip-path="url(#clip0_161_336)">
<path d="M141.5 0C63.4699 0 0 63.4284 0 141.407C0 146.285 0.266594 151.244 0.758768 155.999C3.4042 185.797 13.0836 213.751 29.5099 239.061C31.007 241.356 33.3653 242.954 36.0517 243.508C38.7382 244.061 41.5272 243.508 43.824 241.991C45.6491 240.782 47.0231 239.02 47.7614 236.97L89.3296 122.86C97.1633 100.85 118.122 86.0536 141.521 86.0536C164.919 86.0536 185.878 100.85 193.732 122.922L235.259 236.95C236.12 239.327 237.782 241.192 239.832 242.36C241.432 243.262 243.175 243.713 244.898 243.713C248.261 243.713 251.542 242.073 253.511 239.04C269.937 213.73 279.616 185.777 282.241 156.122C282.754 151.203 283 146.244 283 141.387C283 63.4284 219.53 0 141.5 0ZM261.816 154.196C260.114 173.419 255.09 191.781 246.887 209.017L213.009 116.016C202.283 85.8486 173.553 65.5802 141.5 65.5802C109.447 65.5802 80.7165 85.8486 70.0117 115.934L36.1133 208.996C27.8899 191.761 22.8861 173.357 21.1635 154.032C20.7328 149.83 20.5072 145.588 20.5072 141.407C20.5072 73.8802 76.1844 19.1002 144.084 20.5143C205.688 21.8054 256.771 70.1299 262.083 131.468C262.718 138.784 262.657 146.305 261.837 154.175L261.816 154.196ZM225.887 271.174C226.051 271.625 226.256 272.056 226.441 272.486C205.483 293.861 178.721 313.371 146.36 330.77C144.843 331.59 143.182 332 141.5 332C139.818 332 138.157 331.59 136.64 330.77C106.72 314.683 81.5983 296.792 61.3987 277.281C58.4662 274.453 57.4613 270.191 58.8558 266.379C61.3987 259.37 70.2988 257.423 75.6512 262.587C93.3695 279.7 115.374 295.582 141.479 310.072C167.585 295.582 189.589 279.7 207.308 262.587C212.681 257.402 221.56 259.37 224.103 266.379L225.846 271.174H225.887ZM130.816 168.029V127.82C130.816 122.901 134.117 118.372 138.957 117.409C145.54 116.098 151.323 121.098 151.323 127.451V168.439C151.323 174.792 145.54 179.792 138.957 178.481C134.117 177.518 130.816 172.988 130.816 168.07V168.029ZM130.816 220.042C130.816 215.124 134.117 210.595 138.957 209.631C145.54 208.32 151.323 213.32 151.323 219.673V260.661C151.323 267.014 145.54 272.015 138.957 270.703C134.117 269.74 130.816 265.211 130.816 260.292V220.083V220.042Z" fill="black"/>
</g>
<defs>
<clipPath id="clip0_161_336">
<rect width="283" height="332" fill="white"/>
</clipPath>
</defs>
</svg>
